<svg id="svg" xmlns="http://www.w3.org/2000/svg" xmlns:xlink="http://www.w3.org/1999/xlink" width="400" height="156.03169944232462" viewBox="0, 0, 400,156.03169944232462"><g id="svgg"><path id="path0" d="M147.513 42.747 C 147.475 42.807,147.405 42.832,147.356 42.802 C 147.306 42.771,146.927 42.847,146.512 42.970 C 146.098 43.093,145.614 43.219,145.438 43.250 C 145.261 43.281,145.075 43.332,145.023 43.364 C 144.971 43.396,144.614 43.459,144.228 43.503 C 143.843 43.547,143.497 43.602,143.459 43.624 C 143.422 43.646,142.867 43.699,142.227 43.740 C 141.586 43.781,140.613 43.855,140.065 43.903 C 139.516 43.951,133.255 44.007,126.152 44.027 C 110.457 44.071,110.088 44.080,109.489 44.410 C 109.355 44.484,109.183 44.555,109.106 44.568 C 108.712 44.634,107.676 45.671,107.617 46.056 C 107.605 46.135,107.546 46.278,107.485 46.375 C 107.262 46.729,107.164 47.971,107.316 48.520 C 107.631 49.659,108.353 50.162,110.766 50.921 C 111.394 51.119,112.297 52.512,112.424 53.478 C 112.440 53.607,112.541 54.083,112.647 54.535 C 112.754 54.987,112.858 55.515,112.879 55.709 C 112.900 55.903,112.929 56.087,112.944 56.120 C 112.958 56.152,112.960 56.296,112.949 56.441 C 112.937 56.585,112.964 56.762,113.008 56.833 C 113.053 56.905,113.108 57.210,113.131 57.510 C 113.155 57.811,113.197 58.215,113.227 58.409 C 113.256 58.603,113.310 59.369,113.347 60.112 C 113.385 60.854,113.443 61.832,113.476 62.284 C 113.629 64.350,113.692 70.668,113.589 73.496 C 113.470 76.726,113.427 77.571,113.367 77.841 C 113.332 78.002,113.272 78.556,113.235 79.072 C 113.159 80.111,113.092 80.771,113.006 81.303 C 112.881 82.082,112.792 82.844,112.797 83.094 C 112.799 83.239,112.755 83.358,112.698 83.358 C 112.641 83.358,112.595 83.477,112.596 83.622 C 112.598 83.968,112.538 84.331,112.456 84.475 C 112.419 84.539,112.356 84.749,112.315 84.943 C 112.209 85.442,111.500 86.876,111.358 86.878 C 111.293 86.879,111.107 86.999,110.945 87.144 C 110.783 87.289,110.178 87.641,109.601 87.925 C 108.712 88.363,107.538 89.228,107.833 89.228 C 107.883 89.228,107.855 89.311,107.771 89.413 C 107.619 89.596,107.566 90.749,107.683 91.341 C 107.836 92.122,108.454 92.804,109.422 93.263 C 110.034 93.553,109.224 93.540,131.670 93.616 C 138.838 93.640,144.834 93.686,144.996 93.718 C 145.351 93.789,147.031 93.962,147.520 93.979 C 147.714 93.985,147.928 94.025,147.996 94.068 C 148.297 94.255,150.983 94.440,150.983 94.274 C 150.983 94.203,151.033 94.176,151.095 94.214 C 151.379 94.390,152.967 93.080,152.976 92.662 C 152.978 92.581,153.035 92.515,153.103 92.515 C 153.172 92.515,153.195 92.463,153.155 92.398 C 153.115 92.333,153.142 92.281,153.214 92.281 C 153.286 92.281,153.313 92.228,153.273 92.163 C 153.233 92.099,153.256 92.046,153.323 92.046 C 153.447 92.046,154.242 90.736,154.171 90.650 C 154.150 90.625,154.183 90.572,154.245 90.533 C 154.306 90.493,154.502 90.144,154.679 89.756 C 154.856 89.369,155.106 88.828,155.233 88.553 C 155.361 88.279,155.476 87.988,155.490 87.908 C 155.504 87.827,155.587 87.628,155.676 87.467 C 155.764 87.306,155.834 87.147,155.832 87.115 C 155.824 87.026,155.865 86.889,156.148 86.058 C 156.506 85.008,156.735 84.197,156.810 83.710 C 156.845 83.484,156.886 83.220,156.901 83.123 C 156.917 83.026,156.967 82.864,157.013 82.763 C 157.468 81.768,156.780 77.722,156.156 77.722 C 156.088 77.722,156.032 77.662,156.032 77.589 C 156.032 77.411,155.513 76.938,155.214 76.843 C 155.082 76.801,154.975 76.723,154.975 76.669 C 154.975 76.446,153.111 76.245,152.744 76.429 C 152.712 76.445,152.644 76.452,152.594 76.444 C 152.267 76.390,150.748 77.597,150.748 77.912 C 150.748 77.991,150.706 78.073,150.655 78.094 C 150.516 78.152,149.553 79.953,149.659 79.955 C 149.710 79.956,149.694 79.995,149.624 80.043 C 149.554 80.090,149.343 80.420,149.155 80.775 C 148.967 81.130,148.786 81.447,148.752 81.479 C 148.719 81.512,148.538 81.776,148.351 82.066 C 147.970 82.658,146.941 83.712,146.228 84.241 C 145.970 84.432,145.720 84.642,145.672 84.707 C 145.615 84.785,145.585 84.786,145.583 84.708 C 145.581 84.642,145.541 84.648,145.493 84.723 C 145.392 84.877,143.280 85.684,142.730 85.779 C 142.523 85.814,142.275 85.873,142.178 85.910 C 141.961 85.991,141.945 85.994,139.771 86.248 C 138.206 86.431,133.221 86.282,132.198 86.021 C 131.428 85.825,129.783 84.767,130.249 84.767 C 130.275 84.767,130.218 84.516,130.121 84.209 C 129.936 83.623,129.929 83.573,129.791 81.890 C 129.744 81.309,129.683 80.796,129.656 80.751 C 129.419 80.344,129.421 73.886,129.659 73.648 C 129.700 73.607,129.733 73.488,129.733 73.382 C 129.733 72.254,131.228 71.535,133.114 71.756 C 135.463 72.031,136.580 73.207,136.964 75.810 C 137.067 76.507,137.199 77.094,137.258 77.116 C 137.317 77.138,137.336 77.204,137.299 77.263 C 137.263 77.322,137.274 77.436,137.325 77.517 C 137.375 77.598,137.426 77.728,137.438 77.806 C 137.640 79.138,140.187 79.417,141.561 78.258 C 141.771 78.081,141.943 77.875,141.943 77.800 C 141.943 77.725,142.073 77.513,142.231 77.329 C 142.390 77.145,142.608 76.722,142.716 76.390 C 142.825 76.057,142.966 75.719,143.030 75.638 C 143.094 75.558,143.107 75.492,143.058 75.492 C 143.010 75.492,143.037 75.412,143.117 75.316 C 143.197 75.219,143.234 75.139,143.197 75.139 C 143.161 75.139,143.204 74.998,143.294 74.825 C 143.384 74.652,143.429 74.465,143.395 74.409 C 143.360 74.353,143.384 74.244,143.449 74.166 C 143.513 74.088,143.604 73.813,143.650 73.554 C 143.697 73.296,143.758 72.979,143.785 72.850 C 143.813 72.721,143.859 72.457,143.888 72.263 C 143.917 72.069,143.969 71.752,144.004 71.559 C 144.347 69.654,144.243 64.552,143.825 62.753 C 143.765 62.495,143.687 62.099,143.653 61.873 C 143.512 60.948,143.470 60.747,143.372 60.522 C 143.249 60.240,142.993 59.512,142.959 59.348 C 142.897 59.042,142.608 58.468,142.516 58.468 C 142.459 58.468,142.413 58.404,142.413 58.326 C 142.413 58.181,141.394 57.188,141.218 57.162 C 141.066 57.139,140.962 57.105,140.726 57.002 C 140.187 56.766,139.014 56.898,138.459 57.256 C 137.437 57.915,137.025 58.524,136.847 59.642 C 136.831 59.739,136.785 59.924,136.744 60.053 C 136.703 60.182,136.641 60.578,136.606 60.933 C 136.572 61.289,136.512 61.738,136.475 61.931 C 136.437 62.125,136.391 62.389,136.373 62.518 C 136.354 62.647,136.279 62.902,136.206 63.084 C 136.133 63.265,136.073 63.454,136.073 63.502 C 136.073 63.753,135.059 64.475,134.605 64.547 C 134.185 64.614,131.171 64.605,131.060 64.536 C 131.001 64.500,130.850 64.485,130.725 64.503 C 129.959 64.615,129.207 63.844,129.089 62.823 C 129.001 62.061,128.980 55.142,129.064 54.359 C 129.203 53.054,129.868 51.776,130.408 51.776 C 130.499 51.776,130.533 51.718,130.485 51.640 C 130.439 51.565,130.452 51.536,130.515 51.575 C 130.578 51.614,130.863 51.564,131.150 51.465 C 132.255 51.081,132.905 51.008,135.075 51.028 C 138.029 51.054,140.303 51.228,141.473 51.518 C 141.699 51.575,141.937 51.627,142.002 51.635 C 142.392 51.686,143.469 52.073,143.469 52.163 C 143.469 52.222,143.551 52.239,143.652 52.201 C 143.752 52.162,143.808 52.173,143.776 52.224 C 143.744 52.275,143.913 52.420,144.152 52.545 C 144.390 52.671,144.643 52.826,144.715 52.891 C 145.340 53.455,145.599 53.654,145.706 53.654 C 145.775 53.654,145.803 53.700,145.768 53.757 C 145.733 53.813,145.836 53.958,145.996 54.078 C 146.156 54.199,146.287 54.364,146.287 54.445 C 146.287 54.527,146.340 54.593,146.404 54.593 C 146.469 54.593,146.522 54.648,146.522 54.716 C 146.522 54.844,146.907 55.421,147.256 55.815 C 147.369 55.942,147.461 56.098,147.461 56.161 C 147.461 56.225,147.497 56.240,147.541 56.196 C 147.585 56.152,147.691 56.280,147.775 56.481 C 147.859 56.681,148.034 56.873,148.163 56.907 C 148.292 56.941,148.372 57.009,148.341 57.060 C 148.266 57.181,149.319 57.673,149.463 57.584 C 149.524 57.546,149.574 57.569,149.574 57.635 C 149.574 57.777,151.348 57.725,151.588 57.576 C 151.675 57.521,151.824 57.465,151.919 57.450 C 152.014 57.436,152.152 57.343,152.224 57.243 C 152.297 57.144,152.381 57.087,152.410 57.116 C 152.583 57.289,153.527 55.953,153.786 55.168 C 154.059 54.339,154.081 54.164,154.104 52.598 C 154.132 50.657,153.723 48.082,153.307 47.579 C 153.240 47.498,153.221 47.432,153.266 47.432 C 153.334 47.432,152.961 46.621,152.617 46.023 C 152.562 45.926,152.429 45.675,152.323 45.465 C 152.217 45.255,152.084 45.084,152.027 45.084 C 151.969 45.084,151.922 45.018,151.922 44.937 C 151.922 44.662,150.572 43.205,150.317 43.205 C 150.231 43.205,150.161 43.157,150.161 43.097 C 150.161 42.770,147.700 42.444,147.513 42.747 M184.887 43.033 C 184.869 43.048,184.353 43.096,183.739 43.139 C 182.522 43.224,180.346 43.538,180.158 43.655 C 180.094 43.696,179.897 43.737,179.722 43.747 C 179.546 43.756,179.308 43.805,179.193 43.855 C 179.078 43.905,178.932 43.954,178.867 43.963 C 178.725 43.985,178.113 44.142,177.869 44.220 C 177.772 44.252,177.679 44.272,177.662 44.267 C 177.646 44.262,177.477 44.337,177.287 44.435 C 177.097 44.533,176.847 44.633,176.731 44.658 C 176.016 44.806,175.744 44.891,175.688 44.981 C 175.653 45.038,175.544 45.084,175.446 45.084 C 175.194 45.084,172.234 46.507,172.234 46.628 C 172.234 46.683,172.166 46.727,172.084 46.727 C 171.849 46.727,170.222 47.716,169.438 48.335 C 169.046 48.646,168.551 49.031,168.339 49.193 C 167.882 49.541,165.351 52.069,165.013 52.516 C 164.884 52.687,164.637 52.992,164.463 53.194 C 164.021 53.710,163.193 54.930,163.193 55.067 C 163.193 55.129,163.142 55.181,163.080 55.181 C 163.017 55.181,163.000 55.268,163.041 55.376 C 163.091 55.507,163.071 55.543,162.979 55.486 C 162.897 55.436,162.841 55.473,162.841 55.576 C 162.841 55.672,162.770 55.822,162.683 55.909 C 162.495 56.097,161.645 57.763,161.737 57.763 C 161.773 57.763,161.723 57.842,161.627 57.937 C 161.532 58.033,161.363 58.363,161.252 58.671 C 161.142 58.979,160.983 59.389,160.900 59.583 C 160.702 60.040,160.271 61.395,160.227 61.697 C 160.208 61.826,160.161 61.984,160.122 62.049 C 160.046 62.175,159.941 62.625,159.835 63.281 C 159.799 63.507,159.747 63.824,159.721 63.986 C 159.622 64.591,159.547 65.120,159.469 65.747 C 159.369 66.562,159.367 70.893,159.467 71.676 C 159.509 71.999,159.572 72.554,159.607 72.909 C 159.642 73.264,159.702 73.634,159.740 73.731 C 159.778 73.827,159.829 74.039,159.853 74.200 C 159.973 74.992,160.322 76.253,160.654 77.098 C 160.811 77.497,160.909 77.854,160.873 77.891 C 160.836 77.927,160.872 77.957,160.953 77.957 C 161.034 77.957,161.075 78.023,161.045 78.104 C 161.014 78.185,161.114 78.468,161.266 78.734 C 161.417 79.000,161.508 79.251,161.467 79.292 C 161.427 79.333,161.449 79.366,161.517 79.366 C 161.585 79.366,161.675 79.549,161.717 79.773 C 161.759 79.997,161.873 80.259,161.969 80.356 C 162.066 80.453,162.132 80.547,162.117 80.565 C 162.059 80.633,163.011 82.301,163.108 82.301 C 163.162 82.301,163.179 82.346,163.145 82.401 C 163.111 82.457,163.214 82.624,163.373 82.774 C 163.533 82.924,163.663 83.117,163.663 83.202 C 163.663 83.288,163.719 83.358,163.787 83.358 C 163.856 83.358,163.879 83.411,163.839 83.476 C 163.798 83.541,163.848 83.626,163.948 83.664 C 164.049 83.703,164.107 83.774,164.078 83.822 C 164.048 83.869,164.201 84.101,164.417 84.338 C 164.633 84.574,164.778 84.767,164.738 84.767 C 164.698 84.767,164.782 84.886,164.923 85.031 C 165.064 85.176,165.442 85.594,165.762 85.960 C 166.082 86.326,166.374 86.595,166.412 86.557 C 166.450 86.519,166.481 86.574,166.481 86.678 C 166.481 86.783,166.727 87.069,167.028 87.314 C 167.328 87.560,167.667 87.849,167.781 87.956 C 167.895 88.064,168.018 88.121,168.056 88.083 C 168.094 88.046,168.124 88.103,168.124 88.211 C 168.124 88.318,168.167 88.406,168.220 88.406 C 168.272 88.406,168.424 88.508,168.557 88.632 C 168.956 89.003,170.616 90.167,170.747 90.167 C 170.814 90.167,170.977 90.268,171.111 90.391 C 171.561 90.806,174.432 92.281,174.789 92.281 C 174.918 92.281,175.088 92.360,175.169 92.457 C 175.249 92.554,175.417 92.633,175.543 92.633 C 175.668 92.633,176.044 92.761,176.379 92.917 C 176.714 93.074,177.196 93.234,177.449 93.272 C 177.703 93.311,177.988 93.407,178.084 93.487 C 178.179 93.566,178.276 93.615,178.299 93.596 C 178.351 93.553,179.159 93.685,179.395 93.775 C 179.492 93.812,179.624 93.855,179.689 93.870 C 179.753 93.885,180.018 93.952,180.276 94.019 C 180.534 94.086,181.010 94.173,181.333 94.213 C 181.655 94.253,182.104 94.310,182.330 94.339 C 184.552 94.632,187.461 94.635,189.786 94.347 C 189.979 94.323,190.442 94.267,190.813 94.223 C 191.184 94.178,191.488 94.106,191.488 94.062 C 191.488 94.018,191.633 93.975,191.811 93.965 C 191.989 93.956,192.266 93.916,192.427 93.876 C 192.589 93.837,192.853 93.779,193.014 93.748 C 193.625 93.631,193.787 93.589,194.100 93.468 C 194.278 93.399,194.423 93.379,194.423 93.422 C 194.423 93.466,194.487 93.438,194.564 93.361 C 194.642 93.283,194.801 93.220,194.918 93.220 C 195.241 93.220,196.067 92.941,196.067 92.832 C 196.067 92.779,196.117 92.768,196.179 92.806 C 196.241 92.844,196.633 92.720,197.051 92.530 C 197.469 92.341,197.841 92.216,197.878 92.253 C 197.915 92.290,197.945 92.255,197.945 92.176 C 197.945 92.097,197.998 92.065,198.063 92.104 C 198.127 92.144,198.180 92.118,198.180 92.046 C 198.180 91.974,198.224 91.942,198.278 91.975 C 198.386 92.041,199.370 91.594,199.485 91.426 C 199.524 91.368,199.593 91.330,199.636 91.341 C 199.734 91.366,201.043 90.714,201.526 90.400 C 201.720 90.274,201.999 90.118,202.146 90.053 C 202.293 89.989,202.443 89.856,202.481 89.759 C 202.518 89.661,202.588 89.606,202.636 89.636 C 202.718 89.686,203.562 89.126,203.912 88.790 C 203.997 88.708,204.107 88.641,204.156 88.641 C 204.204 88.641,204.570 88.325,204.969 87.938 C 205.368 87.552,205.694 87.272,205.694 87.317 C 205.694 87.435,208.100 84.902,208.103 84.781 C 208.104 84.741,208.236 84.571,208.396 84.405 C 208.857 83.925,209.326 83.309,209.319 83.192 C 209.316 83.133,209.397 83.038,209.499 82.981 C 209.602 82.924,209.686 82.800,209.686 82.706 C 209.686 82.613,209.733 82.536,209.790 82.536 C 209.847 82.536,209.982 82.351,210.089 82.125 C 210.196 81.899,210.334 81.714,210.396 81.714 C 210.457 81.714,210.508 81.608,210.508 81.479 C 210.508 81.350,210.561 81.244,210.625 81.244 C 210.690 81.244,210.743 81.192,210.743 81.129 C 210.743 81.065,210.980 80.584,211.270 80.059 C 211.830 79.048,212.590 77.111,212.925 75.844 C 213.037 75.424,213.165 75.028,213.210 74.963 C 213.255 74.899,213.300 74.609,213.309 74.319 C 213.318 74.028,213.384 73.615,213.455 73.400 C 213.526 73.185,213.560 72.882,213.531 72.728 C 213.501 72.574,213.527 72.431,213.588 72.410 C 213.726 72.364,213.765 68.101,213.636 66.980 C 213.584 66.528,213.537 66.092,213.532 66.011 C 213.526 65.930,213.489 65.864,213.449 65.864 C 213.410 65.864,213.373 65.693,213.367 65.483 C 213.338 64.362,213.318 64.211,213.208 64.279 C 213.140 64.322,213.091 64.207,213.091 64.006 C 213.091 63.544,212.399 61.310,211.885 60.112 C 211.815 59.950,211.768 59.759,211.780 59.687 C 211.792 59.615,211.722 59.489,211.625 59.408 C 211.527 59.327,211.447 59.162,211.447 59.041 C 211.447 58.919,211.391 58.820,211.323 58.820 C 211.254 58.820,211.228 58.772,211.265 58.712 C 211.302 58.653,211.248 58.521,211.146 58.419 C 211.044 58.317,210.992 58.233,211.031 58.233 C 211.069 58.233,210.967 57.983,210.804 57.676 C 210.641 57.370,210.508 57.063,210.508 56.994 C 210.508 56.925,210.415 56.766,210.301 56.641 C 210.187 56.516,209.963 56.162,209.802 55.856 C 209.642 55.549,209.471 55.298,209.422 55.298 C 209.373 55.298,209.334 55.225,209.334 55.136 C 209.334 55.047,209.254 54.908,209.155 54.826 C 209.057 54.745,208.893 54.501,208.790 54.284 C 208.687 54.067,208.556 53.889,208.499 53.889 C 208.441 53.889,208.394 53.823,208.394 53.742 C 208.394 53.662,208.235 53.427,208.042 53.220 C 207.848 53.014,207.690 52.799,207.690 52.743 C 207.690 52.686,207.571 52.530,207.426 52.396 C 207.281 52.262,206.871 51.821,206.516 51.417 C 205.487 50.244,204.733 49.523,203.698 48.722 C 203.408 48.496,203.152 48.273,203.131 48.224 C 203.109 48.176,203.015 48.136,202.922 48.136 C 202.828 48.136,202.721 48.057,202.684 47.960 C 202.647 47.863,202.543 47.784,202.453 47.784 C 202.363 47.784,202.289 47.742,202.289 47.691 C 202.289 47.640,201.986 47.417,201.614 47.195 C 201.243 46.973,200.913 46.762,200.881 46.725 C 200.730 46.553,199.936 46.157,200.002 46.287 C 200.043 46.368,200.000 46.341,199.908 46.228 C 199.815 46.115,199.656 46.023,199.554 46.023 C 199.452 46.023,199.332 45.964,199.287 45.892 C 199.197 45.746,198.171 45.257,198.033 45.294 C 197.985 45.308,197.945 45.266,197.945 45.201 C 197.945 45.136,197.850 45.084,197.734 45.084 C 197.618 45.084,197.473 45.035,197.411 44.976 C 197.350 44.917,197.194 44.851,197.065 44.829 C 196.936 44.808,196.804 44.762,196.771 44.728 C 196.646 44.595,194.305 43.896,194.201 43.961 C 194.140 43.998,194.073 43.980,194.052 43.921 C 194.030 43.862,193.827 43.779,193.601 43.737 C 193.064 43.637,192.722 43.570,192.398 43.501 C 191.649 43.340,190.594 43.208,190.463 43.258 C 190.381 43.290,190.314 43.273,190.314 43.221 C 190.314 43.169,190.063 43.116,189.756 43.102 C 188.742 43.058,184.919 43.004,184.887 43.033 M236.790 43.026 C 236.764 43.052,236.466 43.086,236.129 43.102 C 235.791 43.117,235.515 43.160,235.515 43.197 C 235.515 43.234,235.343 43.269,235.134 43.275 C 234.768 43.287,234.110 43.378,233.548 43.496 C 233.403 43.527,233.165 43.573,233.020 43.600 C 232.372 43.718,231.587 43.929,231.217 44.084 C 230.996 44.176,230.776 44.254,230.729 44.257 C 230.498 44.272,229.522 44.646,229.462 44.742 C 229.425 44.803,229.345 44.822,229.285 44.785 C 229.224 44.748,229.175 44.774,229.175 44.842 C 229.175 44.910,229.136 44.955,229.087 44.942 C 228.922 44.896,227.175 45.748,227.049 45.936 C 227.009 45.995,226.942 46.036,226.899 46.027 C 226.770 46.001,225.888 46.528,225.888 46.632 C 225.888 46.684,225.818 46.727,225.732 46.727 C 225.647 46.727,225.453 46.859,225.301 47.021 C 225.149 47.182,224.955 47.314,224.869 47.314 C 224.784 47.314,224.714 47.364,224.714 47.424 C 224.714 47.484,224.610 47.566,224.484 47.606 C 224.100 47.728,221.390 50.448,221.491 50.611 C 221.545 50.698,221.532 50.725,221.458 50.680 C 221.391 50.638,221.270 50.683,221.191 50.779 C 221.111 50.875,221.092 50.956,221.148 50.957 C 221.204 50.959,221.158 51.015,221.045 51.081 C 220.932 51.147,220.839 51.277,220.839 51.371 C 220.839 51.464,220.787 51.541,220.722 51.541 C 220.657 51.541,220.605 51.620,220.605 51.717 C 220.605 51.814,220.555 51.893,220.495 51.893 C 220.384 51.893,220.187 52.349,220.229 52.510 C 220.242 52.558,220.203 52.598,220.142 52.598 C 219.986 52.598,218.961 54.771,218.961 55.103 C 218.961 55.203,218.913 55.313,218.855 55.349 C 218.757 55.410,218.583 56.039,218.431 56.883 C 218.396 57.077,218.332 57.420,218.289 57.646 C 217.940 59.470,218.339 62.954,219.089 64.632 C 219.233 64.955,219.343 65.258,219.332 65.307 C 219.322 65.355,219.366 65.395,219.431 65.395 C 219.495 65.395,219.536 65.434,219.521 65.483 C 219.463 65.670,220.044 66.684,220.166 66.609 C 220.246 66.559,220.265 66.602,220.217 66.726 C 220.176 66.833,220.187 66.921,220.242 66.921 C 220.297 66.921,220.405 67.074,220.482 67.261 C 220.560 67.448,220.717 67.702,220.833 67.826 C 220.948 67.950,221.105 68.168,221.182 68.311 C 221.258 68.454,221.371 68.540,221.432 68.502 C 221.494 68.464,221.544 68.520,221.544 68.625 C 221.544 68.822,223.815 71.153,224.655 71.819 C 225.428 72.432,226.562 73.261,226.626 73.261 C 226.659 73.261,226.961 73.446,227.297 73.672 C 227.633 73.898,228.017 74.083,228.150 74.083 C 228.283 74.083,228.360 74.115,228.321 74.154 C 228.253 74.222,230.447 75.371,230.738 75.421 C 230.815 75.434,230.996 75.510,231.142 75.589 C 231.287 75.669,231.406 75.700,231.406 75.657 C 231.406 75.615,231.485 75.646,231.582 75.726 C 231.679 75.807,231.759 75.827,231.760 75.770 C 231.761 75.714,231.805 75.736,231.859 75.821 C 231.912 75.905,232.093 75.988,232.261 76.006 C 232.429 76.024,232.635 76.094,232.720 76.163 C 232.880 76.292,235.613 77.240,236.070 77.325 C 236.213 77.352,236.464 77.424,236.627 77.486 C 236.791 77.548,236.925 77.561,236.926 77.514 C 236.927 77.467,236.966 77.485,237.014 77.553 C 237.061 77.621,237.443 77.796,237.863 77.942 C 238.283 78.088,238.706 78.239,238.802 78.278 C 238.899 78.316,239.005 78.354,239.037 78.362 C 239.242 78.410,240.452 79.081,240.769 79.323 C 240.979 79.482,241.151 79.580,241.151 79.539 C 241.151 79.424,241.670 80.078,242.009 80.619 C 242.212 80.943,242.327 81.310,242.350 81.704 C 242.368 82.032,242.423 82.300,242.471 82.301 C 242.520 82.301,242.559 82.357,242.559 82.425 C 242.559 82.494,242.507 82.517,242.442 82.477 C 242.347 82.418,242.263 82.813,242.349 82.918 C 242.362 82.934,242.286 83.053,242.181 83.182 C 242.075 83.311,241.847 83.589,241.675 83.800 C 241.502 84.011,241.115 84.326,240.815 84.499 C 240.515 84.672,240.238 84.861,240.198 84.918 C 240.159 84.975,240.093 85.017,240.051 85.011 C 240.010 85.006,239.950 85.008,239.918 85.016 C 239.791 85.048,239.667 85.077,239.272 85.169 C 239.046 85.221,238.809 85.295,238.746 85.333 C 238.565 85.440,238.272 85.457,236.454 85.463 C 234.639 85.470,233.994 85.416,233.343 85.204 C 233.214 85.162,232.976 85.105,232.815 85.076 C 232.418 85.005,231.421 84.660,231.026 84.457 C 230.849 84.367,230.688 84.307,230.669 84.324 C 230.616 84.371,229.499 83.791,229.316 83.621 C 229.228 83.540,229.107 83.503,229.048 83.540 C 228.988 83.577,228.907 83.525,228.868 83.424 C 228.830 83.323,228.724 83.240,228.634 83.240 C 228.544 83.240,228.471 83.191,228.471 83.131 C 228.471 83.071,228.378 82.991,228.265 82.953 C 228.020 82.871,226.475 81.417,226.475 81.268 C 226.475 81.210,226.371 81.069,226.243 80.954 C 226.116 80.838,225.978 80.639,225.937 80.511 C 225.896 80.382,225.710 80.117,225.523 79.922 C 225.336 79.726,225.183 79.495,225.183 79.407 C 225.183 79.320,225.131 79.249,225.066 79.249 C 225.001 79.249,224.949 79.169,224.949 79.072 C 224.949 78.976,224.909 78.896,224.860 78.896 C 224.811 78.896,224.704 78.744,224.621 78.558 C 224.539 78.371,224.368 78.094,224.243 77.941 C 223.900 77.525,223.851 77.459,223.607 77.080 C 222.816 75.850,221.064 74.282,220.719 74.496 C 220.656 74.535,220.605 74.514,220.605 74.451 C 220.605 74.293,219.005 74.369,218.804 74.537 C 218.717 74.609,218.612 74.634,218.571 74.593 C 218.530 74.552,218.464 74.606,218.423 74.712 C 218.382 74.818,218.281 74.905,218.197 74.905 C 217.966 74.905,217.293 75.729,217.367 75.921 C 217.403 76.015,217.382 76.060,217.321 76.022 C 216.927 75.779,216.712 80.192,217.063 81.324 C 217.126 81.529,217.148 81.727,217.111 81.764 C 217.074 81.801,217.103 81.832,217.177 81.832 C 217.250 81.832,217.278 81.914,217.239 82.016 C 217.200 82.117,217.237 82.328,217.321 82.485 C 217.405 82.642,217.441 82.804,217.400 82.845 C 217.359 82.886,217.371 83.005,217.427 83.109 C 217.483 83.214,217.560 83.458,217.597 83.651 C 217.748 84.429,217.822 84.713,217.907 84.825 C 217.955 84.890,218.033 85.128,218.080 85.354 C 218.128 85.580,218.206 85.817,218.254 85.882 C 218.302 85.947,218.380 86.158,218.426 86.351 C 218.472 86.544,218.570 86.774,218.642 86.861 C 218.715 86.949,218.788 87.108,218.806 87.214 C 218.937 88.013,220.702 90.481,221.413 90.859 C 221.582 90.950,221.747 91.064,221.780 91.114 C 221.903 91.302,223.841 92.121,224.039 92.069 C 224.087 92.056,224.127 92.099,224.127 92.163 C 224.127 92.228,224.166 92.272,224.215 92.262 C 224.263 92.252,224.409 92.283,224.538 92.332 C 225.092 92.540,225.377 92.630,225.653 92.683 C 225.814 92.714,226.184 92.815,226.475 92.906 C 226.765 92.998,227.043 93.080,227.091 93.088 C 227.140 93.096,227.193 93.106,227.209 93.111 C 227.225 93.116,227.370 93.143,227.532 93.171 C 227.693 93.198,228.168 93.307,228.588 93.413 C 229.424 93.623,229.786 93.696,230.232 93.746 C 230.393 93.764,230.605 93.810,230.701 93.849 C 230.798 93.887,231.115 93.943,231.406 93.972 C 231.697 94.002,232.045 94.052,232.181 94.083 C 233.289 94.335,236.353 94.559,238.685 94.557 C 241.424 94.554,243.784 94.352,245.377 93.984 C 245.539 93.947,245.882 93.869,246.140 93.810 C 246.399 93.752,246.848 93.644,247.138 93.570 C 247.429 93.496,247.768 93.414,247.892 93.389 C 248.303 93.305,249.660 92.838,249.791 92.736 C 249.861 92.680,249.945 92.661,249.976 92.692 C 250.144 92.860,255.004 90.176,255.004 89.916 C 255.004 89.860,255.061 89.815,255.131 89.815 C 255.345 89.815,256.531 88.830,256.531 88.652 C 256.531 88.560,256.566 88.520,256.610 88.564 C 256.677 88.631,257.228 88.097,258.537 86.700 C 258.661 86.568,258.761 86.399,258.761 86.324 C 258.761 86.249,258.848 86.139,258.954 86.079 C 259.162 85.963,259.599 85.257,260.185 84.088 C 260.389 83.683,260.601 83.323,260.656 83.289 C 260.712 83.255,260.757 83.101,260.757 82.947 C 260.757 82.793,260.803 82.639,260.860 82.604 C 260.949 82.549,261.124 81.997,261.162 81.655 C 261.169 81.591,261.212 81.478,261.258 81.404 C 261.345 81.265,261.665 79.791,261.674 79.483 C 261.677 79.387,261.710 79.095,261.748 78.836 C 261.990 77.160,261.612 72.791,261.225 72.791 C 261.177 72.791,261.139 72.669,261.139 72.519 C 261.139 72.369,261.009 71.975,260.850 71.644 C 260.692 71.312,260.610 71.071,260.669 71.107 C 260.729 71.144,260.643 70.970,260.478 70.720 C 260.314 70.471,260.062 70.042,259.918 69.767 C 259.775 69.492,259.562 69.180,259.444 69.074 C 259.327 68.967,259.231 68.832,259.231 68.773 C 259.231 68.625,258.924 68.330,258.770 68.330 C 258.701 68.330,258.657 68.286,258.673 68.232 C 258.689 68.178,258.505 67.914,258.262 67.645 C 258.020 67.375,257.822 67.182,257.822 67.214 C 257.822 67.266,257.550 67.019,256.585 66.094 C 256.454 65.968,256.309 65.864,256.263 65.864 C 256.218 65.864,256.061 65.761,255.915 65.634 C 255.769 65.507,255.609 65.403,255.559 65.402 C 255.510 65.401,255.336 65.267,255.174 65.105 C 255.011 64.943,254.749 64.777,254.589 64.738 C 254.430 64.698,254.300 64.615,254.300 64.553 C 254.300 64.492,254.253 64.471,254.196 64.506 C 254.139 64.541,254.026 64.492,253.947 64.396 C 253.867 64.299,253.735 64.221,253.654 64.221 C 253.573 64.221,253.442 64.142,253.362 64.046 C 253.282 63.950,253.170 63.900,253.113 63.935 C 253.055 63.971,253.009 63.950,253.009 63.889 C 253.009 63.790,252.772 63.685,252.493 63.662 C 252.436 63.658,252.357 63.608,252.317 63.552 C 252.252 63.460,251.685 63.230,250.015 62.617 C 249.692 62.499,249.375 62.399,249.310 62.396 C 249.246 62.393,249.084 62.330,248.951 62.257 C 248.819 62.183,248.554 62.107,248.364 62.086 C 248.174 62.066,247.992 62.017,247.960 61.978 C 247.887 61.890,246.127 61.311,245.726 61.243 C 245.563 61.216,245.227 61.109,244.980 61.005 C 244.733 60.902,244.487 60.844,244.434 60.877 C 244.380 60.910,244.307 60.889,244.271 60.831 C 244.212 60.736,243.610 60.568,243.145 60.518 C 243.047 60.507,242.799 60.411,242.593 60.305 C 242.387 60.199,242.136 60.112,242.035 60.112 C 241.934 60.112,241.760 60.065,241.648 60.009 C 241.536 59.953,241.023 59.702,240.507 59.451 C 239.429 58.927,239.393 58.904,238.790 58.338 C 238.542 58.105,238.311 57.942,238.277 57.976 C 238.243 58.010,238.215 57.948,238.215 57.838 C 238.215 57.728,238.136 57.608,238.040 57.571 C 237.944 57.534,237.894 57.457,237.930 57.399 C 237.965 57.341,237.939 57.294,237.870 57.294 C 237.802 57.294,237.746 57.218,237.746 57.125 C 237.746 57.033,237.685 56.808,237.610 56.626 C 237.058 55.283,238.019 53.202,239.438 52.670 C 239.702 52.571,240.076 52.429,240.270 52.355 C 240.672 52.201,243.264 52.137,243.264 52.282 C 243.264 52.334,243.316 52.345,243.379 52.306 C 243.442 52.266,243.591 52.287,243.711 52.351 C 243.830 52.414,244.056 52.488,244.212 52.514 C 244.369 52.540,244.655 52.624,244.849 52.702 C 245.043 52.779,245.439 52.929,245.729 53.034 C 246.020 53.140,246.416 53.336,246.610 53.469 C 246.804 53.603,246.962 53.687,246.962 53.657 C 246.962 53.627,247.206 53.771,247.505 53.976 C 247.803 54.181,248.077 54.320,248.113 54.284 C 248.149 54.248,248.248 54.329,248.332 54.465 C 248.417 54.600,248.547 54.711,248.621 54.711 C 248.696 54.711,248.787 54.791,248.825 54.888 C 248.862 54.986,248.934 55.052,248.984 55.035 C 249.034 55.018,249.186 55.110,249.321 55.239 C 250.451 56.318,250.880 56.707,250.944 56.707 C 250.985 56.707,251.281 56.982,251.602 57.319 C 251.924 57.656,252.187 57.886,252.187 57.829 C 252.187 57.772,252.352 57.919,252.554 58.155 C 252.756 58.392,252.961 58.585,253.009 58.585 C 253.057 58.585,253.327 58.802,253.607 59.066 C 254.094 59.524,255.004 60.083,255.004 59.923 C 255.004 59.882,255.091 59.920,255.197 60.008 C 255.658 60.390,258.644 60.149,258.644 59.729 C 258.644 59.674,258.694 59.659,258.754 59.696 C 258.815 59.734,258.919 59.671,258.985 59.556 C 259.052 59.442,259.108 59.398,259.110 59.458 C 259.115 59.624,259.818 58.916,259.818 58.745 C 259.818 58.664,259.884 58.555,259.965 58.503 C 260.046 58.451,260.191 58.251,260.288 58.057 C 260.384 57.863,260.516 57.667,260.581 57.621 C 260.885 57.405,261.061 54.676,260.829 53.772 C 260.787 53.610,260.746 53.306,260.736 53.097 C 260.727 52.887,260.679 52.715,260.630 52.715 C 260.581 52.715,260.504 52.543,260.459 52.333 C 260.339 51.781,259.793 50.484,259.680 50.484 C 259.627 50.484,259.583 50.379,259.583 50.249 C 259.583 50.120,259.537 50.015,259.480 50.015 C 259.424 50.015,259.345 49.853,259.306 49.655 C 259.259 49.421,259.186 49.324,259.097 49.379 C 259.013 49.431,258.991 49.413,259.041 49.333 C 259.086 49.260,259.019 49.098,258.893 48.972 C 258.767 48.846,258.693 48.713,258.729 48.677 C 258.765 48.641,258.708 48.578,258.603 48.538 C 258.497 48.497,258.440 48.416,258.476 48.358 C 258.512 48.300,258.459 48.220,258.359 48.182 C 258.258 48.143,258.205 48.064,258.241 48.006 C 258.276 47.949,258.253 47.901,258.189 47.901 C 258.125 47.901,258.038 47.793,257.997 47.661 C 257.955 47.529,257.700 47.191,257.431 46.910 C 257.162 46.629,256.810 46.248,256.648 46.062 C 255.406 44.637,253.265 43.820,252.098 44.326 C 251.986 44.375,251.840 44.427,251.776 44.443 C 251.711 44.458,251.289 44.591,250.837 44.738 C 250.005 45.009,249.458 45.061,248.870 44.924 C 248.692 44.883,248.403 44.819,248.228 44.783 C 248.052 44.747,247.854 44.673,247.788 44.620 C 247.606 44.473,243.842 43.549,243.723 43.622 C 243.667 43.657,243.527 43.636,243.413 43.576 C 243.212 43.470,242.552 43.345,241.772 43.264 C 241.565 43.243,241.340 43.191,241.272 43.149 C 241.138 43.066,236.867 42.949,236.790 43.026 M55.037 43.270 C 55.019 43.287,54.344 43.331,53.537 43.368 C 52.730 43.406,51.937 43.465,51.776 43.501 C 51.614 43.537,51.244 43.597,50.954 43.635 C 50.663 43.673,50.409 43.747,50.389 43.800 C 50.368 43.853,50.275 43.867,50.182 43.831 C 50.088 43.795,49.941 43.824,49.856 43.895 C 49.770 43.967,49.669 43.995,49.632 43.957 C 49.595 43.920,49.309 44.004,48.997 44.144 C 48.685 44.284,48.331 44.419,48.210 44.444 C 48.089 44.468,47.857 44.583,47.695 44.698 C 47.533 44.813,47.305 44.964,47.188 45.033 C 46.580 45.390,45.816 46.463,45.696 47.129 C 45.519 48.113,45.729 49.545,46.052 49.545 C 46.100 49.545,46.140 49.615,46.140 49.702 C 46.140 49.873,46.990 50.602,47.190 50.602 C 47.258 50.602,47.314 50.645,47.314 50.697 C 47.314 50.750,47.775 51.027,48.339 51.314 C 48.903 51.600,49.435 51.900,49.522 51.981 C 49.608 52.062,49.758 52.128,49.854 52.128 C 49.950 52.128,49.998 52.177,49.961 52.238 C 49.924 52.298,50.050 52.440,50.241 52.553 C 50.432 52.666,50.565 52.798,50.535 52.846 C 50.505 52.894,50.530 52.964,50.590 53.001 C 50.813 53.139,51.487 54.805,51.614 55.533 C 51.642 55.694,51.698 55.905,51.738 56.002 C 51.778 56.099,51.822 56.284,51.835 56.413 C 51.848 56.542,51.897 56.886,51.944 57.176 C 52.108 58.189,52.229 59.228,52.305 60.288 C 52.338 60.740,52.394 61.426,52.429 61.814 C 52.576 63.400,52.651 71.437,52.543 74.086 C 52.513 74.830,52.459 76.236,52.422 77.211 C 52.385 78.186,52.336 79.083,52.313 79.204 C 52.290 79.325,52.236 79.847,52.193 80.364 C 51.992 82.783,51.712 83.987,51.230 84.499 C 51.155 84.578,50.981 84.827,50.842 85.051 C 50.704 85.275,50.487 85.492,50.361 85.532 C 50.235 85.572,50.132 85.654,50.132 85.714 C 50.132 85.774,50.057 85.823,49.965 85.823 C 49.873 85.823,49.649 85.944,49.466 86.090 C 49.283 86.237,48.997 86.427,48.830 86.511 C 47.918 86.972,47.259 87.884,47.206 88.758 C 47.189 89.049,47.152 89.323,47.125 89.367 C 47.097 89.411,47.131 89.676,47.199 89.954 C 47.268 90.233,47.338 90.529,47.356 90.613 C 47.374 90.696,47.464 90.858,47.557 90.973 C 47.649 91.088,47.741 91.252,47.760 91.338 C 47.879 91.862,49.944 93.283,50.739 93.386 C 50.782 93.391,50.857 93.436,50.905 93.484 C 50.953 93.532,51.140 93.572,51.319 93.572 C 51.498 93.572,51.679 93.628,51.722 93.697 C 51.765 93.766,51.872 93.795,51.960 93.761 C 52.048 93.727,52.155 93.755,52.197 93.823 C 52.239 93.891,52.399 93.922,52.553 93.893 C 52.707 93.863,52.832 93.879,52.832 93.927 C 52.832 94.340,60.277 94.440,62.011 94.050 C 62.258 93.995,62.460 93.977,62.460 94.010 C 62.460 94.043,62.531 94.012,62.617 93.940 C 62.704 93.868,62.804 93.838,62.839 93.873 C 62.899 93.934,64.190 93.648,64.573 93.489 C 64.670 93.449,64.775 93.410,64.808 93.403 C 65.518 93.242,67.581 91.907,67.450 91.694 C 67.418 91.643,67.463 91.574,67.549 91.541 C 67.694 91.485,68.075 90.811,68.193 90.402 C 68.569 89.091,67.784 86.763,66.966 86.763 C 66.877 86.763,66.804 86.710,66.804 86.645 C 66.804 86.581,66.729 86.528,66.637 86.528 C 66.546 86.528,66.453 86.488,66.432 86.440 C 66.410 86.391,66.181 86.246,65.923 86.117 C 64.966 85.638,63.424 83.842,63.718 83.548 C 63.758 83.508,63.725 83.475,63.646 83.475 C 63.567 83.475,63.531 83.429,63.566 83.372 C 63.601 83.316,63.557 83.012,63.468 82.697 C 63.379 82.383,63.305 82.046,63.304 81.949 C 63.303 81.852,63.272 81.482,63.235 81.127 C 63.179 80.578,63.007 76.605,63.024 76.255 C 63.213 72.457,63.764 70.776,64.928 70.442 C 65.451 70.292,66.828 70.754,67.521 71.312 C 67.690 71.448,67.944 71.638,68.087 71.735 C 68.230 71.832,68.693 72.228,69.117 72.615 C 69.540 73.003,69.920 73.322,69.960 73.325 C 70.000 73.328,70.312 73.603,70.654 73.936 C 70.996 74.269,71.419 74.667,71.593 74.821 C 72.989 76.052,74.471 77.378,75.022 77.887 C 75.183 78.036,75.870 78.655,76.548 79.261 C 77.226 79.868,77.799 80.404,77.820 80.452 C 77.842 80.500,77.910 80.540,77.972 80.540 C 78.033 80.540,78.282 80.738,78.525 80.980 C 79.072 81.527,81.013 83.289,81.112 83.329 C 81.153 83.345,81.687 83.830,82.299 84.406 C 82.911 84.982,83.439 85.444,83.473 85.433 C 83.507 85.422,83.802 85.677,84.129 85.999 C 84.930 86.791,86.629 88.324,86.838 88.444 C 86.931 88.497,87.265 88.788,87.580 89.090 C 87.895 89.392,88.272 89.745,88.417 89.874 C 88.563 90.003,89.036 90.426,89.468 90.813 C 89.900 91.200,90.506 91.729,90.816 91.987 C 91.125 92.245,91.511 92.602,91.673 92.780 C 91.835 92.957,92.033 93.102,92.114 93.102 C 92.195 93.102,92.279 93.145,92.300 93.197 C 92.625 93.984,94.939 94.581,96.152 94.190 C 97.178 93.860,98.488 92.329,98.501 91.447 C 98.502 91.344,98.578 91.107,98.669 90.919 C 98.816 90.617,98.968 89.873,99.027 89.163 C 99.038 89.031,99.074 88.873,99.106 88.811 C 99.187 88.659,99.240 88.125,99.254 87.320 C 99.261 86.949,99.300 86.645,99.341 86.645 C 99.436 86.645,99.498 84.529,99.488 81.597 C 99.444 68.780,99.490 59.726,99.607 58.292 C 99.654 57.711,99.712 56.997,99.735 56.707 C 99.758 56.416,99.816 55.967,99.863 55.709 C 99.911 55.451,99.959 55.107,99.972 54.946 C 99.984 54.784,100.033 54.564,100.080 54.456 C 100.126 54.348,100.179 54.189,100.197 54.104 C 100.215 54.018,100.284 53.816,100.350 53.654 C 100.417 53.493,100.448 53.321,100.420 53.273 C 100.391 53.224,100.424 53.185,100.492 53.185 C 100.560 53.185,100.616 53.127,100.616 53.057 C 100.616 52.587,102.026 51.424,102.595 51.424 C 102.669 51.424,102.730 51.368,102.730 51.299 C 102.730 51.231,102.783 51.208,102.847 51.247 C 102.912 51.287,102.964 51.261,102.964 51.189 C 102.964 51.117,103.017 51.090,103.082 51.130 C 103.146 51.170,103.199 51.147,103.199 51.078 C 103.199 51.010,103.270 50.954,103.357 50.954 C 103.725 50.954,104.684 49.969,105.031 49.236 C 105.305 48.657,105.498 47.314,105.307 47.314 C 105.257 47.314,105.245 47.210,105.278 47.082 C 105.311 46.954,105.227 46.660,105.091 46.429 C 104.954 46.198,104.905 46.047,104.980 46.094 C 105.206 46.233,104.297 45.091,103.991 44.850 C 103.836 44.728,103.568 44.593,103.396 44.550 C 103.224 44.507,103.107 44.433,103.136 44.387 C 103.190 44.300,102.115 43.898,101.262 43.685 C 99.278 43.191,90.663 43.104,88.700 43.558 C 88.377 43.633,88.012 43.715,87.888 43.740 C 87.340 43.852,86.528 44.173,86.528 44.278 C 86.528 44.341,86.479 44.363,86.420 44.326 C 86.360 44.290,86.230 44.341,86.130 44.441 C 86.031 44.541,85.908 44.629,85.857 44.636 C 85.636 44.670,85.093 45.165,84.858 45.548 C 83.740 47.371,84.295 49.721,86.058 50.627 C 86.220 50.710,86.378 50.804,86.410 50.836 C 86.443 50.869,86.670 50.988,86.916 51.102 C 87.481 51.363,88.813 52.561,88.819 52.812 C 88.820 52.856,88.853 52.944,88.893 53.009 C 89.016 53.210,89.319 54.392,89.389 54.946 C 89.571 56.373,89.603 57.006,89.606 59.147 C 89.610 62.683,89.099 63.885,87.643 63.764 C 87.163 63.724,87.115 63.710,87.115 63.607 C 87.115 63.550,87.066 63.532,87.007 63.569 C 86.947 63.606,86.826 63.563,86.737 63.474 C 86.648 63.385,86.419 63.229,86.228 63.129 C 85.770 62.886,83.804 61.305,82.841 60.405 C 82.097 59.709,81.602 59.290,81.524 59.290 C 81.481 59.290,81.282 59.118,81.082 58.908 C 80.882 58.698,80.480 58.323,80.189 58.075 C 79.012 57.072,78.147 56.313,77.292 55.533 C 77.044 55.307,76.531 54.858,76.152 54.535 C 75.773 54.212,75.345 53.842,75.201 53.713 C 75.057 53.584,74.733 53.302,74.482 53.087 C 73.675 52.399,72.767 51.606,72.541 51.394 C 72.420 51.281,72.298 51.189,72.268 51.189 C 72.239 51.189,71.986 50.964,71.706 50.690 C 71.042 50.039,70.640 49.719,70.531 49.753 C 70.483 49.768,70.443 49.701,70.443 49.604 C 70.443 49.507,70.391 49.428,70.327 49.428 C 70.263 49.428,70.059 49.269,69.874 49.075 C 69.689 48.882,69.508 48.723,69.472 48.723 C 69.435 48.723,69.148 48.472,68.833 48.166 C 67.914 47.271,66.591 46.117,66.534 46.160 C 66.504 46.181,66.302 46.009,66.084 45.776 C 65.624 45.285,64.768 44.614,64.600 44.614 C 64.536 44.614,64.415 44.531,64.331 44.429 C 64.194 44.265,63.267 43.731,63.193 43.775 C 63.177 43.784,63.138 43.786,63.105 43.778 C 63.073 43.769,62.994 43.750,62.929 43.733 C 62.865 43.717,62.785 43.691,62.753 43.675 C 62.721 43.659,62.642 43.632,62.577 43.616 C 62.512 43.600,62.446 43.576,62.430 43.563 C 62.397 43.536,62.247 43.504,61.579 43.379 C 61.150 43.298,55.111 43.198,55.037 43.270 M276.227 43.272 C 276.200 43.299,275.654 43.344,275.013 43.373 C 273.790 43.428,272.718 43.510,272.028 43.603 C 271.802 43.633,271.380 43.688,271.089 43.725 C 270.602 43.787,269.701 43.932,269.563 43.971 C 269.530 43.980,269.345 44.026,269.152 44.073 C 267.967 44.359,267.731 44.422,267.625 44.482 C 267.561 44.519,267.404 44.565,267.277 44.584 C 266.577 44.693,264.866 46.011,264.866 46.441 C 264.866 46.541,264.820 46.595,264.764 46.561 C 264.605 46.462,264.265 47.478,264.227 48.164 C 264.189 48.843,264.570 50.302,264.755 50.187 C 264.816 50.149,264.866 50.207,264.866 50.315 C 264.866 50.526,265.726 51.424,265.928 51.424 C 265.995 51.424,266.164 51.529,266.302 51.658 C 266.441 51.787,266.624 51.893,266.708 51.893 C 266.793 51.893,266.862 51.946,266.862 52.011 C 266.862 52.075,266.929 52.128,267.010 52.128 C 267.092 52.128,267.225 52.236,267.308 52.367 C 267.394 52.505,267.518 52.572,267.600 52.525 C 267.679 52.479,267.705 52.485,267.658 52.536 C 267.611 52.588,267.705 52.795,267.865 52.995 C 268.026 53.196,268.196 53.414,268.244 53.478 C 268.318 53.578,268.484 54.095,268.677 54.828 C 268.702 54.925,268.727 55.100,268.732 55.217 C 268.737 55.334,268.794 55.397,268.858 55.357 C 268.923 55.317,268.976 55.340,268.976 55.408 C 268.976 55.477,268.916 55.533,268.844 55.533 C 268.749 55.533,268.748 55.576,268.838 55.685 C 268.908 55.769,268.963 55.940,268.961 56.066 C 268.951 56.599,269.134 58.350,269.199 58.350 C 269.237 58.350,269.271 58.681,269.272 59.084 C 269.274 59.488,269.316 60.399,269.366 61.109 C 269.562 63.907,269.650 72.463,269.510 75.081 C 269.278 79.445,269.203 80.444,269.044 81.362 C 269.005 81.588,268.951 81.969,268.925 82.209 C 268.899 82.449,268.843 82.700,268.802 82.767 C 268.761 82.834,268.783 82.888,268.851 82.888 C 268.920 82.888,268.976 82.944,268.976 83.013 C 268.976 83.081,268.927 83.107,268.867 83.070 C 268.776 83.013,268.456 84.158,268.507 84.359 C 268.549 84.526,267.740 85.772,267.354 86.136 C 266.611 86.834,266.553 86.880,266.409 86.880 C 266.331 86.880,266.238 86.959,266.200 87.056 C 266.163 87.153,266.068 87.232,265.990 87.232 C 265.286 87.232,264.065 90.345,264.631 90.695 C 264.684 90.728,264.699 90.860,264.666 90.989 C 264.631 91.120,264.662 91.224,264.735 91.224 C 264.807 91.224,264.860 91.264,264.853 91.312 C 264.747 91.979,266.654 93.487,267.756 93.608 C 267.948 93.629,268.156 93.677,268.218 93.714 C 268.279 93.752,268.475 93.766,268.653 93.746 C 268.830 93.726,268.976 93.750,268.976 93.798 C 268.976 93.847,269.174 93.899,269.416 93.915 C 270.016 93.953,270.608 94.020,271.030 94.096 C 271.621 94.202,275.133 94.325,277.370 94.319 C 281.928 94.306,285.430 94.016,287.232 93.502 C 287.297 93.483,287.473 93.441,287.623 93.408 C 288.561 93.200,289.536 92.712,290.172 92.134 C 290.697 91.656,291.154 90.993,290.963 90.986 C 290.913 90.984,290.959 90.931,291.066 90.869 C 291.274 90.747,291.366 88.876,291.163 88.876 C 291.110 88.876,291.006 88.694,290.932 88.471 C 290.770 87.978,290.036 87.190,289.169 86.577 C 288.335 85.987,288.250 85.921,288.025 85.683 C 287.921 85.573,287.779 85.515,287.710 85.555 C 287.641 85.594,287.619 85.587,287.662 85.540 C 287.704 85.492,287.585 85.162,287.398 84.805 C 287.210 84.448,287.087 84.107,287.125 84.046 C 287.163 83.984,287.133 83.861,287.059 83.772 C 286.837 83.505,286.630 79.836,286.836 79.836 C 286.876 79.836,286.909 79.693,286.909 79.518 C 286.909 79.343,286.969 79.180,287.041 79.156 C 287.114 79.131,287.173 79.039,287.173 78.949 C 287.173 77.979,288.902 77.086,289.635 77.678 C 290.987 78.772,291.430 79.160,291.874 79.646 C 292.162 79.962,292.636 80.472,292.926 80.780 C 293.758 81.661,294.774 82.799,295.044 83.152 C 295.180 83.330,295.367 83.475,295.459 83.475 C 295.551 83.475,295.627 83.548,295.627 83.637 C 295.627 83.727,295.864 84.057,296.154 84.371 C 296.444 84.686,296.681 84.986,296.682 85.038 C 296.683 85.090,296.736 85.100,296.801 85.060 C 296.865 85.020,296.919 85.057,296.921 85.141 C 296.922 85.226,297.107 85.499,297.332 85.748 C 297.556 85.997,297.740 86.248,297.740 86.306 C 297.740 86.363,297.816 86.410,297.909 86.410 C 298.002 86.410,298.116 86.471,298.162 86.546 C 298.219 86.638,298.193 86.649,298.081 86.581 C 297.883 86.460,298.847 87.667,299.197 87.979 C 299.332 88.099,299.442 88.247,299.442 88.306 C 299.442 88.366,299.495 88.452,299.560 88.499 C 299.625 88.545,299.751 88.726,299.842 88.901 C 299.932 89.077,300.059 89.187,300.124 89.147 C 300.189 89.107,300.209 89.127,300.169 89.192 C 300.129 89.257,300.193 89.414,300.311 89.541 C 300.429 89.667,300.589 89.888,300.665 90.031 C 300.742 90.174,300.842 90.268,300.887 90.240 C 300.933 90.212,301.067 90.387,301.185 90.629 C 301.414 91.101,302.369 92.191,302.467 92.094 C 302.499 92.061,302.558 92.156,302.598 92.304 C 302.638 92.453,302.897 92.743,303.172 92.948 C 304.060 93.612,304.333 93.632,312.357 93.625 C 319.034 93.618,321.632 93.540,321.632 93.343 C 321.632 93.329,321.784 93.293,321.971 93.263 C 322.689 93.146,324.039 92.285,324.039 91.944 C 324.039 91.871,324.083 91.811,324.137 91.811 C 324.270 91.811,324.527 91.232,324.450 91.108 C 324.417 91.054,324.442 90.991,324.507 90.970 C 324.571 90.948,324.636 90.785,324.650 90.608 C 324.665 90.430,324.718 90.285,324.769 90.285 C 324.819 90.285,324.861 89.994,324.861 89.639 C 324.861 89.284,324.808 88.993,324.743 88.993 C 324.679 88.993,324.626 88.845,324.626 88.665 C 324.626 88.484,324.562 88.272,324.485 88.195 C 324.407 88.117,324.382 88.054,324.429 88.054 C 324.544 88.054,324.174 87.339,323.936 87.100 C 323.831 86.995,323.656 86.810,323.548 86.689 C 323.256 86.364,323.008 86.176,322.870 86.176 C 322.802 86.176,322.747 86.123,322.747 86.058 C 322.747 85.994,322.668 85.941,322.571 85.941 C 322.474 85.941,322.395 85.894,322.395 85.836 C 322.395 85.734,321.515 85.311,321.280 85.300 C 321.215 85.297,321.136 85.262,321.104 85.222 C 320.991 85.082,319.840 84.543,319.768 84.596 C 319.728 84.625,319.723 84.612,319.757 84.567 C 319.792 84.522,319.543 84.311,319.205 84.098 C 318.867 83.884,318.627 83.710,318.671 83.710 C 318.715 83.710,318.581 83.533,318.372 83.316 C 318.163 83.099,317.702 82.590,317.347 82.186 C 316.991 81.781,316.542 81.285,316.349 81.083 C 316.155 80.881,315.823 80.505,315.610 80.247 C 315.157 79.696,314.323 78.729,314.030 78.413 C 313.917 78.291,313.824 78.159,313.824 78.118 C 313.824 78.011,313.339 77.605,313.213 77.605 C 313.154 77.605,313.136 77.557,313.173 77.498 C 313.209 77.438,313.199 77.372,313.149 77.351 C 313.100 77.329,312.882 77.085,312.666 76.809 C 312.449 76.532,312.080 76.102,311.845 75.853 C 311.313 75.288,310.772 74.659,310.772 74.604 C 310.772 74.581,310.574 74.354,310.332 74.099 C 310.090 73.845,309.680 73.387,309.422 73.083 C 309.163 72.779,308.840 72.408,308.703 72.259 C 308.565 72.110,308.340 71.829,308.201 71.635 C 308.063 71.440,307.663 70.974,307.311 70.598 C 306.600 69.838,306.223 69.405,305.749 68.808 C 305.574 68.586,305.186 68.151,304.888 67.839 C 304.590 67.528,304.367 67.273,304.394 67.273 C 304.454 67.273,304.273 67.057,303.610 66.337 C 303.320 66.021,302.976 65.618,302.847 65.442 C 302.718 65.266,302.559 65.064,302.493 64.994 C 302.053 64.522,301.363 63.552,301.306 63.322 C 301.268 63.171,301.190 63.047,301.132 63.047 C 301.074 63.047,301.027 62.915,301.027 62.753 C 301.027 62.592,300.979 62.460,300.919 62.460 C 300.554 62.460,300.653 60.957,301.075 60.097 C 301.634 58.956,301.696 58.866,302.346 58.255 C 302.651 57.968,302.867 57.679,302.826 57.613 C 302.786 57.546,302.806 57.526,302.872 57.566 C 303.013 57.654,303.412 57.252,303.297 57.138 C 303.254 57.094,303.286 57.059,303.368 57.059 C 303.450 57.059,303.887 56.689,304.339 56.237 C 304.791 55.785,305.211 55.415,305.273 55.415 C 305.335 55.415,305.352 55.362,305.313 55.298 C 305.273 55.233,305.284 55.181,305.337 55.181 C 305.502 55.181,306.723 54.001,306.689 53.874 C 306.671 53.808,306.707 53.785,306.768 53.823 C 306.829 53.860,306.975 53.770,307.094 53.621 C 307.376 53.266,308.785 52.257,309.337 52.014 C 309.850 51.789,310.822 51.687,313.296 51.600 C 315.197 51.534,316.407 51.266,316.407 50.912 C 316.407 50.849,316.438 50.828,316.476 50.866 C 316.542 50.931,316.994 50.547,316.994 50.426 C 316.994 50.393,317.087 50.265,317.200 50.140 C 317.549 49.756,317.639 49.612,317.681 49.369 C 317.704 49.240,317.772 49.103,317.834 49.065 C 317.895 49.027,317.920 48.856,317.889 48.685 C 317.858 48.515,317.882 48.344,317.942 48.307 C 318.083 48.220,317.961 46.762,317.781 46.375 C 317.354 45.457,315.511 43.959,315.112 44.206 C 315.050 44.244,314.999 44.224,314.999 44.161 C 314.999 44.031,314.559 43.915,313.355 43.729 C 313.193 43.704,312.718 43.628,312.298 43.560 C 311.462 43.425,308.255 43.270,306.311 43.271 C 305.276 43.272,304.092 43.318,301.057 43.476 C 300.847 43.487,300.675 43.531,300.675 43.574 C 300.675 43.618,300.583 43.629,300.470 43.601 C 300.285 43.554,299.217 43.688,298.444 43.853 C 298.283 43.888,298.072 43.922,297.975 43.929 C 297.878 43.936,297.735 43.992,297.657 44.053 C 297.579 44.114,297.470 44.136,297.414 44.102 C 297.358 44.067,297.184 44.106,297.027 44.187 C 296.870 44.268,296.702 44.344,296.653 44.355 C 296.150 44.469,295.979 44.538,295.979 44.627 C 295.979 44.684,295.939 44.720,295.891 44.706 C 295.766 44.669,294.805 45.329,294.805 45.451 C 294.805 45.507,294.732 45.553,294.642 45.553 C 294.447 45.553,294.100 46.052,294.100 46.332 C 294.100 46.442,294.065 46.496,294.021 46.453 C 293.753 46.184,293.452 48.264,293.659 48.958 C 293.688 49.055,293.752 49.279,293.801 49.456 C 293.850 49.633,293.937 49.749,293.994 49.714 C 294.051 49.679,294.072 49.719,294.040 49.803 C 294.008 49.887,294.098 50.141,294.238 50.367 C 294.379 50.593,294.506 50.857,294.521 50.954 C 294.535 51.051,294.599 51.295,294.663 51.496 C 294.727 51.697,294.736 51.932,294.682 52.019 C 294.629 52.105,294.609 52.214,294.639 52.262 C 294.668 52.309,294.585 52.538,294.455 52.770 C 294.324 53.002,294.218 53.269,294.218 53.364 C 294.218 53.459,294.166 53.537,294.103 53.537 C 294.040 53.537,293.900 53.709,293.792 53.918 C 293.620 54.253,293.042 55.083,292.693 55.498 C 292.628 55.576,292.574 55.666,292.574 55.699 C 292.574 55.731,292.438 55.905,292.272 56.085 C 291.726 56.680,291.665 56.763,291.580 57.038 C 291.534 57.189,291.469 57.284,291.435 57.251 C 291.402 57.217,290.983 57.649,290.504 58.210 C 288.827 60.175,288.322 60.614,287.668 60.678 C 287.085 60.734,286.469 60.599,286.469 60.414 C 286.469 60.328,286.402 60.202,286.319 60.133 C 286.237 60.065,286.158 59.871,286.144 59.702 C 286.130 59.533,286.075 59.305,286.021 59.195 C 285.576 58.281,286.499 52.245,287.085 52.245 C 287.134 52.245,287.173 52.174,287.173 52.087 C 287.173 51.892,287.699 51.331,288.239 50.950 C 288.460 50.794,288.738 50.546,288.856 50.399 C 288.973 50.251,289.137 50.064,289.219 49.982 C 289.985 49.216,290.026 47.093,289.299 45.905 C 288.688 44.909,287.467 44.204,285.765 43.863 C 285.603 43.831,285.339 43.770,285.178 43.729 C 285.016 43.687,284.646 43.636,284.356 43.614 C 284.065 43.593,283.827 43.565,283.827 43.552 C 283.827 43.390,276.383 43.116,276.227 43.272 M339.611 43.287 C 339.596 43.302,339.084 43.342,338.474 43.377 C 337.864 43.411,337.100 43.470,336.777 43.507 C 336.454 43.544,336.066 43.571,335.914 43.566 C 335.763 43.562,335.580 43.594,335.508 43.638 C 335.437 43.683,335.138 43.734,334.845 43.753 C 334.552 43.772,334.048 43.844,333.725 43.913 C 332.960 44.078,332.896 44.089,332.169 44.195 C 331.830 44.244,331.553 44.319,331.553 44.361 C 331.553 44.403,331.407 44.444,331.230 44.452 C 331.052 44.460,330.590 44.558,330.203 44.671 C 329.815 44.783,329.445 44.884,329.381 44.895 C 329.316 44.905,329.197 44.955,329.117 45.006 C 329.036 45.056,328.970 45.062,328.970 45.018 C 328.970 44.973,328.891 45.003,328.794 45.084 C 328.697 45.164,328.618 45.190,328.618 45.142 C 328.618 45.094,328.544 45.116,328.453 45.191 C 328.363 45.266,328.174 45.350,328.033 45.377 C 327.731 45.435,326.740 46.042,326.739 46.170 C 326.739 46.218,326.679 46.258,326.605 46.258 C 326.445 46.258,326.161 46.610,326.156 46.815 C 326.154 46.896,326.046 47.068,325.917 47.197 C 325.687 47.427,325.626 47.722,325.661 48.430 C 325.697 49.142,325.890 49.810,326.035 49.721 C 326.085 49.690,326.118 49.757,326.109 49.869 C 326.101 49.981,326.159 50.060,326.240 50.044 C 326.321 50.028,326.387 50.090,326.387 50.183 C 326.387 50.336,327.313 51.189,327.479 51.189 C 327.517 51.189,327.691 51.321,327.866 51.482 C 328.040 51.644,328.247 51.776,328.327 51.776 C 328.406 51.776,328.537 51.854,328.616 51.951 C 328.696 52.047,328.817 52.091,328.884 52.050 C 328.953 52.007,328.971 52.031,328.925 52.105 C 328.879 52.180,328.990 52.311,329.189 52.414 C 329.379 52.512,329.649 52.778,329.790 53.006 C 329.931 53.235,330.103 53.386,330.172 53.343 C 330.244 53.299,330.263 53.321,330.218 53.394 C 330.175 53.464,330.269 53.803,330.427 54.146 C 330.824 55.004,330.887 55.200,330.859 55.492 C 330.845 55.631,330.891 55.780,330.961 55.823 C 331.030 55.866,331.058 55.948,331.022 56.006 C 330.986 56.064,331.010 56.443,331.075 56.849 C 331.140 57.255,331.223 57.825,331.260 58.116 C 331.550 60.381,331.550 74.347,331.260 78.955 C 331.121 81.159,330.989 82.719,330.907 83.123 C 330.874 83.284,330.825 83.640,330.798 83.913 C 330.770 84.186,330.669 84.522,330.572 84.660 C 330.475 84.798,330.425 84.986,330.461 85.078 C 330.500 85.180,330.461 85.232,330.364 85.212 C 330.272 85.192,330.209 85.265,330.219 85.382 C 330.227 85.494,330.195 85.562,330.147 85.532 C 330.099 85.502,329.889 85.691,329.680 85.952 C 329.470 86.212,329.119 86.511,328.900 86.616 C 328.680 86.720,328.500 86.849,328.500 86.902 C 328.500 86.954,328.445 86.997,328.378 86.997 C 328.179 86.997,327.565 87.496,327.631 87.603 C 327.665 87.657,327.637 87.702,327.569 87.702 C 327.385 87.702,326.974 88.085,326.974 88.256 C 326.974 88.339,326.925 88.406,326.866 88.406 C 326.652 88.406,326.374 89.403,326.423 89.995 C 326.501 90.943,327.258 92.291,327.596 92.083 C 327.666 92.040,327.678 92.068,327.626 92.153 C 327.570 92.244,327.627 92.320,327.784 92.361 C 327.920 92.396,328.031 92.472,328.031 92.529 C 328.031 92.586,328.106 92.633,328.198 92.633 C 328.290 92.633,328.441 92.707,328.532 92.799 C 328.722 92.989,330.850 93.727,330.942 93.635 C 330.975 93.602,331.064 93.625,331.140 93.688 C 331.272 93.798,331.975 93.907,332.873 93.958 C 333.116 93.972,333.314 94.019,333.314 94.064 C 333.314 94.108,333.406 94.143,333.519 94.141 C 333.632 94.139,334.563 94.189,335.587 94.253 C 337.425 94.367,340.811 94.347,342.413 94.213 C 342.865 94.175,343.525 94.125,343.880 94.102 C 345.408 94.002,346.210 93.903,347.696 93.628 C 347.825 93.605,348.395 93.501,348.963 93.398 C 349.531 93.294,350.139 93.151,350.313 93.079 C 350.488 93.006,350.670 92.955,350.718 92.966 C 350.865 92.997,351.800 92.598,351.891 92.465 C 351.939 92.396,351.978 92.380,351.979 92.430 C 351.987 92.829,354.095 91.051,354.095 90.645 C 354.095 90.587,354.156 90.519,354.232 90.493 C 354.465 90.416,354.428 88.314,354.185 87.806 C 353.931 87.277,352.570 86.069,352.314 86.146 C 352.260 86.162,352.216 86.120,352.216 86.051 C 352.216 85.983,352.167 85.957,352.108 85.994 C 352.049 86.030,351.917 85.977,351.815 85.875 C 351.713 85.773,351.629 85.723,351.629 85.764 C 351.629 85.866,350.607 85.129,350.227 84.753 C 350.056 84.583,349.936 84.385,349.961 84.312 C 349.985 84.239,349.948 84.180,349.878 84.180 C 349.808 84.180,349.751 84.100,349.751 84.004 C 349.751 83.907,349.698 83.827,349.633 83.827 C 349.569 83.827,349.522 83.788,349.530 83.739 C 349.537 83.691,349.531 83.598,349.516 83.534 C 349.469 83.331,349.449 83.201,349.355 82.477 C 349.305 82.090,349.235 81.694,349.200 81.597 C 349.133 81.412,349.119 81.229,349.001 78.955 C 348.831 75.671,348.808 74.125,348.824 67.156 C 348.845 58.372,348.853 57.646,348.929 57.646 C 348.961 57.646,348.993 57.501,348.999 57.323 C 349.034 56.362,349.173 55.377,349.385 54.593 C 349.755 53.231,349.771 53.185,349.882 53.185 C 349.939 53.185,349.985 53.053,349.985 52.891 C 349.985 52.730,350.041 52.598,350.110 52.598 C 350.178 52.598,350.208 52.555,350.175 52.503 C 350.143 52.451,350.245 52.312,350.401 52.194 C 350.557 52.077,350.656 51.934,350.620 51.875 C 350.584 51.817,350.598 51.784,350.652 51.801 C 350.809 51.852,351.283 51.469,351.188 51.368 C 351.140 51.316,351.180 51.300,351.277 51.332 C 351.374 51.364,351.585 51.303,351.746 51.197 C 351.908 51.091,352.198 50.928,352.392 50.834 C 352.889 50.594,354.014 49.774,354.149 49.554 C 354.417 49.115,354.481 46.954,354.229 46.870 C 354.155 46.845,354.095 46.735,354.095 46.626 C 354.095 46.389,352.767 45.041,352.650 45.159 C 352.605 45.204,352.568 45.184,352.568 45.115 C 352.568 44.994,351.899 44.680,351.717 44.715 C 351.669 44.724,351.629 44.684,351.629 44.627 C 351.629 44.529,350.243 44.113,349.457 43.974 C 349.263 43.940,348.973 43.885,348.811 43.853 C 348.202 43.729,347.220 43.578,347.050 43.581 C 346.953 43.583,346.702 43.551,346.492 43.510 C 346.282 43.470,345.569 43.412,344.907 43.382 C 344.246 43.352,343.678 43.318,343.645 43.306 C 343.559 43.274,339.642 43.256,339.611 43.287 M184.444 53.599 C 184.734 53.641,185.038 53.731,185.119 53.797 C 185.200 53.863,185.266 53.883,185.266 53.841 C 185.266 53.799,185.503 53.897,185.794 54.059 C 186.085 54.221,186.322 54.327,186.322 54.295 C 186.322 54.263,186.664 54.501,187.082 54.826 C 187.500 55.150,187.879 55.415,187.925 55.415 C 188.033 55.415,189.011 56.465,189.157 56.738 C 189.219 56.854,189.314 56.921,189.368 56.887 C 189.451 56.836,189.611 57.059,189.660 57.294 C 189.707 57.513,190.141 58.092,190.221 58.042 C 190.275 58.008,190.312 58.024,190.303 58.078 C 190.263 58.309,190.333 58.472,190.618 58.811 C 190.785 59.010,190.884 59.172,190.838 59.172 C 190.793 59.172,190.809 59.238,190.874 59.319 C 190.940 59.400,191.258 59.977,191.582 60.602 C 191.906 61.227,192.191 61.718,192.215 61.693 C 192.240 61.669,192.271 61.786,192.285 61.954 C 192.299 62.122,192.369 62.331,192.442 62.418 C 192.514 62.506,192.536 62.577,192.491 62.577 C 192.445 62.577,192.518 62.755,192.653 62.972 C 192.787 63.190,192.897 63.481,192.897 63.618 C 192.897 63.756,192.938 63.869,192.989 63.869 C 193.039 63.869,193.092 64.008,193.106 64.179 C 193.120 64.351,193.184 64.554,193.248 64.631 C 193.312 64.708,193.330 64.805,193.287 64.848 C 193.245 64.890,193.270 64.925,193.343 64.925 C 193.417 64.925,193.446 65.004,193.409 65.101 C 193.372 65.198,193.403 65.277,193.478 65.277 C 193.554 65.277,193.587 65.324,193.551 65.381 C 193.516 65.438,193.599 65.821,193.734 66.232 C 193.870 66.643,193.997 67.059,194.017 67.156 C 194.037 67.253,194.061 67.332,194.071 67.332 C 194.081 67.332,194.107 67.411,194.129 67.508 C 194.448 68.908,194.555 69.365,194.611 69.563 C 194.730 69.988,194.856 70.729,194.880 71.148 C 194.892 71.355,194.926 71.395,194.995 71.285 C 195.055 71.191,195.089 71.376,195.083 71.755 C 195.076 72.099,195.113 72.697,195.164 73.085 C 195.325 74.309,195.379 75.162,195.375 76.431 C 195.371 77.780,195.377 77.738,195.004 79.148 C 194.682 80.367,194.419 80.896,193.726 81.727 C 193.531 81.959,193.410 82.192,193.457 82.244 C 193.504 82.296,193.490 82.309,193.425 82.274 C 193.281 82.193,192.997 82.480,193.109 82.592 C 193.154 82.636,193.138 82.657,193.073 82.637 C 192.976 82.608,192.039 83.154,191.840 83.357 C 191.808 83.390,191.702 83.434,191.606 83.456 C 191.509 83.477,191.120 83.574,190.743 83.671 C 189.683 83.943,187.144 83.799,187.144 83.467 C 187.144 83.421,187.023 83.353,186.875 83.316 C 186.220 83.151,183.739 81.146,183.739 80.781 C 183.739 80.732,183.620 80.560,183.475 80.399 C 183.028 79.903,180.590 75.221,180.660 74.993 C 180.675 74.944,180.634 74.905,180.569 74.905 C 180.505 74.905,180.461 74.865,180.471 74.817 C 180.511 74.635,180.305 74.083,180.198 74.083 C 180.136 74.083,180.113 74.039,180.146 73.985 C 180.179 73.932,180.084 73.575,179.934 73.193 C 179.634 72.429,179.521 72.114,179.515 72.027 C 179.512 71.977,179.419 71.717,179.096 70.854 C 178.989 70.569,179.010 70.647,178.636 69.210 C 178.467 68.565,178.297 67.957,178.257 67.860 C 178.217 67.763,178.192 67.645,178.202 67.598 C 178.212 67.551,178.146 67.287,178.056 67.011 C 177.966 66.736,177.856 66.197,177.811 65.813 C 177.766 65.430,177.679 64.984,177.618 64.823 C 177.482 64.465,177.393 63.489,177.403 62.455 C 177.407 62.033,177.363 61.560,177.305 61.404 C 177.248 61.248,177.240 60.933,177.289 60.704 C 177.337 60.475,177.406 59.997,177.442 59.642 C 177.479 59.287,177.567 58.785,177.639 58.527 C 177.711 58.268,177.769 57.964,177.768 57.851 C 177.767 57.738,177.819 57.646,177.883 57.646 C 177.948 57.646,177.971 57.599,177.936 57.542 C 177.901 57.485,177.953 57.371,178.052 57.288 C 178.151 57.206,178.205 57.069,178.173 56.985 C 178.140 56.900,178.183 56.789,178.268 56.739 C 178.353 56.689,178.555 56.437,178.717 56.178 C 179.071 55.615,180.262 54.359,180.442 54.359 C 180.512 54.359,180.569 54.306,180.569 54.241 C 180.569 54.177,180.678 54.124,180.811 54.124 C 180.971 54.124,181.024 54.074,180.968 53.977 C 180.922 53.896,180.924 53.866,180.972 53.909 C 181.021 53.953,181.280 53.908,181.549 53.809 C 181.817 53.710,182.191 53.609,182.379 53.583 C 182.568 53.558,182.735 53.524,182.751 53.507 C 182.800 53.458,183.881 53.517,184.444 53.599 " stroke="none" fill="#000000" fill-rule="evenodd"></path></g></svg>