<svg width="720" height="720" xmlns="http://www.w3.org/2000/svg" xmlns:xlink="http://www.w3.org/1999/xlink" xml:space="preserve" overflow="hidden"><g transform="translate(-280 0)"><g><g><path d="M189.18 360.065C209.221 329.352 219.323 294.2 222.469 270.355L259.064 270.355C255.999 299.49 244.245 342.179 219.628 379.925 190.35 424.828 152.215 448.58 109.377 448.6L109.117 448.6C76.4438 448.6 45.8718 433.92 25.2103 408.306 3.48133 381.38-4.73731 346.559 2.65227 312.762L38.1539 320.533C33.2001 343.162 38.9393 367.446 53.486 385.484 67.4278 402.748 87.1639 412.253 109.129 412.253L109.312 412.253C147.219 412.229 173.672 383.861 189.18 360.065" fill="#1D95F8" transform="matrix(1 0 0 -1.00001 280.924 687.207)"/><path d="M453.326 105.444C439.096 125.136 428.729 148.704 424.153 171.381L387.225 171.381C390.062 153.677 397.584 124.439 417.405 93.606 404.986 72.8071 382.692 52.2864 359.116 40.011 359.106 40.0156 359.093 40.0228 359.078 40.0312 359.065 40.0228 359.053 40.0156 359.041 40.011 335.466 52.2864 313.172 72.8071 300.754 93.606 320.574 124.439 328.096 153.677 330.933 171.381L294.005 171.381C289.429 148.704 279.061 125.136 264.832 105.444L258.652 96.8568 263.06 87.2248C278.489 53.5649 314.117 19.8058 351.72 3.23188L359.025 0.00137566 359.078 0.0247619 359.129 0.00137566 366.439 3.23188C404.035 19.8058 439.67 53.5649 455.094 87.2248L459.506 96.8568 453.326 105.444" fill="#1D95F8" transform="matrix(1 0 0 -1.00001 280.924 687.207)"/><path d="M528.979 360.065C508.937 329.352 498.834 294.2 495.688 270.355L459.093 270.355C462.159 299.49 473.912 342.179 498.53 379.925 527.808 424.828 565.942 448.58 608.781 448.6L609.042 448.6C641.715 448.6 672.286 433.92 692.948 408.306 714.672 381.38 722.892 346.559 715.506 312.762L680.005 320.533C684.957 343.162 679.219 367.446 664.671 385.484 650.73 402.748 630.995 412.253 609.03 412.253L608.846 412.253C570.939 412.229 544.487 383.861 528.979 360.065" fill="#1D95F8" transform="matrix(1 0 0 -1.00001 280.924 687.207)"/><path d="M295.564 270.355 332.155 270.355C327.59 312.516 311.052 349.257 296.394 381.797 281.754 414.265 267.938 444.941 268.137 475.514 268.442 510.666 288.487 546.5 321.769 571.418 327.598 575.81 344.177 588.529 359.078 602.211 373.981 588.529 390.555 575.81 396.39 571.418 429.671 546.5 449.716 510.666 450.02 475.514 450.221 444.941 436.403 414.265 421.765 381.797 407.105 349.257 390.566 312.516 386.003 270.355L422.595 270.355C427.119 305.172 441.24 336.501 454.918 366.87 471.213 403.052 486.612 437.235 486.376 475.786 485.954 522.256 460.471 568.845 418.198 600.489 413.213 604.259 387.277 624.023 372.37 640.076L359.078 654.408 345.788 640.076C330.881 624.023 304.945 604.259 299.96 600.489 257.686 568.845 232.203 522.256 231.783 475.786 231.546 437.235 246.943 403.052 263.241 366.87 276.918 336.501 291.04 305.172 295.564 270.355" fill="#1D95F8" transform="matrix(1 0 0 -1.00001 280.924 687.207)"/><path d="M151.471 238.292 151.471 203.452 566.688 203.452 566.688 238.292 151.471 238.292 151.471 238.292" fill="#1D95F8" transform="matrix(1 0 0 -1.00001 280.924 687.207)"/></g></g></g></svg>