<svg xmlns="http://www.w3.org/2000/svg" version="1.2" viewBox="0 0 1099 1099" preserveAspectRatio="xMidYMid meet" baseProfile="tiny-ps" xml:space="preserve"><title>NeoSki</title>
<path d="M0 0 C363 0 726 0 1100 0 C1100 362.67 1100 725.34 1100 1099 C737 1099 374 1099 0 1099 C0 736.33 0 373.66 0 0 Z " fill="#1C94F7" transform="translate(0,0)"/>
<path d="M0 0 C0.87935526 -0.00407553 1.75871052 -0.00815105 2.66471291 -0.01235008 C7.31545376 -0.03297053 11.96616718 -0.04737603 16.61694336 -0.05688477 C20.39738104 -0.06573673 24.17745028 -0.08662713 27.95776367 -0.1184082 C76.39105415 -0.51635075 108.03156985 6.86671819 144.265625 40.13671875 C146.77579313 42.38375778 149.36423415 44.50060606 151.98828125 46.61328125 C156.54269048 50.2952966 160.8507569 54.16728482 165.13452148 58.15405273 C168.34591532 61.12514875 171.63937888 63.93774713 175.05078125 66.67578125 C179.82949753 70.51938182 184.30485812 74.60788289 188.77709961 78.79663086 C192.12427452 81.9138207 195.54333148 84.87401923 199.11328125 87.73828125 C203.87436603 91.55822136 208.3260115 95.62766944 212.77734375 99.796875 C216.12444994 102.91396679 219.54342266 105.87409238 223.11328125 108.73828125 C228.51764907 113.07755469 233.56283248 117.7422454 238.62890625 122.46484375 C243.25887123 126.78057076 248.04744307 130.90132668 252.859375 135.01171875 C254.06911302 136.04545285 255.27874558 137.07931039 256.48828125 138.11328125 C257.09486572 138.63172607 257.7014502 139.1501709 258.32641602 139.68432617 C262.74523451 143.47061338 267.09013334 147.33077667 271.40234375 151.23828125 C275.82756613 155.24130927 280.33381493 159.14822307 284.87109375 163.0234375 C286.07684801 164.05335604 287.28257648 165.08330478 288.48828125 166.11328125 C289.40105835 166.89276123 289.40105835 166.89276123 290.33227539 167.68798828 C293.86951983 170.71720658 297.35720702 173.78976708 300.80078125 176.92578125 C304.0927033 179.91746285 307.45919432 182.76352548 310.92578125 185.55078125 C315.74073869 189.44213613 320.26415296 193.56957269 324.77880859 197.79833984 C328.10430358 200.89564351 331.50020668 203.83427884 335.05078125 206.67578125 C339.42580325 210.18471447 343.53347284 213.89674204 347.61328125 217.73828125 C352.54845361 222.38491735 357.6080377 226.75754374 362.90234375 230.99609375 C365.90232944 233.47734992 368.76475287 236.08699029 371.61328125 238.73828125 C376.27530178 243.07541182 381.08829667 247.15203299 386.05859375 251.13671875 C388.36000117 253.02992546 390.51167694 255.00456589 392.67578125 257.05078125 C403.93341301 267.1361641 419.93576976 279.13562007 435.42578125 279.98828125 C440.62391958 279.69984414 444.09205095 278.69342885 447.97265625 275.1796875 C458.31137331 262.94553898 459.73980778 244.57391448 459.81640625 229.203125 C459.82332993 228.25878098 459.8302536 227.31443695 459.83738708 226.34147644 C459.85465329 223.28620231 459.86098222 220.23110198 459.86328125 217.17578125 C459.86529037 215.60917755 459.86529037 215.60917755 459.86734009 214.01092529 C459.86231858 195.91582887 458.98568754 178.18362071 456.61328125 160.23828125 C456.49581543 159.31950195 456.37834961 158.40072266 456.25732422 157.45410156 C454.09733675 141.22432669 448.69905923 126.72416573 436.12109375 115.76171875 C430.56002667 111.51929079 424.22476408 108.31503417 418.07641602 105.01855469 C404.25921144 97.55305994 392.81129304 88.31517023 387.53515625 73.13671875 C384.77510175 63.14048672 384.95960394 49.10911473 389.22265625 39.65234375 C399.51814234 21.77984261 414.70514695 12.28213241 434.30078125 6.86328125 C462.72726608 -0.51507645 492.08192158 0.03027418 521.2277832 -0.00195312 C524.58661921 -0.00631169 527.94519458 -0.02013122 531.30395508 -0.04296875 C549.03637594 -0.16093152 566.63398807 0.02823961 584.3046875 1.6328125 C584.99933294 1.69582802 585.69397839 1.75884354 586.40967369 1.82376862 C598.28003996 2.92866245 609.98412173 4.60793746 621.61328125 7.23828125 C622.89460937 7.52316406 624.1759375 7.80804688 625.49609375 8.1015625 C641.67403048 12.20938312 658.68226028 20.59247007 667.61328125 35.23828125 C674.48907269 47.77539011 676.56948104 63.14505336 672.7421875 77.2421875 C671.5876501 80.14556515 670.32161103 82.62605039 668.61328125 85.23828125 C668.09378906 86.0375 667.57429687 86.83671875 667.0390625 87.66015625 C659.41043661 98.25843372 649.295443 105.16763457 637.58984375 110.5859375 C636.2136084 111.22523193 636.2136084 111.22523193 634.80957031 111.87744141 C632.97160026 112.7232639 631.12738979 113.55569572 629.27636719 114.37255859 C620.35670816 118.44629854 613.63070359 123.48430023 609.42578125 132.48828125 C609.09682861 133.17301514 608.76787598 133.85774902 608.42895508 134.56323242 C604.65212001 142.80149444 602.46445994 151.39498883 600.61328125 160.23828125 C600.46552246 160.93066895 600.31776367 161.62305664 600.16552734 162.33642578 C594.31327782 190.93749014 594.15331464 221.00342135 594.22451854 250.08421755 C594.2314989 254.35165547 594.22069098 258.61905965 594.2122345 262.88648987 C594.19982864 270.24132072 594.19763958 277.59609278 594.20259094 284.95093155 C594.20949709 295.63079486 594.19671064 306.31057226 594.17908376 316.99042009 C594.15060502 334.39172157 594.13296915 351.79301364 594.12451172 369.19433594 C594.12400454 370.22978251 594.12349736 371.26522907 594.12297481 372.33205281 C594.11945002 379.6757955 594.11632033 387.01953834 594.11328125 394.36328125 C594.10981248 402.74218764 594.10616213 411.1210939 594.10205078 419.5 C594.10154817 420.53232432 594.10104555 421.56464863 594.1005277 422.6282555 C594.09172052 439.9696927 594.07116186 457.31109783 594.04256868 474.65251338 C594.02710205 484.33764768 594.01778241 494.02271241 594.02397156 503.70785904 C594.06552891 573.76495555 594.06552891 573.76495555 592.27539062 598.73779297 C592.21715779 599.5589995 592.15892496 600.38020604 592.0989275 601.22629762 C591.00943358 615.87161242 588.73651521 630.33996699 584.73828125 644.48828125 C584.47708496 645.4208374 584.21588867 646.35339355 583.94677734 647.31420898 C579.04905452 664.47412464 572.33553716 682.61794291 556.11328125 692.05078125 C554.64126775 692.83491152 553.13547798 693.55666468 551.61328125 694.23828125 C551.0414209 694.49867188 550.46956055 694.7590625 549.88037109 695.02734375 C544.59740743 697.24621478 539.93431966 697.71366461 534.23828125 697.61328125 C533.3982959 697.60240479 532.55831055 697.59152832 531.69287109 697.58032227 C525.56231714 697.42274741 520.2372113 696.82325074 514.61328125 694.23828125 C513.61425781 693.78582031 512.61523438 693.33335937 511.5859375 692.8671875 C503.37637327 688.79657123 496.87060172 683.55619384 490.08740234 677.52246094 C488.03715374 675.73638812 485.89203447 674.08470522 483.73828125 672.42578125 C477.87878989 667.79180442 472.52385408 662.62500249 467.09375 657.50390625 C463.95202564 654.54364428 460.74810401 651.67165652 457.4765625 648.85546875 C455.28399981 646.95248981 453.13773778 645.00230721 450.98828125 643.05078125 C447.61703962 640.00330215 444.19964134 637.02482859 440.73144531 634.08935547 C434.06372469 628.44327159 427.62661269 622.59805819 421.29443359 616.57763672 C417.41970429 612.89889372 413.4739709 609.32776982 409.43896484 605.82543945 C407.13769479 603.82483012 404.87368871 601.78486638 402.61328125 599.73828125 C399.6764966 597.08714131 396.72725583 594.45537954 393.73828125 591.86328125 C389.77231049 588.41112047 385.90810479 584.85077244 382.04003906 581.29003906 C378.59823189 578.12688548 375.11407209 575.02252208 371.58203125 571.9609375 C369.36003398 570.01668989 367.17472902 568.03491161 364.98828125 566.05078125 C361.59929017 562.9877542 358.16450465 559.99217864 354.68066406 557.03857422 C348.22308865 551.56382956 341.97360647 545.91241109 335.80908203 540.10986328 C332.09783806 536.61732982 328.34872612 533.19125097 324.48828125 529.86328125 C318.55831087 524.72397358 312.78737298 519.39903706 306.98828125 514.11328125 C303.26532057 510.72403133 299.50733409 507.38393372 295.70703125 504.08203125 C293.14909098 501.82951668 290.63149145 499.53511033 288.11328125 497.23828125 C282.6770234 492.28541159 277.18868131 487.41365126 271.5703125 482.66796875 C264.30205113 476.51733636 257.28788145 470.16710368 250.3828125 463.61108398 C245.75131159 459.2379566 240.98258621 455.18843378 236 451.21875 C232.96580843 448.70101657 230.24236598 445.95300806 227.49609375 443.12890625 C225.0450597 440.66770194 222.44421915 438.41696652 219.8125 436.15234375 C217.20936243 433.88673556 214.66169401 431.56524573 212.11328125 429.23828125 C206.64092603 424.25252396 201.10799231 419.35400978 195.46484375 414.5625 C194.28491341 413.55887918 193.10523475 412.5549624 191.92578125 411.55078125 C191.3220166 411.03733154 190.71825195 410.52388184 190.09619141 409.99487305 C186.56429012 406.97174154 183.13005196 403.87484422 179.7578125 400.67504883 C165.35731196 387.02790781 145.9864619 370.58997946 125.05078125 370.96875 C118.92730337 371.64586534 114.17226725 374.05796948 110.30078125 378.86328125 C94.59367645 402.48884385 96.3985982 436.32377667 96.42578125 463.42578125 C96.42668762 465.08960846 96.42668762 465.08960846 96.4276123 466.78704834 C96.46479664 491.93136468 97.54833177 516.53343752 102.61328125 541.23828125 C102.75991211 541.95709473 102.90654297 542.6759082 103.05761719 543.41650391 C106.29785727 558.48399447 114.80283972 571.73081095 127.578125 580.36328125 C131.16790952 582.58090875 134.84819221 584.59214718 138.55078125 586.61328125 C151.80898275 593.89908215 163.27717644 603.22996683 168.20703125 618.01953125 C169.67501859 626.03700055 169.46205993 635.55701937 166.61328125 643.23828125 C166.29488281 644.15996094 165.97648437 645.08164062 165.6484375 646.03125 C159.29045266 662.92165417 145.68756198 673.80887096 129.61328125 681.23828125 C109.91679262 689.84480811 88.74697593 692.51062505 67.61328125 695.23828125 C65.95159912 695.45871094 65.95159912 695.45871094 64.25634766 695.68359375 C12.67643501 702.20369701 -58.11051614 701.53732806 -101.3828125 668.984375 C-110.12612316 661.51423588 -117.96550828 650.68697956 -120.38671875 639.23828125 C-121.33066793 626.75240802 -121.77629669 613.34879826 -113.38671875 603.23828125 C-105.4242551 594.69832023 -95.4364236 588.93402728 -85.67431641 582.69970703 C-84.54195557 581.97630127 -84.54195557 581.97630127 -83.38671875 581.23828125 C-82.77489746 580.84753418 -82.16307617 580.45678711 -81.53271484 580.05419922 C-66.94522854 570.60321434 -59.98568814 556.40202684 -56.2890625 539.78515625 C-51.93708017 518.65616692 -50.93386094 496.83570738 -49.58392334 475.34887695 C-49.38290615 472.17814336 -49.1732374 469.00805016 -48.96337891 465.83789062 C-46.55579869 428.71089893 -46.09172067 391.62912177 -46.07619858 354.43222809 C-46.07424996 350.85803099 -46.06914155 347.28384892 -46.06362915 343.70965576 C-46.02187473 307.12728765 -46.35219879 270.46241886 -50.26171875 234.05078125 C-50.43387217 232.37113891 -50.60557131 230.69144996 -50.77685547 229.01171875 C-51.89098708 218.23869469 -53.14420295 207.48199341 -54.51171875 196.73828125 C-54.6701123 195.49280518 -54.82850586 194.2473291 -54.99169922 192.96411133 C-55.83199555 186.63102801 -56.88403727 180.44591027 -58.38671875 174.23828125 C-58.69843743 172.84676126 -59.00833913 171.45483296 -59.31640625 170.0625 C-63.79954881 150.26215022 -69.33222357 131.76324044 -87.07421875 119.92578125 C-93.63998217 115.93610348 -100.44940191 112.34847039 -107.24291992 108.7644043 C-120.93432889 101.45475992 -134.1147098 92.97750227 -140.38671875 78.23828125 C-142.83502481 66.80143898 -143.24580997 52.61231923 -137.38671875 42.23828125 C-135.27557739 39.00886204 -132.95526743 36.11352231 -130.38671875 33.23828125 C-129.87496094 32.63371094 -129.36320313 32.02914063 -128.8359375 31.40625 C-104.65197708 4.82189648 -57.93730975 2.11236576 -24.59335327 0.4573822 C-16.39828538 0.08658036 -8.20224202 0.03303472 0 0 Z " fill="#000000" transform="translate(284.38671875,224.76171875)"/>
<path d="M0 0 C0.66 0.33 1.32 0.66 2 1 C-1.3 4.3 -4.6 7.6 -8 11 C-8 6.67750434 -5.85084926 5.11604454 -3 2 C-2.01 1.34 -1.02 0.68 0 0 Z " fill="#187DD0" transform="translate(401,597)"/>
</svg>