<?xml version="1.0" standalone="no"?>
<!DOCTYPE svg PUBLIC "-//W3C//DTD SVG 20010904//EN"
 "http://www.w3.org/TR/2001/REC-SVG-20010904/DTD/svg10.dtd">
<svg version="1.0" xmlns="http://www.w3.org/2000/svg"
 width="512.000000pt" height="512.000000pt" viewBox="0 0 512.000000 512.000000"
 preserveAspectRatio="xMidYMid meet">
<metadata>
Created by potrace 1.14, written by Peter Selinger 2001-2017
</metadata>
<g transform="translate(0.000000,512.000000) scale(0.100000,-0.100000)"
fill="#000000" stroke="none">
<path d="M354 5096 c-168 -54 -305 -201 -343 -366 -7 -30 -11 -740 -11 -2170
0 -2317 -3 -2168 57 -2289 57 -115 205 -231 333 -260 63 -15 4277 -15 4340 0
173 40 328 193 375 370 22 81 22 4277 0 4358 -46 176 -190 320 -366 366 -46
13 -369 15 -2184 14 l-2130 0 -71 -23z m2202 -1959 c276 -472 509 -868 517
-880 14 -20 16 61 16 856 l1 877 330 0 330 0 0 -1435 0 -1435 -346 2 -346 3
-512 865 -511 864 -3 -867 -2 -867 -330 0 -330 0 0 1440 0 1440 342 -2 341 -3
503 -858z"/>
</g>
</svg>
