<svg width="720" height="720" xmlns="http://www.w3.org/2000/svg" xmlns:xlink="http://www.w3.org/1999/xlink" xml:space="preserve" overflow="hidden"><g transform="translate(-280 0)"><path d="M834.25 15 834.25 15C839.5 34.5 853.75 51 872.5 60L872.5 60C853.75 69 840.25 85.5 834.25 105L834.25 105C829 85.5 814.75 69 796 60L796 60C814.75 51 829 34.5 834.25 15Z" fill="#1D95F8"/><path d="M354.25 180 354.25 180C359.5 199.5 373.75 216 392.5 225L392.5 225C373.75 234 360.25 250.5 354.25 270L354.25 270C349 250.5 334.75 234 316 225L316 225C334.75 216 349 199.5 354.25 180Z" fill="#1D95F8"/><path d="M428.5 30 428.5 30C433 46.5 445 60 460 67.5L460 67.5C444.25 75 433 88.5 428.5 105L428.5 105C424 88.5 412 75 397 67.5L397 67.5C412 60 424 46.5 428.5 30Z" fill="#1D95F8"/><path d="M923.5 150 923.5 150C928 166.5 940 180 955 187.5L955 187.5C939.25 195 928 208.5 923.5 225L923.5 225C919 208.5 907 195 892 187.5L892 187.5C907 180 919 166.5 923.5 150Z" fill="#1D95F8"/><path d="M640 296.25C634 296.25 628.75 291 628.75 285L628.75 210C628.75 204 634 198.75 640 198.75 646 198.75 651.25 204 651.25 210L651.25 285C651.25 291 646 296.25 640 296.25Z" fill="#1D95F8"/><path d="M640 176.25C634 176.25 628.75 171 628.75 165L628.75 105C628.75 99 634 93.75 640 93.75 646 93.75 651.25 99 651.25 105L651.25 165C651.25 171 646 176.25 640 176.25Z" fill="#1D95F8"/><path d="M640 71.25C634 71.25 628.75 66 628.75 60L628.75 30C628.75 24 634 18.75 640 18.75 646 18.75 651.25 24 651.25 30L651.25 60C651.25 66 646 71.25 640 71.25Z" fill="#1D95F8"/><path d="M722.5 243.75C721.75 243.75 721 243.75 720.25 243.75 714.25 242.25 710.5 236.25 712 230.25L724.75 171.75C726.25 165.75 732.25 162 738.25 163.5 744.25 165 748 171 746.5 177L733.75 235.5C732.25 240 727.75 243.75 722.5 243.75Z" fill="#1D95F8"/><path d="M745 141C744.25 141 743.5 141 742.75 141 736.75 139.5 733 133.5 734.5 127.5L734.5 127.5 744.25 83.25C745.75 77.25 751 73.5 757.75 74.25 763.75 75.75 767.5 81 766.75 87.75 766.75 87.75 766.75 87.75 766.75 88.5L757 132.75C754.75 137.25 750.25 141 745 141Z" fill="#1D95F8"/><path d="M797.5 228.75C791.5 228.75 786.25 223.5 786.25 217.5 786.25 215.25 787 213 788.5 210.75L839.5 136.5C843.25 131.25 850 130.5 855.25 134.25 859.75 138 861.25 144 858.25 149.25L807.25 223.5C805 227.25 801.25 228.75 797.5 228.75Z" fill="#1D95F8"/><path d="M557.5 243.75C552.25 243.75 547.75 240 546.25 234.75L530.5 161.25C529 155.25 533.5 149.25 539.5 147.75 545.5 146.25 551.5 150 552.25 156L568 229.5C569.5 235.5 565.75 241.5 559.75 243 559 243.75 558.25 243.75 557.5 243.75Z" fill="#1D95F8"/><path d="M532 126.75C526.75 126.75 522.25 123 520.75 117.75L514.75 88.5C513.25 82.5 517 76.5 523 75 529 73.5 535 77.25 536.5 83.25 536.5 83.25 536.5 83.25 536.5 84L542.5 113.25C544 119.25 540.25 125.25 534.25 126.75L534.25 126.75C533.5 126.75 532.75 126.75 532 126.75L532 126.75Z" fill="#1D95F8"/><path d="M482.5 228.75C478.75 228.75 475 227.25 473.5 224.25L422.5 150C419.5 144.75 421 138 426.25 134.25 431.5 131.25 437.5 132 441.25 137.25L492.25 211.5C496 216.75 494.5 223.5 489.25 227.25 487 228 484.75 228.75 482.5 228.75Z" fill="#1D95F8"/><path d="M968.5 614.25 946 371.25C945.25 363.75 938.5 357.75 931 357.75 928 357.75 923.5 357.75 919.75 357.75L916 314.25 902.5 313.5C891.25 312.75 880 313.5 869.5 314.25L865.75 273.75 854.5 271.5C775.75 261.75 697 288 640 343.5 583 288 504.25 261.75 425.5 271.5L414.25 273.75 410.5 314.25C399.25 313.5 388.75 312.75 377.5 313.5L364.75 314.25 361 357.75C356.5 357.75 352.75 357.75 349.75 357.75 342.25 357.75 335.5 363.75 334.75 371.25L312.25 614.25C310.75 622.5 316.75 630 325 630.75 325.75 630.75 326.5 630.75 327.25 630.75 373 629.25 501.25 632.25 605.5 700.5 610.75 703.5 616 705.75 622 705.75L659.5 705.75C665.5 705.75 670.75 704.25 675.25 701.25 784.75 633 909.25 630 953.5 631.5 961.75 631.5 968.5 625.5 969.25 617.25 968.5 615 968.5 615 968.5 614.25ZM655 370.5C703 321 769.75 295.5 838 299.25L858.25 531.75C823 538.5 731.5 561 655 627L655 370.5ZM442 300C510.25 296.25 577 321.75 625 371.25L625 627.75C548.5 561.75 457 539.25 421.75 532.5L442 300ZM370 577.5 392.5 342.75C397 342.75 402.25 343.5 408.25 343.5L389.5 558 403.75 559.5C405.25 559.5 532 576 620.5 663.75L620.5 663.75C522.25 588.75 412.75 579 370 577.5ZM659.5 665.25 659.5 665.25C749.5 576.75 875.5 559.5 876.25 559.5L890.5 558 871.75 343.5C877.75 342.75 883 342.75 887.5 342.75L910 577.5C867.25 579 757.75 589.5 659.5 665.25Z" fill="#1D95F8"/></g></svg>