<svg width="352" height="352" xmlns="http://www.w3.org/2000/svg" xmlns:xlink="http://www.w3.org/1999/xlink" xml:space="preserve" overflow="hidden"><g transform="translate(-464 -184)"><path d="M640.033 330 800.62 330.227C814.64 396.632 789.014 530.359 640.033 530.359 545.929 530.359 469.636 454.087 469.636 359.997 469.636 265.908 545.929 189.636 640.033 189.636 684.235 189.636 724.497 206.466 754.772 234.05L706.822 281.986C688.849 266.589 665.559 257.234 640.033 257.234 583.274 257.234 537.248 303.239 537.248 359.99 537.248 416.742 583.26 462.747 640.033 462.747 687.706 462.747 720.664 434.531 732.788 395.085L640.033 395.085 640.033 330Z" fill="#1D95F8"/></g></svg>