<svg width="720" height="721" xmlns="http://www.w3.org/2000/svg" xmlns:xlink="http://www.w3.org/1999/xlink" xml:space="preserve" overflow="hidden"><g transform="translate(-280 0)"><path d="M418.185 0 180 0C130.294 0 90 40.2944 90 90L90 630C90 679.706 130.294 720 180 720L540 720C589.706 720 630 679.706 630 630L630 211.815C629.997 199.881 625.255 188.437 616.815 180L450 13.185C441.563 4.74528 430.119 0.00254925 418.185 5.68628e-07ZM427.5 157.5 427.5 67.5 562.5 202.5 472.5 202.5C447.647 202.5 427.5 182.353 427.5 157.5ZM299.07 344.07C307.868 335.272 322.132 335.272 330.93 344.07 339.728 352.868 339.728 367.132 330.93 375.93L256.815 450 330.93 524.07C339.728 532.868 339.728 547.132 330.93 555.93 322.132 564.728 307.868 564.728 299.07 555.93L209.07 465.93C200.272 457.154 200.254 442.908 209.03 434.11 209.043 434.097 209.057 434.083 209.07 434.07L299.07 344.07ZM420.93 344.07 510.93 434.07C519.728 442.846 519.746 457.092 510.97 465.89 510.957 465.903 510.943 465.917 510.93 465.93L420.93 555.93C412.132 564.728 397.868 564.728 389.07 555.93 380.272 547.132 380.272 532.868 389.07 524.07L463.185 450 389.07 375.93C380.272 367.132 380.272 352.868 389.07 344.07 397.868 335.272 412.132 335.272 420.93 344.07Z" fill="#1D95F8" transform="matrix(1 0 0 1.00139 280 0)"/></g></svg>