<?xml version="1.0" encoding="UTF-8"?>
<svg version="1.1" xmlns="http://www.w3.org/2000/svg" width="2326" height="2326">
<path d="M0 0 C0.60392578 0.30276855 1.20785156 0.60553711 1.83007812 0.91748047 C11.32597803 5.7550627 19.17159599 11.84007082 27 19 C27.78890625 19.69480469 28.5778125 20.38960937 29.390625 21.10546875 C51.21337669 41.39748786 63.1328572 72.38673188 64.28515625 101.796875 C66.03305268 180.91873464 38.76823118 259.67410131 11.4609375 332.81640625 C6.32035298 346.61830026 1.47456454 360.47278436 -3.1255188 374.46398926 C-14.65569138 409.51679546 -27.67592388 443.9986299 -40.82940674 478.46878052 C-49.12927103 500.22622465 -57.14427471 522.07861679 -65 544 C-65.33668701 544.93829651 -65.67337402 545.87659302 -66.02026367 546.84332275 C-98.73260579 638.02443195 -130.33267579 730.24901833 -151.39794922 964.04711914 C-150.99085448 967.06786201 -150.9325721 969.95582874 -151 973 C-150.34 973 -149.68 973 -149 973 C-148.89075195 972.02844971 -148.78150391 971.05689941 -148.66894531 970.0559082 C-148.02412345 965.5770047 -146.69703003 961.39839819 -145.296875 957.10546875 C-145.02295425 956.2531366 -144.74903351 955.40080444 -144.46681213 954.52264404 C-143.56902559 951.74165372 -142.66076435 948.96426553 -141.75 946.1875 C-141.28247818 944.75580978 -141.28247818 944.75580978 -140.80551147 943.29519653 C-131.86481874 915.98279561 -121.48198551 889.34320198 -110 863 C-109.32300049 861.43185547 -109.32300049 861.43185547 -108.63232422 859.83203125 C-100.8922773 841.92550496 -92.45434466 824.39872141 -83.87065125 806.88658142 C-81.21021816 801.45092916 -78.62090379 795.98440111 -76.0625 790.5 C-72.1141671 782.09023717 -67.8338593 773.87481713 -63.44238281 765.68896484 C-61.86017782 762.73933623 -60.28575501 759.78561014 -58.7109375 756.83203125 C-51.01489227 742.43377949 -43.10759746 728.17009866 -35 714 C-34.42169434 712.98502441 -33.84338867 711.97004883 -33.24755859 710.92431641 C-20.18367246 688.0066492 -6.57675282 665.43708793 7.60693359 643.19482422 C9.00515926 640.9918714 10.38931257 638.78067899 11.76953125 636.56640625 C19.91281481 623.52619557 28.4400681 610.75121395 37.00146484 597.98388672 C39.09465511 594.85867642 41.17728067 591.72665279 43.25634766 588.59204102 C48.74136734 580.3282319 54.34883796 572.15088904 60 564 C60.53641113 563.22495117 61.07282227 562.44990234 61.62548828 561.65136719 C69.64748513 550.07356175 77.85919152 538.65652747 86.25878906 527.35009766 C87.98994601 525.01356978 89.71144757 522.67025826 91.4296875 520.32421875 C106.77691677 499.37894433 122.58787718 478.81501548 138.99609375 458.69140625 C141.43116179 455.70356942 143.84737413 452.70152967 146.25 449.6875 C152.87325128 441.39463747 159.62511845 433.22997634 166.55761719 425.19458008 C169.60256759 421.65746271 172.57627141 418.0762709 175.5 414.4375 C179.32712751 409.71598943 183.39610108 405.27782033 187.54980469 400.84667969 C190.76272289 397.39972143 193.79939429 393.86558263 196.75 390.1875 C199.99485208 386.14607773 203.41260167 382.47807493 207.125 378.8671875 C208.88245583 377.1170544 210.51011416 375.318842 212.125 373.4375 C224.54713985 359.05995644 238.1111037 345.7304967 251.55175781 332.31787109 C254.33861491 329.53675989 257.12088804 326.75111245 259.90189934 323.9641571 C262.0758312 321.78659217 264.25216291 319.61143823 266.42920303 317.4369812 C267.45603587 316.41080748 268.48214867 315.38391267 269.50747299 314.35623169 C274.63722718 309.21725355 279.79436269 304.1575586 285.320755 299.44113159 C288.06336568 297.08741733 290.67700631 294.597049 293.3125 292.125 C298.10995628 287.66173293 303.03162373 283.43025571 308.14453125 279.328125 C310.77167247 277.18616034 313.33334508 274.98932269 315.88769531 272.76220703 C323.5982098 266.0507221 331.5965311 259.79344372 339.78027344 253.67089844 C341.97424185 252.01938944 344.14806569 250.34399875 346.3203125 248.6640625 C368.1554849 231.95327498 392.10285989 218.55211002 417 207 C417.80405273 206.61150879 418.60810547 206.22301758 419.43652344 205.82275391 C438.77383327 196.6285264 462.51588718 199.46590717 482.26953125 206.09765625 C509.56684054 216.65166181 530.24654888 237.40622904 542.13623047 263.95166016 C572.70291108 336.43737252 529.1386769 427.56329771 501.88146973 494.75738525 C497.64159198 505.16183116 493.33169209 515.5371466 489.015625 525.91015625 C483.63133558 538.8505212 478.34217795 551.8291693 473.0625 564.8125 C472.59833679 565.95389435 472.13417358 567.0952887 471.65594482 568.27127075 C471.19117737 569.41417572 470.72640991 570.55708069 470.24755859 571.73461914 C469.31349483 574.03142019 468.37941287 576.32821384 467.4453125 578.625 C466.98518768 579.75655014 466.52506287 580.88810028 466.05099487 582.05393982 C463.10661094 589.29121452 460.14836672 596.52266074 457.1796875 603.75 C427.28171163 676.58051057 398.35854466 749.80853027 372 824 C371.66848938 824.93181091 371.33697876 825.86362183 370.99542236 826.82366943 C341.76252895 909.08393773 318.20433963 995.05546714 305.18426514 1106.956604 C305.00910236 1108.89905993 304.82724402 1110.84090866 304.64501953 1112.78271484 C303.140515 1129.28308321 302.78144332 1145.75414583 302.6875 1162.3125 C302.67787231 1163.26640625 302.66824463 1164.2203125 302.6583252 1165.203125 C302.47539058 1186.2888426 304.09713089 1209.95963041 318 1227 C325.22768659 1234.07087288 333.24440773 1235.45758271 343.10131836 1235.43164062 C361.33286362 1234.95027969 377.48537403 1225.56634121 392.625 1216.25 C393.35187012 1215.80970459 394.07874023 1215.36940918 394.82763672 1214.91577148 C410.96138574 1204.70081778 424.04171907 1190.24381243 437.41357422 1176.78204346 C439.45480554 1174.72993887 441.50166021 1172.68349094 443.54863644 1170.63711929 C445.5453951 1168.64008692 447.53952455 1166.64044624 449.5328083 1164.63994598 C450.922596 1163.24551394 452.31380738 1161.85250129 453.70506287 1160.45953369 C458.14131829 1155.99018416 462.45422902 1151.47017652 466.55070496 1146.68617249 C468.75602151 1144.12041191 471.06902206 1141.66313698 473.375 1139.1875 C477.69969833 1134.51225082 481.75961671 1129.67744591 485.75390625 1124.71484375 C488.0883059 1121.89326505 490.51990598 1119.19409288 493 1116.5 C497.41511354 1111.69213097 501.56654482 1106.72590675 505.66308594 1101.64599609 C507.7772873 1099.04301114 509.92071329 1096.46432359 512.05957031 1093.8815918 C518.33181561 1086.30108232 524.4984858 1078.65112096 530.53564453 1070.88232422 C532.14348675 1068.81555804 533.75711512 1066.75338346 535.37109375 1064.69140625 C542.53620588 1055.52500418 549.58976905 1046.28401657 556.54101562 1036.95458984 C557.99690593 1035.00414509 559.45833533 1033.05799133 560.921875 1031.11328125 C572.29804245 1015.99599604 583.56104712 1000.80503311 594.39550781 985.29345703 C596.07823709 982.8881681 597.76945669 980.4889849 599.4609375 978.08984375 C617.50430675 952.41255887 635.4889439 926.38990439 651.3515625 899.296875 C651.92817627 898.31251465 652.50479004 897.3281543 653.09887695 896.31396484 C654.198553 894.42795541 655.29145457 892.53797023 656.37573242 890.64306641 C667.72262836 871.07190527 667.72262836 871.07190527 676.9375 866.5625 C680.70522103 865.87046961 683.3010389 865.97251081 687 867 C690.18206427 870.26580281 691.8525138 872.72178623 692.375 877.25 C692.21472714 888.23115662 685.35176755 899.92265982 680.5 909.4375 C680.19598267 910.0383844 679.89196533 910.6392688 679.57873535 911.25836182 C673.43656373 923.39411056 666.89088186 935.27341157 660 947 C659.66464233 947.5712561 659.32928467 948.14251221 658.98376465 948.7310791 C648.76667299 966.12020065 638.18062609 983.20971723 627 1000 C625.95272113 1001.58306623 624.90583103 1003.16638973 623.859375 1004.75 C612.85797159 1021.36265407 601.57203705 1037.77990458 590 1054 C589.47937988 1054.7307373 588.95875977 1055.46147461 588.42236328 1056.21435547 C580.9738006 1066.65230785 573.33082517 1076.91975763 565.49169922 1087.06738281 C564.10635272 1088.86221144 562.72582933 1090.66059781 561.34765625 1092.4609375 C550.24334854 1106.95979265 538.92071838 1121.2541739 527.08374023 1135.16430664 C524.19106549 1138.56944129 521.36185533 1142.01725775 518.5625 1145.5 C514.18315122 1150.88573414 509.49955162 1155.94816799 504.765625 1161.01953125 C502.67089076 1163.26598689 500.62670331 1165.54473428 498.625 1167.875 C488.51158838 1179.53820432 477.63871294 1190.52510641 466.71142578 1201.41894531 C464.60200343 1203.52293737 462.49807561 1205.63232035 460.39453125 1207.7421875 C459.02636265 1209.10969622 457.65788439 1210.4768952 456.2890625 1211.84375 C455.67431061 1212.46052612 455.05955872 1213.07730225 454.42617798 1213.71276855 C450.65517768 1217.46378675 446.76364199 1221.02531398 442.7355957 1224.49908447 C440.57213804 1226.37000821 438.47599986 1228.30944013 436.375 1230.25 C430.78213167 1235.28954042 424.90496666 1239.90791816 418.94335938 1244.49804688 C416.92774338 1246.05584456 414.92450739 1247.6286808 412.921875 1249.203125 C391.15499051 1266.21608955 367.46671661 1280.95163081 341.1875 1289.8125 C339.89839722 1290.24780029 339.89839722 1290.24780029 338.58325195 1290.69189453 C317.31979319 1297.61963362 294.58469007 1298.66114991 274 1289 C265.12868021 1284.32638861 258.15040272 1277.89933521 251 1271 C250.2678125 1270.33097656 249.535625 1269.66195313 248.78125 1268.97265625 C219.22794229 1241.23711152 212.54402575 1192.27077876 211 1154 C210.8221698 1147.85499785 210.80423819 1141.70966757 210.8125 1135.5625 C210.81310425 1134.720289 210.8137085 1133.878078 210.81433105 1133.01034546 C210.97870191 1047.57458682 229.70352264 963.02785396 291 735 C291.33453186 733.90788208 291.66906372 732.81576416 292.01373291 731.69055176 C303.66676972 693.69351277 316.10983886 655.95358302 328.60113525 618.22589111 C329.73349608 614.80568349 330.86462884 611.38507154 331.99525356 607.96428967 C341.41927209 579.45247118 350.97298141 550.99464982 360.95056152 522.67149353 C363.62526989 515.07657265 366.27920357 507.4744984 368.9296875 499.87109375 C379.34474692 470.00791586 389.90528611 440.20077879 400.60877991 410.4394989 C404.34979532 400.03447085 408.07241964 389.62293525 411.78158569 379.20651245 C412.45309498 377.32143216 413.12528173 375.43659301 413.79824829 373.55203247 C422.43069302 349.80515028 422.43069302 349.80515028 429.25 325.5 C429.62330444 323.91264038 429.62330444 323.91264038 430.00415039 322.29321289 C433.6955912 306.06781443 437.37791394 286.67806712 430 271 C429.67 270.01 429.34 269.02 429 268 C421.74094756 264.27237848 412.61283339 265.23239711 405.0625 267.5625 C384.58238487 275.20592398 367.57779314 289.76627209 351.76171875 304.45703125 C349.58459371 306.46171074 347.38287232 308.401252 345.125 310.3125 C340.39423149 314.38176274 336.08355346 318.89746342 331.74658203 323.37817383 C331.16247559 323.9739624 330.57836914 324.56975098 329.9765625 325.18359375 C329.45143066 325.72556396 328.92629883 326.26753418 328.38525391 326.82592773 C327 328 327 328 325 328 C324.73487106 328.59077332 324.46974213 329.18154663 324.19657898 329.79022217 C322.96231302 332.0695983 321.69377154 333.54187023 319.85473633 335.35644531 C319.21679642 335.99100647 318.57885651 336.62556763 317.92158508 337.27935791 C317.23203232 337.95545105 316.54247955 338.63154419 315.83203125 339.328125 C315.11899338 340.0359613 314.40595551 340.74379761 313.67131042 341.4730835 C311.38973806 343.73685772 309.10161658 345.99385671 306.8125 348.25 C304.54206125 350.49266506 302.27315071 352.73682159 300.00724792 354.98406982 C298.59870969 356.38052401 297.18750874 357.77429967 295.77314758 359.16485596 C291.86781025 363.03117632 288.16522905 367.00363785 284.59770203 371.18450928 C282.96752727 373.03689921 281.26180988 374.77307279 279.5 376.5 C277.20673964 378.75797943 275.03571972 381.05996504 272.9375 383.5 C269.40165805 387.60510448 265.70666283 391.54996797 262 395.5 C257.82434256 399.95331013 253.68658662 404.41962161 249.703125 409.046875 C247.50634095 411.56612276 245.25310381 414.03102996 243 416.5 C236.46637641 423.67128955 230.13282301 431.00107686 223.8269043 438.37207031 C220.04910491 442.78524013 216.24764006 447.17724446 212.4375 451.5625 C201.75376298 463.87459569 191.32506622 476.3858726 181 489 C180.43458496 489.69061523 179.86916992 490.38123047 179.28662109 491.09277344 C172.25309358 499.69316579 165.30148 508.35166781 158.47167969 517.11474609 C156.8837968 519.14885884 155.28966237 521.17798414 153.6953125 523.20703125 C145.85801945 533.20390456 138.2500149 543.34952958 130.75439453 553.60449219 C128.41211573 556.80271645 126.05538608 559.99016071 123.69897461 563.17797852 C112.40426031 578.46771858 101.31387564 593.86192052 90.63818359 609.59130859 C88.42605612 612.84389423 86.19930564 616.08635641 83.97314453 619.3293457 C35.28156258 690.30509328 -9.79119617 764.82662231 -46 843 C-46.51997559 844.12229004 -47.03995117 845.24458008 -47.57568359 846.40087891 C-65.83998837 885.99599463 -82.54440777 926.31223136 -96.875 967.5 C-112.281127 1011.7629224 -112.281127 1011.7629224 -128 1028 C-128.53882813 1028.62390625 -129.07765625 1029.2478125 -129.6328125 1029.890625 C-138.18635439 1039.43276721 -151.34991358 1045.56096092 -164.0390625 1046.2734375 C-182.74920939 1046.90963709 -198.14979451 1040.76921384 -212 1028 C-251.22935165 989.72892259 -253.14427424 917.32108864 -253.95214844 865.78320312 C-254.76319517 799.4642792 -243.94583045 733.41505284 -229 669 C-228.73697083 667.86443665 -228.73697083 667.86443665 -228.46862793 666.70593262 C-209.53499821 585.30124225 -182.27807351 505.56682057 -154 427 C-153.61392578 425.92663391 -153.22785156 424.85326782 -152.83007812 423.74737549 C-142.34638539 394.61327515 -131.63118162 365.57123886 -120.72900391 336.59130859 C-112.37543986 314.38092307 -104.14887821 292.12576574 -96.03063965 269.82830811 C-95.02022783 267.05550975 -94.00701962 264.28374781 -92.99316406 261.51220703 C-61.51469437 178.26969332 -61.51469437 178.26969332 -47 91 C-46.94714844 89.99324219 -46.89429688 88.98648438 -46.83984375 87.94921875 C-46.54019158 77.27899584 -47.08147911 64.57240088 -54 56 C-58.72561803 52.68630443 -64.50646132 53.44571919 -70 54 C-108.56442383 61.62320006 -145.61873961 89.5076558 -176 113 C-176.90371338 113.69536865 -176.90371338 113.69536865 -177.82568359 114.40478516 C-185.84695963 120.58780705 -193.65861825 126.98685809 -201.34375 133.58203125 C-203.04685578 135.04011474 -204.75709274 136.48946852 -206.46875 137.9375 C-212.7671763 143.27942426 -218.96656401 148.70593773 -225.00166321 154.34463501 C-227.56617586 156.74048113 -230.1377503 159.12481894 -232.73852539 161.48144531 C-242.49763991 170.34473129 -251.80362199 179.65167002 -261.11328125 188.98291016 C-263.88688362 191.76190673 -266.66583681 194.53547283 -269.4453125 197.30859375 C-271.23209181 199.09603337 -273.01856115 200.8837829 -274.8046875 202.671875 C-275.62460175 203.48976501 -276.44451599 204.30765503 -277.28927612 205.15032959 C-281.50676012 209.38489328 -285.57448422 213.68550014 -289.45022583 218.23614502 C-291.06321026 220.07194192 -292.75544128 221.78945008 -294.5 223.5 C-297.47057406 226.42467115 -300.20729119 229.48619561 -302.92578125 232.64453125 C-305.01435124 235.01629717 -307.15532807 237.32888367 -309.31201172 239.63842773 C-314.33686148 245.0204013 -319.11132227 250.50850099 -323.72265625 256.25390625 C-326.21827478 259.26320269 -328.83784189 262.13920076 -331.5 265 C-335.70906681 269.52849521 -339.67443112 274.19976451 -343.55078125 279.015625 C-346.48647182 282.5927663 -349.51874373 286.07734259 -352.5625 289.5625 C-356.77235893 294.39248089 -360.89268961 299.26351791 -364.859375 304.296875 C-367.62349677 307.78733534 -370.43759405 311.23591088 -373.25 314.6875 C-382.36877628 325.90169947 -391.40418471 337.15708887 -400.14672852 348.66821289 C-403.67164389 353.29824255 -407.27436094 357.85388319 -410.9375 362.375 C-415.98348116 368.62010852 -420.7642932 375.03637819 -425.4987793 381.51977539 C-430.0034986 387.67928954 -434.60754589 393.75629443 -439.25 399.8125 C-444.88449617 407.17422366 -450.37422293 414.60907099 -455.71337891 422.18652344 C-458.24015658 425.74798541 -460.81238143 429.27679216 -463.375 432.8125 C-469.1540896 440.79959805 -474.85414513 448.84005037 -480.52490234 456.90429688 C-482.47743184 459.67829774 -484.4360217 462.44799298 -486.39453125 465.21777344 C-488.41077356 468.0705701 -490.42374154 470.92566704 -492.43603516 473.78125 C-493.48451851 475.26870187 -494.53367979 476.7556761 -495.58349609 478.2421875 C-524.28728082 518.90805115 -551.90668753 560.46286316 -578.46191406 602.56201172 C-579.96897628 604.95082495 -581.48001186 607.33707739 -582.9921875 609.72265625 C-586.00347264 614.47632022 -589.0034515 619.23703592 -592 624 C-592.56267578 624.89348145 -593.12535156 625.78696289 -593.70507812 626.70751953 C-602.86811603 641.26930672 -611.85941675 655.92978626 -620.76124573 670.65200806 C-623.25061289 674.76731877 -625.75130208 678.87558089 -628.2578125 682.98046875 C-636.19316821 695.98400903 -644.01179219 709.0479147 -651.6887207 722.20581055 C-652.39400548 723.41457265 -653.09932765 724.62331295 -653.8046875 725.83203125 C-654.32632729 726.72594826 -654.32632729 726.72594826 -654.85850525 727.63792419 C-657.26340727 731.75364313 -659.69082724 735.85540584 -662.1328125 739.94921875 C-669.85114053 752.89200507 -677.38250917 765.91405429 -684.703125 779.0859375 C-687.7589136 784.58243472 -690.86921637 790.04595757 -694 795.5 C-703.60449719 812.26022396 -713.02470705 829.11582494 -722.17773438 846.12695312 C-725.83799864 852.91064289 -729.61105796 859.62143168 -733.4375 866.3125 C-738.83152933 875.76428083 -743.8822201 885.36891248 -748.8527832 895.04907227 C-752.34499908 901.84112597 -755.92405766 908.56974392 -759.625 915.25 C-766.23491177 927.21537103 -772.41350867 939.40313474 -778.61962891 951.58105469 C-779.23686829 952.79112938 -779.23686829 952.79112938 -779.86657715 954.02565002 C-780.620346 955.50413121 -781.37304166 956.98316058 -782.12414551 958.46299744 C-784.51345943 963.15190282 -786.95472864 967.81159553 -789.41562366 972.46319675 C-795.01110202 983.04705349 -800.42930439 993.71122211 -805.77734375 1004.421875 C-806.67823413 1006.2229786 -807.579243 1008.02402294 -808.48036194 1009.82501221 C-810.35303184 1013.56889298 -812.22428538 1017.31347711 -814.09448242 1021.05859375 C-816.45608388 1025.78747871 -818.82129743 1030.51454634 -821.18747616 1035.24114227 C-834.74495235 1062.32387006 -834.74495235 1062.32387006 -847.87423706 1089.61584473 C-849.39353535 1092.83343423 -850.92874202 1096.04332709 -852.46383667 1099.25340271 C-863.11427166 1121.53079429 -873.56701436 1143.89512694 -883.86083984 1166.33935547 C-885.5873683 1170.10320899 -887.31976679 1173.86431985 -889.05435181 1177.62446594 C-912.5523351 1228.57826412 -934.64071876 1280.19312761 -955.97802734 1332.08544922 C-957.66834538 1336.1961973 -959.36463377 1340.30445102 -961.06259155 1344.41204834 C-970.61053628 1367.51633105 -979.92496027 1390.70587792 -989 1414 C-989.29416809 1414.75486694 -989.58833618 1415.50973389 -989.89141846 1416.28747559 C-1007.3557195 1461.13494068 -1024.23098318 1506.20231387 -1040.12011719 1551.63232422 C-1041.87400307 1556.64543053 -1043.6417964 1561.65352334 -1045.4140625 1566.66015625 C-1048.35591955 1574.97607623 -1051.27484127 1583.29981354 -1054.17498779 1591.63037109 C-1054.7336635 1593.23501898 -1055.29279992 1594.83950653 -1055.85235596 1596.44384766 C-1067.23371896 1629.08738688 -1077.76601525 1661.98011813 -1088 1695 C-1088.36220642 1696.1678302 -1088.72441284 1697.3356604 -1089.09759521 1698.53887939 C-1105.40339578 1751.15959817 -1120.49526582 1804.11819172 -1134.33331299 1857.44122314 C-1134.96536219 1859.86705842 -1135.60385156 1862.29107166 -1136.24560547 1864.71435547 C-1140.97159539 1882.56593051 -1144.63167309 1900.36650953 -1147.46630859 1918.61621094 C-1148.26716752 1923.69393497 -1149.13950381 1928.75566892 -1150.0625 1933.8125 C-1150.20075195 1934.62356201 -1150.33900391 1935.43462402 -1150.48144531 1936.27026367 C-1152.29232683 1946.03520506 -1156.40595072 1955.70169696 -1164.4453125 1961.87890625 C-1170.62808662 1965.95671881 -1177.09072574 1969.33583069 -1184 1972 C-1184.83015625 1972.32097656 -1185.6603125 1972.64195313 -1186.515625 1972.97265625 C-1206.52348312 1979.26167598 -1227.7637656 1975.09660972 -1245.875 1965.6875 C-1252.67131009 1961.99531471 -1258.93892473 1957.81381318 -1265 1953 C-1265.85335937 1952.35289063 -1266.70671875 1951.70578125 -1267.5859375 1951.0390625 C-1279.0527427 1941.3535086 -1286.8698007 1921.67699218 -1288.17999268 1906.98109436 C-1288.81456919 1893.07170355 -1286.80004044 1879.62463686 -1284.5625 1865.9375 C-1284.19851136 1863.65137245 -1283.83507894 1861.36515629 -1283.47216797 1859.07885742 C-1268.94634626 1768.31736097 -1248.58654894 1678.54967713 -1199 1501 C-1198.69854065 1500.0004126 -1198.3970813 1499.0008252 -1198.08648682 1497.97094727 C-1180.08467388 1438.3223257 -1161.3759188 1378.88237634 -1141 1320 C-1140.60643311 1318.86183838 -1140.21286621 1317.72367676 -1139.80737305 1316.55102539 C-1127.70995629 1281.57703809 -1115.38056627 1246.69799624 -1102.64350891 1211.95082092 C-1099.81350196 1204.23005285 -1097.00036061 1196.50330494 -1094.1953125 1188.7734375 C-1083.40942501 1159.07408878 -1072.32190936 1129.49900388 -1061 1100 C-1060.64440002 1099.07264038 -1060.28880005 1098.14528076 -1059.92242432 1097.18981934 C-1027.83495585 1013.51201155 -1027.83495585 1013.51201155 -1011.50195312 974.59765625 C-1008.42424516 967.22556513 -1005.40350876 959.82990648 -1002.375 952.4375 C-1002.04058899 951.62125153 -1001.70617798 950.80500305 -1001.3616333 949.96401978 C-1001.02524841 949.14291718 -1000.68886353 948.32181458 -1000.34228516 947.47583008 C-1000.00260712 946.64669601 -999.66292908 945.81756195 -999.31295776 944.96330261 C-998.61587416 943.26168641 -997.91887398 941.56003603 -997.22195435 939.85835266 C-995.04217829 934.53760225 -992.85606119 929.21950312 -990.66572571 923.90309143 C-980.15210914 898.37990854 -969.87542334 872.77733199 -960 847 C-959.68909424 846.18867615 -959.37818848 845.37735229 -959.05786133 844.54144287 C-943.86761886 804.85500044 -929.9770961 764.70570714 -915.98800659 724.58468628 C-908.70769771 703.70572631 -901.37783764 682.84470059 -894 662 C-893.75583092 661.3100935 -893.51166183 660.620187 -893.26009369 659.90937424 C-887.65461721 644.07284593 -882.0277354 628.2442884 -876.33374023 612.43933105 C-844.97854687 525.40227234 -814.81734286 436.96846579 -798 308 C-798.32871094 309.0415625 -798.65742187 310.083125 -798.99609375 311.15625 C-806.87622616 335.25901642 -821.412591 354.06132733 -839 372 C-839.82306641 372.84353027 -840.64613281 373.68706055 -841.49414062 374.55615234 C-844.21615952 377.33823037 -846.9493959 380.10875555 -849.6875 382.875 C-850.54206787 383.74278076 -851.39663574 384.61056152 -852.27709961 385.50463867 C-857.46547018 390.69897689 -862.84990209 395.45309274 -868.57836914 400.04394531 C-871.29746237 402.24027306 -873.83575807 404.53745239 -876.375 406.9375 C-882.29066483 412.36158142 -888.57093245 417.2121149 -895 422 C-895.68030273 422.51014648 -896.36060547 423.02029297 -897.06152344 423.54589844 C-915.54729498 437.39573981 -934.44147376 450.70470231 -954 463 C-954.7955127 463.50063965 -955.59102539 464.0012793 -956.41064453 464.51708984 C-969.79882001 472.91989417 -983.35768826 481.01797079 -997 489 C-997.95245605 489.55800293 -998.90491211 490.11600586 -999.88623047 490.69091797 C-1006.91610223 494.80782699 -1013.9552329 498.90863721 -1021 503 C-1022.0523584 503.61133789 -1023.1047168 504.22267578 -1024.18896484 504.85253906 C-1036.98435788 512.27862684 -1049.82914561 519.604045 -1062.75244141 526.80517578 C-1070.80964018 531.30612861 -1078.79025239 535.92834762 -1086.75024414 540.59863281 C-1094.04640008 544.87496932 -1101.3785155 549.08398834 -1108.72781372 553.26797485 C-1117.63411742 558.33851922 -1126.51727494 563.43349706 -1135.27734375 568.75390625 C-1138.15010177 570.49663331 -1141.04216822 572.20403844 -1143.94140625 573.90234375 C-1163.70801923 585.48159166 -1183.05868584 597.61782647 -1202.125 610.3125 C-1202.81397369 610.77059052 -1203.50294739 611.22868103 -1204.21279907 611.70065308 C-1213.60779239 617.95523129 -1222.85655229 624.383461 -1232 631 C-1232.86351074 631.62253662 -1233.72702148 632.24507324 -1234.61669922 632.88647461 C-1245.09678803 640.46658467 -1255.29783712 648.31316863 -1265.25878906 656.56298828 C-1267.7815772 658.64503132 -1270.3309177 660.69406795 -1272.875 662.75 C-1277.26118314 666.34048875 -1281.48915411 670.07838721 -1285.6796875 673.89453125 C-1287.70154184 675.72917685 -1289.74678522 677.52768786 -1291.8125 679.3125 C-1302.03094238 688.26618429 -1311.76029301 697.65729671 -1321.375 707.25 C-1321.89682861 707.76924042 -1322.41865723 708.28848083 -1322.95629883 708.82345581 C-1328.85693068 714.70102021 -1334.61673517 720.63795974 -1340 727 C-1340.88852953 728.02152397 -1341.77780731 729.04239777 -1342.66796875 730.0625 C-1388.71402501 783.74720435 -1422.41098838 848.48744049 -1417.53759766 920.8894043 C-1414.69572063 957.79373579 -1402.93091905 997.13319938 -1375 1023 C-1370.45108346 1026.8660863 -1365.5652834 1030.28142779 -1360.609375 1033.6015625 C-1355.7292466 1036.98150328 -1352.65142055 1040.18412761 -1351 1046 C-1350.18948335 1051.05608006 -1350.06765278 1054.63061501 -1353 1058.9375 C-1358.5283346 1062.73823004 -1363.60965875 1064.85026207 -1370.38671875 1063.76171875 C-1380.55471148 1060.79795405 -1389.15245037 1054.94807966 -1397 1048 C-1397.79664063 1047.32324219 -1398.59328125 1046.64648438 -1399.4140625 1045.94921875 C-1409.53242799 1037.16390776 -1418.83173741 1027.35386878 -1426 1016 C-1426.69480469 1014.91589844 -1427.38960937 1013.83179688 -1428.10546875 1012.71484375 C-1460.45850829 961.20188106 -1465.51356902 898.55872271 -1452.71191406 840.06103516 C-1450.89234646 832.23739364 -1448.56978376 824.60630629 -1446 817 C-1445.74524902 816.23204102 -1445.49049805 815.46408203 -1445.22802734 814.67285156 C-1428.83058468 765.79921995 -1396.35860554 722.03393167 -1361.48632812 684.59960938 C-1359.92695213 682.92138474 -1358.37722392 681.23458737 -1356.828125 679.546875 C-1350.23430636 672.38985241 -1343.49460002 665.39297806 -1336.625 658.5 C-1335.88822021 657.75862793 -1335.15144043 657.01725586 -1334.39233398 656.25341797 C-1330.32165143 652.19420729 -1326.16249654 648.3055483 -1321.78857422 644.57421875 C-1319.94548252 642.95201629 -1318.21859008 641.25286396 -1316.5 639.5 C-1313.51127663 636.46405075 -1310.38293521 633.65491341 -1307.15625 630.875 C-1304.80037042 628.82640906 -1302.4949254 626.72796998 -1300.1875 624.625 C-1295.89391368 620.74966257 -1291.46911998 617.0777869 -1286.97265625 613.44140625 C-1283.66247734 610.72279677 -1280.42525024 607.9289311 -1277.1875 605.125 C-1270.91302866 599.71258497 -1264.47074603 594.55716822 -1257.91748047 589.48779297 C-1255.86710005 587.89688155 -1253.82563094 586.29499999 -1251.78515625 584.69140625 C-1236.26690371 572.51794426 -1220.391572 560.86644107 -1204.23046875 549.5625 C-1201.85843151 547.90082768 -1199.49147826 546.23207836 -1197.125 544.5625 C-1195.43760408 543.37485211 -1193.75010588 542.18734952 -1192.0625 541 C-1190.95660522 540.21882812 -1190.95660522 540.21882812 -1189.82836914 539.421875 C-1183.74407691 535.1519235 -1177.56530356 531.03054269 -1171.37532043 526.91635132 C-1165.43412638 522.96453845 -1159.51670965 518.97878726 -1153.609375 514.9765625 C-1146.15511593 509.92884289 -1138.6995077 504.88319287 -1131.234375 499.8515625 C-1130.37164978 499.26847321 -1129.50892456 498.68538391 -1128.62005615 498.08462524 C-1121.56985691 493.33688002 -1114.40571019 488.78142408 -1107.21885681 484.24420166 C-1101.00925588 480.31181599 -1094.88325198 476.27439422 -1088.80078125 472.1484375 C-1087.87291306 471.52143951 -1086.94504486 470.89444153 -1085.98905945 470.2484436 C-1081.26701757 467.05705163 -1076.5505771 463.85753093 -1071.83789062 460.65234375 C-1062.37310474 454.2263948 -1052.85863276 447.91816273 -1043.14338684 441.87557983 C-1038.30422264 438.86129002 -1033.67983964 435.66213509 -1029.11328125 432.24609375 C-1024.75965244 429.10514448 -1020.28661861 426.15334184 -1015.8125 423.1875 C-1006.81004928 417.21539711 -997.8736117 411.16160257 -989 405 C-987.82655029 404.18813232 -987.82655029 404.18813232 -986.62939453 403.35986328 C-975.90536989 395.93618288 -965.32835033 388.36433533 -954.94433594 380.47216797 C-952.95136229 378.96317361 -950.94986215 377.46623286 -948.9453125 375.97265625 C-925.24723451 358.31337207 -902.2854345 339.67175092 -880.64550781 319.52783203 C-878.79832562 317.81274803 -876.9419064 316.10791362 -875.0859375 314.40234375 C-867.52303297 307.42085654 -860.33800016 300.31574343 -853.48388672 292.63232422 C-851.81001842 290.79101401 -850.09864154 288.98994222 -848.37890625 287.19140625 C-840.86747798 279.32936844 -833.81716563 271.33418866 -827.26318359 262.65722656 C-826.02514139 261.0329841 -824.76217832 259.43215785 -823.48828125 257.8359375 C-810.94083176 242.03126052 -800.69088362 224.65241883 -791.8125 206.5625 C-786.48088768 195.72581538 -781.69254736 187.15314069 -769.8515625 182.76953125 C-756.43594128 179.14915128 -742.42476817 184.15254748 -730.6875 190.6875 C-719.84390803 197.08514285 -710.0570582 205.52606535 -706.08789062 217.82666016 C-705.36928617 220.83141311 -704.78533879 223.83242703 -704.25 226.875 C-704.05535156 227.8546875 -703.86070312 228.834375 -703.66015625 229.84375 C-700.19186791 248.23266133 -699.62398702 266.64817471 -699.6875 285.3125 C-699.68965515 286.45640198 -699.6918103 287.60030396 -699.69403076 288.77886963 C-699.74907928 307.04065889 -700.43049334 324.89802184 -703 343 C-703.09710266 343.69796692 -703.19420532 344.39593384 -703.29425049 345.11505127 C-712.52316309 411.36813931 -729.31724726 476.15836566 -749 540 C-749.25716797 540.83573547 -749.51433594 541.67147095 -749.77929688 542.53253174 C-769.1197256 605.33287906 -792.30867019 666.7164645 -817.21768188 727.49887085 C-837.6055172 777.25557475 -856.83967543 827.4147561 -874.94329834 878.04669189 C-875.98197042 880.94961028 -877.02310552 883.85163372 -878.06494141 886.75341797 C-889.58932645 918.87030061 -900.59100461 951.1584183 -911.47408962 983.49707127 C-913.62549045 989.88921576 -915.7796542 996.28042652 -917.93457031 1002.67138672 C-936.10098774 1056.50517031 -936.10098774 1056.50517031 -954.13671875 1110.3828125 C-954.3641382 1111.06546299 -954.59155766 1111.74811348 -954.82586861 1112.45145035 C-957.01764813 1119.03197872 -959.20541784 1125.61382483 -961.38696289 1132.19775391 C-965.74386882 1145.33127614 -970.190339 1158.43204774 -974.671875 1171.5234375 C-981.58189359 1191.71186721 -988.36662334 1211.94075945 -995.10518646 1232.18698883 C-996.01922039 1234.93273787 -996.9338809 1237.67827751 -997.84869385 1240.42376709 C-1005.12654662 1262.26770612 -1012.37448843 1284.11993446 -1019.4609375 1306.02685547 C-1023.24050227 1317.70723152 -1027.10542701 1329.35749839 -1031 1341 C-1041.79181086 1373.28732554 -1052.24812828 1405.67983499 -1062.59095383 1438.11340332 C-1063.31005067 1440.36732286 -1064.03005055 1442.62095216 -1064.75027466 1444.87451172 C-1065.8898332 1448.44087217 -1067.02653061 1452.00813246 -1068.16104889 1455.5760994 C-1068.5835404 1456.90343498 -1069.0069291 1458.23048537 -1069.43126678 1459.5572319 C-1070.01702005 1461.38939544 -1070.599049 1463.22274841 -1071.1809082 1465.05615234 C-1071.50952347 1466.08783539 -1071.83813873 1467.11951843 -1072.17671204 1468.1824646 C-1072.93513406 1470.77800954 -1073.51739826 1473.34091528 -1074 1476 C-1073.66865303 1475.10752563 -1073.66865303 1475.10752563 -1073.33061218 1474.19702148 C-1061.36430938 1441.98206345 -1049.16548757 1409.88360741 -1036.39013672 1377.97900391 C-1034.34593056 1372.87116596 -1032.31528323 1367.75804883 -1030.28852844 1362.64326477 C-1014.21231064 1322.07606694 -997.2628131 1281.90292111 -979.82897949 1241.90216064 C-979.0641103 1240.14710628 -978.300083 1238.39168506 -977.53613281 1236.63623047 C-964.66664994 1207.09640872 -951.38987852 1177.73305657 -937.67675781 1148.57568359 C-935.97016394 1144.93637465 -934.27586357 1141.29159636 -932.5859375 1137.64453125 C-925.84351088 1123.10431987 -918.96931987 1108.63502135 -911.94384766 1094.22924805 C-911.32317193 1092.9562517 -910.70256722 1091.68322073 -910.08203125 1090.41015625 C-909.6084594 1089.43864624 -909.6084594 1089.43864624 -909.12532043 1088.44750977 C-906.31169377 1082.66400403 -903.54218607 1076.85978056 -900.7734375 1071.0546875 C-894.86816072 1058.68374933 -888.85412391 1046.36732272 -882.8125 1034.0625 C-882.25973389 1032.93612122 -881.70696777 1031.80974243 -881.13745117 1030.64923096 C-872.81498052 1013.69619305 -864.43778714 996.77093387 -856 979.875 C-855.27062729 978.41237228 -855.27062729 978.41237228 -854.52651978 976.92019653 C-849.24813211 966.34105944 -843.88940201 955.81344455 -838.35791016 945.36422729 C-835.491227 939.9479058 -832.70352662 934.49979121 -830 929 C-825.99360342 920.92463165 -821.84569389 912.93381867 -817.625 904.96875 C-815.77544801 901.47702003 -813.94443377 897.97626804 -812.125 894.46875 C-806.6965479 884.00442489 -801.17628999 873.60258846 -795.50048828 863.27026367 C-791.91411734 856.7236487 -788.4348482 850.12722338 -785 843.5 C-779.15935781 832.24400509 -773.11771806 821.10740946 -767 810 C-766.39140137 808.89382324 -765.78280273 807.78764648 -765.15576172 806.64794922 C-761.46181702 799.93477301 -757.76047569 793.22571782 -754.05206299 786.52052307 C-752.38229841 783.50135573 -750.71361379 780.48160791 -749.04833984 777.45996094 C-741.84938508 764.40070761 -734.5457078 751.42034216 -726.98779297 738.56518555 C-723.38924285 732.4296933 -719.89815459 726.24850215 -716.5 720 C-710.85567234 709.63515024 -704.90847172 699.45694064 -698.92724609 689.28369141 C-696.91996809 685.86363958 -694.92195825 682.43825409 -692.92578125 679.01171875 C-685.22441707 665.80261367 -677.42024014 652.66358845 -669.45703125 639.6105957 C-664.54520509 631.55809311 -659.68572431 623.47577571 -654.84777832 615.37869263 C-648.22126017 604.29225935 -641.4770842 593.29591285 -634.52783203 582.40820312 C-632.21171368 578.75748541 -629.929138 575.08605285 -627.64379883 571.41601562 C-597.12286502 522.40625005 -565.12373535 474.28766648 -532 427 C-531.45504883 426.22188965 -530.91009766 425.4437793 -530.34863281 424.64208984 C-523.20162978 414.44966692 -515.94094301 404.34189522 -508.63671875 394.26171875 C-507.01490936 392.02060267 -505.39734868 389.77648685 -503.78125 387.53125 C-488.34881279 366.09783014 -472.58784448 344.91641252 -456.5078125 323.96484375 C-455.11860301 322.15455263 -453.7309808 320.3430575 -452.34375 318.53125 C-443.66859919 307.21200141 -434.85999035 296.01176949 -425.83886719 284.96606445 C-422.31556439 280.64443179 -418.85871142 276.27768617 -415.4375 271.875 C-411.22115945 266.46046861 -406.82865834 261.22435526 -402.33740234 256.03637695 C-399.35432845 252.5893446 -396.43044536 249.10679811 -393.5625 245.5625 C-385.66980933 235.85062292 -377.37843891 226.46402258 -368.9765625 217.19140625 C-367.13043439 215.14461204 -365.31006716 213.07868443 -363.5 211 C-360.14139536 207.14611726 -356.72653334 203.34501759 -353.30078125 199.55078125 C-351.8358989 197.92672663 -350.37456169 196.29946215 -348.91796875 194.66796875 C-339.93444286 184.61775333 -330.85298924 174.59703887 -321.16015625 165.22265625 C-319.34277011 163.35268751 -317.65550704 161.44773345 -315.9609375 159.46875 C-311.56254473 154.40640462 -306.83376484 149.68349443 -302.0847168 144.9543457 C-300.56508332 143.4400742 -299.05087483 141.9205257 -297.53710938 140.40039062 C-292.73681283 135.59715278 -287.88017698 130.91876179 -282.71850586 126.50024414 C-280.18062453 124.28469069 -277.85385406 121.91057344 -275.5 119.5 C-271.82136038 115.77132378 -268.06683577 112.20125598 -264.08203125 108.80078125 C-261.56846422 106.62675798 -259.13223771 104.37609512 -256.6875 102.125 C-252.22126486 98.05140091 -247.63078621 94.19172297 -242.92578125 90.3984375 C-240.2775061 88.22748831 -237.68817518 86.00677283 -235.10717773 83.75732422 C-227.36552569 77.0206139 -219.32186641 70.75466412 -211.1171875 64.59375 C-209.08137076 63.06125327 -207.05516122 61.51692113 -205.03125 59.96875 C-183.53080093 43.58335963 -160.88834272 28.6713995 -137 16 C-136.3503125 15.65517578 -135.700625 15.31035156 -135.03125 14.95507812 C-117.11371395 5.53735682 -98.53394351 -2.62071795 -79 -8 C-78.28102539 -8.20882812 -77.56205078 -8.41765625 -76.82128906 -8.6328125 C-50.6265435 -16.12718968 -24.05263715 -12.26275523 0 0 Z M-1077 1481 C-1076 1484 -1076 1484 -1076 1484 Z M-1078 1484 C-1077 1487 -1077 1487 -1077 1487 Z M-1079 1487 C-1078 1489 -1078 1489 -1078 1489 Z M-1080 1490 C-1079 1492 -1079 1492 -1079 1492 Z M-1081 1493 C-1080 1495 -1080 1495 -1080 1495 Z M-1082 1496 C-1081 1498 -1081 1498 -1081 1498 Z " fill="#1C94F6" transform="translate(1545,206)"/>
</svg>
