<svg width="720" height="720" xmlns="http://www.w3.org/2000/svg" xmlns:xlink="http://www.w3.org/1999/xlink" xml:space="preserve" overflow="hidden"><g transform="translate(-280 0)"><path d="M874.353 562.5 437.5 125.685 437.5 67.5 347.5 67.5 347.5 157.5 370 157.5 370 562.5 347.5 562.5 347.5 652.5 437.5 652.5 437.5 630 842.5 630 842.5 652.5 932.5 652.5 932.5 562.5ZM833.208 585 565 585 565 435 415 435 415 166.822ZM377.5 97.5 407.5 97.5 407.5 127.5 377.5 127.5ZM407.5 622.5 377.5 622.5 377.5 592.5 407.5 592.5ZM415 562.5 415 480 520 480 520 585 437.5 585 437.5 562.5ZM902.5 622.5 872.5 622.5 872.5 592.5 902.5 592.5Z" fill="#1D95F8"/></g></svg>