<?xml version="1.0" standalone="no"?>
<!DOCTYPE svg PUBLIC "-//W3C//DTD SVG 20010904//EN"
 "http://www.w3.org/TR/2001/REC-SVG-20010904/DTD/svg10.dtd">
<svg version="1.0" xmlns="http://www.w3.org/2000/svg"
 width="800px" height="800px" viewBox="0 0 180 180"
 preserveAspectRatio="xMidYMid meet">
<metadata>
Created by potrace 1.14, written by Peter Selinger 2001-2017
</metadata>
<g transform="translate(-37,230) scale(0.15,-0.15)"
fill="#1d95f8" stroke="none">
<path d="M780 1459 c-85 -46 -210 -136 -210 -151 0 -18 21 -48 33 -48 7 0 28
11 47 23 88 60 132 35 109 -61 -43 -175 -238 -566 -317 -636 -22 -19 -22 -19
-22 2 0 32 15 63 54 115 38 50 45 74 23 83 -58 22 -194 -168 -212 -297 -13
-92 36 -148 105 -119 88 37 245 297 367 610 31 80 59 149 63 153 15 17 102
-370 130 -575 18 -130 37 -129 117 6 167 282 295 606 310 777 7 93 0 124 -32
145 -43 28 -100 -2 -195 -103 -68 -73 -78 -88 -69 -105 18 -33 37 -32 80 7 22
20 46 34 52 32 41 -13 43 -112 6 -234 -21 -65 -113 -281 -127 -295 -5 -5 -16
36 -26 89 -47 258 -160 607 -201 620 -6 1 -44 -16 -85 -38z"/>
</g>
</svg>
