<svg width="720" height="720" xmlns="http://www.w3.org/2000/svg" xmlns:xlink="http://www.w3.org/1999/xlink" xml:space="preserve" overflow="hidden"><g transform="translate(-280 0)"><path d="M677.5 52.5C677.5 64.9275 667.427 75 655 75 642.573 75 632.5 64.9275 632.5 52.5 632.5 40.0725 642.573 30 655 30 667.427 30 677.5 40.0725 677.5 52.5Z" fill="#1D95F8"/><path d="M715 120C715 132.427 704.927 142.5 692.5 142.5 680.073 142.5 670 132.427 670 120 670 107.573 680.073 97.5 692.5 97.5 704.927 97.5 715 107.573 715 120Z" fill="#1D95F8"/><path d="M632.5 105C632.5 117.427 622.427 127.5 610 127.5 597.573 127.5 587.5 117.427 587.5 105 587.5 92.5725 597.573 82.5 610 82.5 622.427 82.5 632.5 92.5725 632.5 105Z" fill="#1D95F8"/><path d="M655 187.5C655 204.068 641.567 217.5 625 217.5 608.433 217.5 595 204.068 595 187.5 595 170.932 608.433 157.5 625 157.5 641.567 157.5 655 170.932 655 187.5Z" fill="#1D95F8"/><path d="M786.25 627 700 432 700 300C700 273 721.75 261.75 722.5 261 730 257.25 733 248.25 729.25 240.75 726.25 235.5 721 232.5 715 232.5L715 232.5 565 232.5 565 232.5C559 232.5 553.75 235.5 550.75 240.75 547 248.25 550 257.25 557.5 261 557.5 261 580 273 580 300L580 432 493.75 627C487.75 641.25 489.25 657 497.5 669.75 505.75 682.5 520 690 535 690L745 690C760 690 774.25 682.5 782.5 669.75 790.75 657 792.25 641.25 786.25 627ZM670 300 670 330 610 330 610 300C610 284.25 605.5 272.25 600.25 262.5L680.5 262.5C674.5 272.25 670 284.25 670 300Z" fill="#1D95F8"/></g></svg>