<svg width="720" height="720" xmlns="http://www.w3.org/2000/svg" xmlns:xlink="http://www.w3.org/1999/xlink" xml:space="preserve" overflow="hidden"><g transform="translate(-280 0)"><path d="M959.125 600 666.025 90C657.783 75.627 639.45 70.6563 625.077 78.8978 620.456 81.5475 616.625 85.3792 613.975 90L320.875 600C312.591 614.349 317.507 632.696 331.856 640.981 336.407 643.609 341.569 644.995 346.825 645L933.175 645C949.743 644.983 963.161 631.538 963.144 614.969 963.139 609.713 961.753 604.552 959.125 600ZM720.025 548.775 695.725 548.775 716.65 517.5 670 530.475 680.725 470.475 647.8 530.475 638.05 435.9 622.075 525.9 604.525 496.5 606.1 533.325 562.9 510 584.05 548.55 550 548.55 483.175 495.45 543.775 502.425 490 415.8 581.275 471.6 565 364.875 610 458.25 638.725 269.025 656.275 439.05 742.525 344.25 696.25 465.675 780.025 441.975 732.475 513.225 791.5 520.725Z" fill="#1D95F8"/></g></svg>