<svg width="328" height="316" xmlns="http://www.w3.org/2000/svg" xmlns:xlink="http://www.w3.org/1999/xlink" xml:space="preserve" overflow="hidden"><defs><clipPath id="clip0"><rect x="476" y="202" width="328" height="316"/></clipPath><clipPath id="clip1"><rect x="476" y="211" width="328" height="307"/></clipPath></defs><g clip-path="url(#clip0)" transform="translate(-476 -202)"><g clip-path="url(#clip1)"><g><path d="M337.679 329.677 338.367 329.687 339.065 329.707 339.754 329.737 340.442 329.767 341.121 329.817 341.799 329.857 342.467 329.917 343.126 329.977 343.784 330.047 344.423 330.126 345.041 330.206 345.66 330.296 346.259 330.386 346.837 330.486 347.406 330.595 347.945 330.715 348.473 330.835 348.982 330.964 349.461 331.094 350.399 331.393 351.327 331.723 352.245 332.072 353.152 332.451 354.06 332.85 354.948 333.279 355.836 333.728 356.704 334.207 357.572 334.706 358.42 335.234 359.258 335.783 360.086 336.352 360.904 336.94 361.702 337.549 362.491 338.187 363.269 338.846 364.027 339.514 364.775 340.213 365.503 340.921 366.222 341.659 366.92 342.408 367.599 343.176 368.267 343.964 368.915 344.762 369.544 345.58 370.153 346.418 370.751 347.266 371.32 348.134 371.879 349.012 372.417 349.9 372.926 350.808 373.425 351.726 373.894 352.664 374.343 353.611 374.772 354.569 375.181 355.537 375.57 356.515 375.929 357.502 376.258 358.5 376.577 359.508 376.767 360.196 376.947 360.914 377.106 361.652 377.266 362.421 377.416 363.199 377.555 363.997 377.675 364.815 377.795 365.653 377.894 366.501 377.994 367.359 378.074 368.227 378.154 369.115 378.214 370.003 378.264 370.901 378.303 371.809 378.333 372.717 378.363 373.624 378.373 374.542 378.373 375.46 378.353 376.368 378.333 377.286 378.303 378.194 378.264 379.102 378.204 379.99 378.144 380.887 378.074 381.765 377.984 382.633 377.894 383.491 377.785 384.339 377.665 385.167 377.545 385.975 377.406 386.774 377.256 387.552 377.096 388.31 376.927 389.048 376.747 389.757 376.558 390.445 376.358 391.103 376.148 391.742 375.929 392.351 375.38 393.757 374.802 395.134 374.193 396.471 373.565 397.778 372.896 399.045 372.208 400.272 371.489 401.479 370.751 402.636 369.983 403.764 369.185 404.851 368.357 405.909 367.509 406.926 366.631 407.904 365.733 408.852 364.805 409.76 363.857 410.628 362.88 411.466 361.882 412.254 360.854 413.012 359.807 413.74 358.729 414.419 357.632 415.057 356.515 415.666 355.367 416.235 354.2 416.763 353.013 417.252 351.806 417.701 350.568 418.11 349.311 418.479 348.034 418.809 346.737 419.098 345.421 419.347 344.074 419.567 342.717 419.736 341.33 419.866 339.933 419.946 338.507 419.996 337.06 420.006 335.604 419.966 334.117 419.896 332.391 419.756 330.705 419.567 329.039 419.307 327.413 418.998 325.816 418.629 324.25 418.2 322.724 417.721 321.237 417.182 319.781 416.594 318.364 415.945 316.987 415.247 315.64 414.489 314.343 413.691 313.076 412.833 311.849 411.935 310.662 410.977 309.525 409.979 308.417 408.932 307.36 407.834 306.342 406.687 305.374 405.5 304.447 404.263 303.559 402.986 302.721 401.659 301.932 400.292 301.184 398.885 300.486 397.439 299.837 395.952 299.229 394.426 298.68 392.849 298.181 391.243 297.722 389.597 297.323 387.921 296.974 386.205 296.675 384.449 296.425 382.663 296.236 380.838 296.096 378.982 296.016 377.096 295.986 375.171 296.006 373.525 296.066 371.898 296.166 370.292 296.296 368.726 296.475 367.17 296.685 365.643 296.934 364.147 297.223 362.67 297.553 361.223 297.922 359.807 298.321 358.41 298.76 357.043 299.229 355.706 299.738 354.399 300.286 353.112 300.875 351.855 301.493 350.628 302.152 349.431 302.84 348.264 303.569 347.127 304.327 346.019 305.125 344.932 305.953 343.884 306.811 342.867 307.719 341.879 308.647 340.931 309.614 340.003 310.612 339.105 311.65 338.247 312.717 337.419 313.815 336.621 314.942 335.863 316.109 335.135 317.306 334.436 318.534 333.778 319.801 333.149 321.088 332.561 322.414 332.002 323.771 331.473 325.158 330.984 325.577 330.855 326.016 330.725 326.485 330.605 326.984 330.495 327.493 330.386 328.031 330.296 328.58 330.206 329.159 330.116 329.747 330.047 330.346 329.977 330.974 329.907 331.603 329.857 332.251 329.807 332.9 329.767 333.568 329.727 334.237 329.707 334.915 329.687 335.604 329.667 336.292 329.667 336.98 329.667 337.679 329.677ZM645.777 417.841 638.973 417.522 638.753 386.734 638.733 385.467 638.723 384.21 638.703 382.963 638.693 381.725 638.673 380.508 638.663 379.301 638.643 378.114 638.633 376.937 638.623 375.789 638.613 374.652 638.594 373.535 638.583 372.437 638.574 371.37 638.564 370.312 638.554 369.295 638.544 368.287 638.534 367.319 638.524 366.371 638.514 365.444 638.514 364.556 638.504 363.698 638.494 362.87 638.484 362.072 638.484 361.313 638.474 360.585 638.464 359.897 638.464 359.238 638.454 358.62 638.454 358.041 638.444 357.502 638.444 357.003 638.444 356.544 638.434 356.135 638.434 355.766 638.434 355.447 638.434 355.168 638.434 354.938 638.424 354.749 638.424 354.619 638.424 354.539 638.424 354.37 638.414 354.22 638.394 354.08 638.374 353.951 638.344 353.831 638.314 353.721 638.274 353.631 638.234 353.541 638.184 353.462 638.135 353.402 638.075 353.342 638.015 353.302 637.945 353.262 637.885 353.242 637.815 353.232 637.735 353.222 637.666 353.222 637.586 353.242 637.506 353.262 637.426 353.292 637.346 353.332 637.267 353.382 637.177 353.442 637.097 353.512 637.017 353.591 636.927 353.671 636.848 353.761 636.768 353.861 636.688 353.97 636.608 354.08 636.528 354.2 636.448 354.33 636.379 354.469 636.309 354.619 636.239 354.769 636.169 354.918 636.109 355.088 636.049 355.257 635.99 355.437 635.94 355.617 635.92 355.736 635.88 355.866 635.84 356.006 635.8 356.175 635.75 356.345 635.69 356.544 635.63 356.744 635.561 356.973 635.491 357.203 635.421 357.452 635.331 357.712 635.251 357.981 635.162 358.27 635.062 358.57 634.962 358.869 634.862 359.188 634.752 359.517 634.643 359.857 634.523 360.206 634.403 360.565 634.284 360.924 634.154 361.293 634.024 361.682 633.894 362.062 633.755 362.461 633.615 362.86 633.475 363.269 633.326 363.678 633.176 364.097 633.027 364.516 632.877 364.945 632.717 365.374 632.558 365.813 632.398 366.252 632.238 366.691 632.079 367.13 631.909 367.569 631.74 368.018 631.58 368.457 631.41 368.905 631.241 369.354 631.081 369.793 630.921 370.242 630.752 370.691 630.592 371.13 630.433 371.569 630.273 372.008 630.113 372.447 629.954 372.876 629.794 373.305 629.644 373.734 629.485 374.153 629.335 374.572 629.185 374.981 629.036 375.39 628.886 375.789 628.747 376.178 628.597 376.568 628.467 376.947 628.328 377.316 628.198 377.685 628.068 378.034 627.938 378.383 627.819 378.712 627.699 379.042 627.589 379.351 627.48 379.66 627.38 379.95 627.28 380.229 627.18 380.498 627.09 380.748 627.011 380.997 626.931 381.227 626.861 381.436 626.791 381.636 626.731 381.825 626.671 381.995 626.622 382.144 626.582 382.284 626.542 382.404 626.452 382.673 626.392 382.823 626.332 382.992 626.272 383.182 626.203 383.382 626.123 383.591 626.043 383.821 625.953 384.07 625.863 384.319 625.764 384.589 625.664 384.868 625.564 385.157 625.454 385.467 625.335 385.776 625.225 386.105 625.105 386.434 624.975 386.784 624.856 387.133 624.726 387.502 624.586 387.871 624.457 388.25 624.317 388.639 624.177 389.028 624.028 389.427 623.878 389.836 623.738 390.245 623.589 390.664 623.429 391.083 623.279 391.512 623.12 391.941 622.97 392.371 622.81 392.809 622.651 393.248 622.491 393.687 622.332 394.126 622.172 394.575 622.012 395.024 621.843 395.463 621.523 396.361 621.354 396.81 621.194 397.269 621.025 397.728 620.855 398.187 620.685 398.656 620.516 399.125 620.356 399.584 620.187 400.052 620.017 400.521 619.847 400.99 619.678 401.459 619.508 401.928 619.339 402.387 619.169 402.856 619.009 403.315 618.84 403.764 618.68 404.223 618.521 404.662 618.361 405.111 618.201 405.54 618.052 405.979 617.902 406.398 617.752 406.817 617.603 407.226 617.453 407.625 617.313 408.024 617.174 408.403 617.044 408.782 616.914 409.141 616.785 409.5 616.665 409.84 616.545 410.169 616.435 410.488 616.326 410.797 616.216 411.087 616.116 411.366 616.026 411.635 615.937 411.885 615.847 412.114 614.011 417.522 608.185 417.841 607.945 417.861 607.716 417.871 607.476 417.881 607.247 417.891 607.017 417.901 606.788 417.911 606.569 417.911 606.349 417.921 606.12 417.921 605.91 417.921 605.691 417.921 605.481 417.921 605.272 417.921 605.062 417.911 604.863 417.911 604.663 417.901 604.473 417.891 604.284 417.881 604.094 417.871 603.915 417.851 603.735 417.841 603.566 417.821 603.406 417.801 603.246 417.791 603.087 417.761 602.937 417.741 602.797 417.721 602.658 417.701 602.528 417.671 602.408 417.641 602.289 417.611 602.179 417.581 602.079 417.551 601.989 417.522 601.899 417.492 601.82 417.452 601.75 417.412 601.69 417.382 601.64 417.342 601.59 417.302 601.55 417.252 601.51 417.192 601.461 417.103 601.401 416.983 601.331 416.853 601.251 416.694 601.171 416.514 601.081 416.324 600.982 416.105 600.882 415.865 600.772 415.616 600.652 415.337 600.533 415.047 600.403 414.738 600.263 414.419 600.134 414.08 599.984 413.72 599.834 413.351 599.685 412.962 599.525 412.563 599.365 412.144 599.196 411.725 599.026 411.276 598.857 410.827 598.677 410.368 598.497 409.889 598.318 409.411 598.128 408.912 597.939 408.413 597.749 407.894 597.56 407.375 597.36 406.847 597.161 406.308 596.961 405.769 596.761 405.22 596.562 404.662 596.362 404.103 596.163 403.534 595.963 402.966 595.754 402.397 595.245 400.95 594.726 399.494 594.207 398.027 593.679 396.551 593.15 395.074 592.611 393.588 592.082 392.091 591.544 390.605 591.015 389.108 590.486 387.622 589.957 386.145 589.429 384.678 588.9 383.212 588.381 381.765 587.872 380.329 587.364 378.912 586.855 377.515 586.366 376.139 585.877 374.782 585.398 373.455 584.929 372.158 584.48 370.881 584.031 369.644 583.602 368.447 583.183 367.279 582.774 366.142 582.385 365.055 582.016 364.017 581.657 363.009 581.308 362.062 580.988 361.154 580.679 360.306 580.4 359.508 580.13 358.769 579.891 358.081 579.662 357.462 579.472 356.904 579.292 356.405 579.143 355.976 579.013 355.617 578.943 355.417 578.873 355.228 578.804 355.048 578.734 354.868 578.664 354.709 578.594 354.549 578.534 354.399 578.464 354.25 578.405 354.12 578.345 353.99 578.275 353.871 578.215 353.761 578.155 353.651 578.095 353.551 578.035 353.462 577.986 353.382 577.926 353.302 577.866 353.232 577.816 353.172 577.756 353.122 577.706 353.073 577.646 353.033 577.596 353.003 577.547 352.973 577.497 352.953 577.437 352.943 577.387 352.933 577.337 352.933 577.287 352.943 577.237 352.963 577.187 352.983 577.138 353.013 577.088 353.043 577.038 353.083 576.988 353.132 576.938 353.182 576.888 353.242 576.838 353.312 576.798 353.382 576.748 353.462 576.708 353.541 576.669 353.671 576.629 353.861 576.589 354.1 576.549 354.38 576.509 354.709 576.469 355.088 576.439 355.517 576.399 355.986 576.369 356.495 576.329 357.043 576.299 357.642 576.26 358.27 576.23 358.949 576.2 359.657 576.17 360.405 576.14 361.184 576.11 362.002 576.08 362.85 576.06 363.738 576.03 364.645 576.01 365.593 575.98 366.561 575.96 367.559 575.94 368.586 575.92 369.634 575.9 370.711 575.88 371.809 575.861 372.926 575.851 374.073 575.831 375.231 575.821 376.418 575.811 377.615 575.801 378.832 575.791 380.059 575.791 381.306 575.781 382.563 575.781 383.831 575.771 385.117 575.771 386.404 575.771 418.06 562.811 418.06 562.811 331.533 573.286 331.852 583.662 332.182 587.224 342.438 587.374 342.876 587.533 343.335 587.703 343.824 587.882 344.343 588.072 344.882 588.261 345.44 588.461 346.029 588.67 346.638 588.89 347.266 589.109 347.905 589.349 348.573 589.578 349.252 589.818 349.96 590.067 350.668 590.327 351.406 590.576 352.145 590.845 352.903 591.105 353.671 591.374 354.449 591.653 355.238 591.933 356.036 592.212 356.844 592.492 357.662 592.781 358.48 593.06 359.298 593.349 360.126 593.639 360.964 593.928 361.792 594.227 362.63 594.517 363.468 594.806 364.296 595.095 365.134 595.385 365.962 595.674 366.78 595.963 367.609 596.253 368.417 596.542 369.225 596.821 370.033 597.101 370.821 597.38 371.609 597.649 372.387 597.929 373.156 598.198 373.934 598.468 374.702 598.737 375.46 599.006 376.228 599.276 376.977 599.535 377.725 599.794 378.473 600.054 379.201 600.303 379.93 600.553 380.638 600.802 381.346 601.042 382.045 601.281 382.723 601.51 383.401 601.74 384.06 601.959 384.698 602.179 385.327 602.388 385.946 602.598 386.544 602.797 387.133 602.987 387.691 603.177 388.24 603.356 388.769 603.526 389.278 603.685 389.767 603.845 390.235 603.995 390.684 604.134 391.113 604.274 391.512 604.394 391.892 604.513 392.241 604.613 392.57 604.713 392.869 604.803 393.149 604.882 393.398 604.942 393.618 605.002 393.807 605.052 393.967 605.122 394.216 605.202 394.456 605.282 394.695 605.361 394.934 605.441 395.154 605.531 395.383 605.621 395.593 605.711 395.802 605.8 396.012 605.9 396.212 605.99 396.401 606.09 396.581 606.189 396.76 606.289 396.93 606.389 397.089 606.489 397.249 606.589 397.389 606.688 397.528 606.798 397.668 606.898 397.788 606.997 397.908 607.107 398.007 607.207 398.107 607.307 398.197 607.417 398.277 607.516 398.346 607.616 398.416 607.716 398.466 607.816 398.506 607.915 398.536 608.015 398.566 608.115 398.576 608.215 398.576 608.304 398.566 608.394 398.546 608.484 398.516 608.574 398.476 608.664 398.426 608.743 398.366 608.833 398.287 608.893 398.167 609.003 397.888 609.172 397.459 609.402 396.87 609.671 396.142 609.981 395.284 610.34 394.296 610.739 393.189 611.178 391.971 611.647 390.645 612.155 389.228 612.684 387.711 613.253 386.115 613.841 384.449 614.45 382.703 615.079 380.907 615.727 379.052 616.396 377.146 617.064 375.201 617.752 373.225 618.451 371.23 619.149 369.205 619.847 367.18 620.546 365.144 621.244 363.119 621.943 361.104 622.631 359.108 623.299 357.133 623.968 355.188 624.616 353.292 625.245 351.436 625.853 349.641 626.432 347.905 627.001 346.249 627.529 344.652 628.028 343.156 628.497 341.739 628.926 340.422 629.325 339.215 629.674 338.118 631.62 332.182 642.105 331.852 652.471 331.533 652.471 418.16 645.777 417.841ZM455.652 417.841 447.761 417.522 438.043 402.068 437.634 401.419 437.225 400.751 436.796 400.062 436.357 399.354 435.908 398.636 435.45 397.898 434.981 397.149 434.502 396.381 434.023 395.613 433.534 394.825 433.035 394.027 432.526 393.219 432.018 392.4 431.509 391.582 430.99 390.754 430.461 389.916 429.942 389.078 429.414 388.24 428.885 387.402 428.356 386.554 427.827 385.706 427.299 384.868 426.78 384.02 426.251 383.182 425.722 382.354 425.204 381.516 424.695 380.698 424.176 379.88 423.667 379.062 423.168 378.264 422.669 377.475 422.181 376.697 421.702 375.919 421.233 375.171 420.764 374.423 420.315 373.694 419.866 372.986 419.427 372.288 419.008 371.619 418.599 370.961 418.2 370.322 417.811 369.694 417.412 369.065 417.033 368.447 416.644 367.838 416.264 367.239 415.885 366.651 415.516 366.062 415.147 365.493 414.788 364.925 414.429 364.376 414.08 363.837 413.74 363.309 413.401 362.79 413.072 362.281 412.743 361.792 412.433 361.323 412.124 360.854 411.825 360.415 411.536 359.976 411.256 359.567 410.987 359.168 410.717 358.779 410.468 358.42 410.229 358.071 409.999 357.742 409.78 357.442 409.57 357.153 409.381 356.884 409.191 356.634 409.021 356.405 408.862 356.205 408.722 356.016 408.592 355.856 408.473 355.716 408.373 355.607 408.283 355.517 408.213 355.457 408.163 355.417 408.114 355.407 408.084 355.427 408.054 355.507 408.024 355.637 407.984 355.806 407.954 356.036 407.914 356.305 407.884 356.624 407.854 356.983 407.814 357.392 407.784 357.841 407.744 358.34 407.715 358.869 407.685 359.448 407.645 360.056 407.615 360.715 407.585 361.403 407.555 362.121 407.515 362.88 407.485 363.678 407.455 364.506 407.425 365.364 407.395 366.252 407.365 367.17 407.345 368.117 407.315 369.095 407.286 370.103 407.266 371.13 407.236 372.178 407.216 373.255 407.196 374.363 407.166 375.48 407.146 376.627 407.136 377.795 407.116 378.972 407.096 380.169 407.086 381.386 407.066 382.623 407.056 383.87 407.046 385.127 407.036 386.404 406.717 417.522 393.747 417.522 393.428 374.522 393.209 331.633 401.31 331.633 401.848 331.633 402.347 331.643 402.836 331.643 403.295 331.643 403.744 331.653 404.163 331.653 404.562 331.663 404.941 331.673 405.31 331.693 405.649 331.703 405.979 331.723 406.288 331.743 406.577 331.763 406.857 331.792 407.116 331.822 407.365 331.852 407.605 331.882 407.824 331.922 408.034 331.972 408.223 332.012 408.413 332.062 408.583 332.122 408.752 332.182 408.902 332.241 409.051 332.311 409.191 332.381 409.321 332.461 409.44 332.551 409.56 332.64 409.67 332.73 409.77 332.83 409.879 332.94 409.969 333.049 410.069 333.169 410.159 333.289 410.249 333.419 410.338 333.558 410.428 333.708 410.518 333.858 410.608 334.017 410.717 334.237 410.887 334.536 411.107 334.925 411.376 335.384 411.685 335.923 412.044 336.531 412.453 337.21 412.902 337.958 413.391 338.776 413.93 339.664 414.499 340.602 415.107 341.609 415.756 342.667 416.434 343.784 417.142 344.952 417.891 346.169 418.669 347.426 419.467 348.743 420.305 350.09 421.163 351.486 422.041 352.923 422.949 354.389 423.877 355.886 424.824 357.422 425.792 358.989 426.78 360.575 427.778 362.191 428.795 363.827 429.823 365.483 430.87 367.16 431.918 368.846 432.975 370.552 434.043 372.268 435.12 373.984 436.198 375.71 437.275 377.445 438.363 379.171 439.44 380.907 440.528 382.633 441.605 384.349 441.894 384.808 442.184 385.247 442.473 385.696 442.752 386.125 443.032 386.554 443.301 386.983 443.58 387.402 443.84 387.811 444.109 388.21 444.369 388.609 444.618 388.988 444.867 389.368 445.107 389.737 445.346 390.106 445.586 390.455 445.805 390.794 446.035 391.123 446.244 391.443 446.454 391.752 446.653 392.051 446.853 392.331 447.042 392.61 447.222 392.869 447.392 393.119 447.561 393.358 447.711 393.578 447.86 393.787 448 393.977 448.14 394.156 448.26 394.316 448.369 394.466 448.479 394.595 448.569 394.715 448.659 394.815 448.738 394.895 448.798 394.964 448.858 395.014 448.898 395.044 448.928 395.054 448.948 395.044 448.978 395.004 448.998 394.915 449.028 394.765 449.048 394.575 449.068 394.326 449.088 394.037 449.118 393.707 449.137 393.318 449.157 392.899 449.177 392.43 449.197 391.912 449.217 391.363 449.237 390.764 449.257 390.136 449.277 389.467 449.297 388.759 449.317 388.021 449.337 387.242 449.357 386.424 449.367 385.586 449.387 384.708 449.407 383.801 449.427 382.863 449.447 381.895 449.457 380.897 449.477 379.88 449.497 378.832 449.507 377.765 449.527 376.677 449.547 375.56 449.556 374.423 449.576 373.265 449.596 372.088 449.606 370.891 449.626 369.674 449.646 368.447 449.656 367.209 449.676 365.952 449.696 364.675 449.706 363.398 449.926 332.182 456.73 331.852 463.424 331.533 463.424 418.16 455.652 417.841ZM69.6767 342.976 42.67 344.064 41.5925 417.522 34.8882 417.841 28.0842 418.16 28.0842 381.546 28.0842 379.161 28.0842 376.877 28.0842 374.692 28.0742 372.607 28.0742 370.621 28.0642 368.736 28.0642 366.93 28.0543 365.224 28.0443 363.598 28.0243 362.062 28.0143 360.605 27.9944 359.238 27.9844 357.941 27.9645 356.714 27.9345 355.567 27.9146 354.499 27.8847 353.492 27.8547 352.554 27.8248 351.676 27.7849 350.868 27.755 350.11 27.7151 349.421 27.6652 348.783 27.6153 348.194 27.5654 347.655 27.5155 347.166 27.4557 346.727 27.3958 346.338 27.3359 345.979 27.2661 345.66 27.1963 345.381 27.1165 345.141 27.0366 344.932 26.9568 344.752 26.867 344.592 26.7772 344.463 26.6775 344.363 26.5777 344.283 26.468 344.213 26.3582 344.163 26.2784 344.144 26.1687 344.124 26.049 344.094 25.9093 344.074 25.7596 344.044 25.5801 344.024 25.3905 344.004 25.181 343.974 24.9515 343.954 24.7121 343.934 24.4527 343.904 24.1833 343.884 23.894 343.864 23.5947 343.844 23.2854 343.824 22.9562 343.804 22.617 343.774 22.2678 343.764 21.8987 343.744 21.5196 343.724 21.1405 343.705 20.7414 343.685 20.3324 343.675 19.9133 343.655 19.4943 343.635 19.0553 343.625 18.6164 343.615 18.1674 343.595 17.7085 343.585 17.2396 343.575 16.7707 343.565 16.2918 343.555 15.8129 343.545 15.3241 343.545 14.8352 343.535 14.3364 343.525 13.8376 343.525 13.3288 343.525 12.82 343.525 12.3111 343.515 0 343.515 0 331.633 70.3252 331.633 69.996 337.25 69.6767 342.976ZM482.868 331.643 483.427 331.643 483.946 331.643 484.445 331.643 484.914 331.653 485.363 331.663 485.792 331.673 486.191 331.683 486.57 331.693 486.919 331.713 487.258 331.733 487.577 331.763 487.877 331.792 488.156 331.822 488.415 331.852 488.665 331.892 488.894 331.942 489.114 331.992 489.313 332.042 489.503 332.102 489.682 332.162 489.852 332.241 490.002 332.311 490.151 332.401 490.291 332.481 490.421 332.581 490.55 332.68 490.67 332.79 490.78 332.91 490.89 333.04 490.999 333.169 491.099 333.309 491.209 333.459 491.309 333.618 491.408 333.788 491.518 333.967 491.618 334.157 491.728 334.346 491.837 334.556 492.296 335.444 492.785 336.372 493.304 337.329 493.853 338.327 494.421 339.355 495.01 340.402 495.619 341.48 496.247 342.577 496.886 343.695 497.544 344.822 498.202 345.959 498.881 347.097 499.569 348.254 500.258 349.401 500.946 350.548 501.644 351.686 502.333 352.823 503.031 353.951 503.72 355.058 504.398 356.145 505.066 357.213 505.725 358.26 506.373 359.278 507.012 360.256 507.63 361.214 508.229 362.121 508.808 362.999 509.366 363.827 509.895 364.616 510.404 365.344 510.873 366.022 511.322 366.651 511.741 367.209 512.12 367.718 512.459 368.147 512.758 368.516 513.028 368.816 513.247 369.035 513.417 369.175 513.547 369.225 513.626 369.245 513.696 369.255 513.766 369.265 513.836 369.275 513.906 369.285 513.976 369.295 514.035 369.295 514.105 369.295 514.165 369.295 514.235 369.295 514.295 369.295 514.355 369.285 514.414 369.275 514.464 369.265 514.524 369.255 514.584 369.245 514.634 369.225 514.684 369.215 514.734 369.195 514.784 369.175 514.824 369.155 514.873 369.135 514.913 369.105 514.953 369.085 514.993 369.055 515.023 369.025 515.063 368.995 515.093 368.965 515.123 368.925 515.143 368.896 515.173 368.856 515.193 368.826 515.213 368.786 515.233 368.746 515.243 368.696 515.253 368.656 515.262 368.616 515.272 368.566 515.282 368.516 515.282 368.476 515.282 368.417 515.292 368.347 515.302 368.277 515.312 368.207 515.332 368.117 515.352 368.038 515.382 367.948 515.412 367.848 515.452 367.748 515.482 367.648 515.532 367.539 515.572 367.429 515.622 367.309 515.672 367.189 515.731 367.06 515.791 366.94 515.851 366.81 515.911 366.671 515.981 366.531 516.051 366.391 516.12 366.252 516.2 366.102 516.27 365.952 516.35 365.803 516.43 365.653 516.52 365.493 516.609 365.344 516.689 365.184 516.779 365.025 516.879 364.855 516.969 364.695 517.058 364.526 517.158 364.366 517.258 364.197 517.358 364.027 517.457 363.857 517.557 363.688 517.667 363.518 517.767 363.349 517.876 363.179 517.976 363.019 518.086 362.84 518.206 362.67 518.325 362.491 518.445 362.301 518.565 362.111 518.685 361.912 518.814 361.712 518.944 361.513 519.074 361.303 519.213 361.094 519.343 360.874 519.483 360.665 519.622 360.445 519.762 360.216 519.902 359.996 520.041 359.767 520.181 359.547 520.321 359.318 520.46 359.088 520.61 358.859 520.75 358.63 520.889 358.4 521.029 358.171 521.169 357.941 521.308 357.712 521.448 357.482 521.588 357.263 521.717 357.033 521.847 356.814 521.987 356.594 522.116 356.375 522.236 356.165 522.366 355.946 522.486 355.736 522.605 355.537 522.725 355.337 522.835 355.138 522.954 354.938 523.054 354.759 523.164 354.569 523.284 354.37 523.403 354.16 523.543 353.931 523.683 353.691 523.822 353.442 523.982 353.172 524.132 352.903 524.301 352.614 524.471 352.324 524.651 352.015 524.83 351.706 525.01 351.377 525.209 351.047 525.399 350.708 525.598 350.359 525.798 350.01 526.007 349.651 526.217 349.281 526.436 348.902 526.646 348.533 526.865 348.144 527.085 347.765 527.314 347.376 527.534 346.977 527.763 346.588 528.222 345.79 528.452 345.391 528.681 344.982 528.911 344.582 529.14 344.183 529.369 343.784 529.599 343.385 529.828 342.986 530.048 342.587 530.277 342.198 530.497 341.809 530.726 341.42 530.946 341.031 536.343 331.633 544.235 331.633 544.544 331.633 544.853 331.643 545.162 331.643 545.472 331.643 545.771 331.643 546.07 331.653 546.37 331.653 546.659 331.663 546.938 331.663 547.218 331.673 547.497 331.683 547.766 331.693 548.036 331.703 548.295 331.703 548.544 331.713 548.784 331.723 549.023 331.733 549.263 331.753 549.482 331.763 549.702 331.772 549.911 331.782 550.111 331.792 550.3 331.812 550.48 331.822 550.66 331.832 550.819 331.852 550.979 331.862 551.128 331.882 551.258 331.892 551.388 331.912 551.498 331.922 551.607 331.942 551.697 331.952 551.777 331.972 551.847 331.992 551.907 332.002 551.947 332.022 551.977 332.032 551.996 332.052 552.006 332.072 552.006 332.102 551.986 332.152 551.956 332.221 551.917 332.311 551.857 332.421 551.797 332.541 551.727 332.68 551.637 332.84 551.547 333.01 551.438 333.199 551.328 333.409 551.198 333.628 551.069 333.858 550.919 334.107 550.769 334.366 550.61 334.636 550.44 334.925 550.26 335.224 550.081 335.544 549.891 335.863 549.692 336.202 549.482 336.541 549.263 336.9 549.043 337.27 548.814 337.649 548.584 338.038 548.345 338.437 548.096 338.846 547.846 339.255 547.587 339.684 547.327 340.113 547.058 340.552 546.789 340.991 546.509 341.45 546.23 341.899 545.941 342.368 545.651 342.837 545.362 343.315 545.073 343.794 544.773 344.273 544.474 344.752 544.185 345.241 543.885 345.72 543.586 346.209 543.297 346.698 542.997 347.186 542.399 348.154 542.1 348.643 541.81 349.132 541.511 349.611 541.222 350.09 540.932 350.568 540.643 351.037 540.354 351.506 540.074 351.975 539.795 352.434 539.516 352.883 539.246 353.332 538.977 353.771 538.718 354.2 538.458 354.619 538.199 355.038 537.959 355.447 537.72 355.836 537.48 356.225 537.251 356.604 537.031 356.963 536.822 357.323 536.612 357.662 536.413 357.991 536.223 358.3 536.044 358.6 535.874 358.889 535.705 359.158 535.555 359.408 535.415 359.647 535.286 359.867 535.156 360.076 535.046 360.266 534.936 360.445 534.817 360.645 534.697 360.854 534.557 361.074 534.418 361.303 534.268 361.553 534.118 361.802 533.959 362.072 533.789 362.341 533.609 362.62 533.43 362.91 533.25 363.209 533.061 363.518 532.861 363.837 532.662 364.157 532.452 364.486 532.243 364.815 532.033 365.154 531.814 365.503 531.594 365.853 531.365 366.212 531.135 366.571 530.906 366.93 530.676 367.299 530.447 367.658 530.207 368.038 529.968 368.407 529.729 368.776 529.489 369.155 529.25 369.534 529 369.903 528.761 370.282 528.521 370.651 528.272 371.03 528.033 371.4 527.793 371.769 527.554 372.138 527.314 372.507 527.075 372.866 526.835 373.225 521.219 381.865 520.141 417.522 512.898 417.841 505.555 418.16 505.555 383.601 497.993 371.609 497.674 371.12 497.364 370.621 497.035 370.133 496.716 369.634 496.397 369.135 496.077 368.626 495.758 368.127 495.429 367.618 495.11 367.12 494.79 366.621 494.471 366.112 494.152 365.613 493.843 365.114 493.533 364.626 493.224 364.137 492.915 363.648 492.616 363.159 492.316 362.69 492.017 362.211 491.728 361.752 491.448 361.293 491.169 360.844 490.89 360.395 490.62 359.966 490.361 359.537 490.101 359.118 489.852 358.719 489.613 358.32 489.383 357.941 489.154 357.572 488.934 357.213 488.725 356.864 488.525 356.534 488.336 356.215 488.156 355.916 487.986 355.627 487.827 355.357 487.677 355.108 487.537 354.868 487.408 354.649 487.318 354.499 487.218 354.33 487.118 354.16 487.009 353.98 486.899 353.791 486.769 353.581 486.65 353.372 486.51 353.142 486.37 352.913 486.221 352.664 486.071 352.414 485.901 352.145 485.742 351.875 485.562 351.586 485.383 351.287 485.193 350.977 485.003 350.668 484.804 350.339 484.594 350 484.385 349.651 484.165 349.291 483.936 348.922 483.706 348.543 483.467 348.154 483.228 347.755 482.968 347.336 482.709 346.917 482.449 346.488 482.18 346.049 481.901 345.59 481.611 345.131 481.322 344.652 481.033 344.173 480.723 343.675 480.414 343.176 480.095 342.657 479.776 342.128 479.446 341.599 479.107 341.051 478.768 340.492 473.151 331.633 481.681 331.633 482.29 331.633 482.868 331.643ZM166.48 331.643 166.839 331.643 167.198 331.653 167.537 331.663 167.857 331.663 168.176 331.683 168.475 331.693 168.765 331.703 169.054 331.723 169.313 331.743 169.573 331.763 169.822 331.792 170.061 331.812 170.291 331.842 170.5 331.872 170.71 331.902 170.909 331.942 171.099 331.972 171.269 332.012 171.448 332.052 171.608 332.102 171.757 332.152 171.897 332.202 172.037 332.251 172.167 332.301 172.286 332.361 172.396 332.421 172.506 332.481 172.605 332.551 172.695 332.621 172.785 332.69 172.865 332.76 172.945 332.84 173.005 332.92 173.074 333 173.134 333.089 173.184 333.179 173.234 333.269 173.274 333.369 173.294 333.469 173.324 333.628 173.344 333.848 173.374 334.117 173.394 334.446 173.414 334.825 173.444 335.254 173.463 335.733 173.483 336.272 173.513 336.851 173.533 337.479 173.553 338.148 173.573 338.866 173.603 339.624 173.623 340.432 173.643 341.27 173.663 342.158 173.683 343.076 173.703 344.034 173.713 345.031 173.733 346.059 173.753 347.127 173.773 348.224 173.783 349.351 173.803 350.509 173.813 351.696 173.833 352.903 173.843 354.14 173.853 355.407 173.863 356.694 173.873 358.011 173.883 359.348 173.892 360.695 173.902 362.072 173.902 363.458 173.912 364.865 173.912 366.292 173.922 367.728 173.922 369.175 173.922 370.631 173.922 406.178 218.209 406.178 218.209 418.06 158.798 418.06 158.798 331.633 165.712 331.633 166.101 331.633 166.48 331.643ZM143.135 342.976 120.557 343.305 119.48 343.315 118.432 343.325 117.395 343.335 116.387 343.345 115.41 343.365 114.442 343.385 113.504 343.395 112.586 343.415 111.688 343.435 110.82 343.465 109.972 343.485 109.154 343.515 108.356 343.535 107.578 343.565 106.83 343.595 106.101 343.625 105.403 343.655 104.725 343.695 104.076 343.724 103.448 343.764 102.849 343.804 102.27 343.834 101.722 343.874 101.193 343.914 100.694 343.964 100.225 344.004 99.7861 344.044 99.3671 344.094 98.9681 344.134 98.6089 344.183 98.2697 344.233 97.9505 344.283 97.6711 344.333 97.4117 344.383 97.1823 344.433 96.9827 344.483 96.8131 344.543 96.6734 344.592 96.5537 344.652 96.4639 344.712 96.3342 344.862 96.2045 345.071 96.0848 345.351 95.9651 345.68 95.8554 346.059 95.7556 346.488 95.6658 346.967 95.576 347.476 95.4962 348.034 95.4164 348.623 95.3466 349.252 95.2867 349.91 95.2268 350.588 95.1869 351.287 95.137 352.015 95.1071 352.753 95.0772 353.502 95.0572 354.27 95.0473 355.038 95.0373 355.806 95.0373 356.584 95.0373 357.353 95.0572 358.121 95.0772 358.869 95.0971 359.617 95.137 360.346 95.177 361.054 95.2268 361.732 95.2767 362.401 95.3466 363.029 95.4164 363.628 95.4862 364.197 95.576 364.725 95.6658 365.204 95.7556 365.643 95.8653 366.042 95.9751 366.381 96.0948 366.671 96.2245 366.9 96.3542 367.07 96.444 367.14 96.5437 367.209 96.6734 367.279 96.8131 367.339 96.9827 367.399 97.1723 367.459 97.3818 367.519 97.6112 367.579 97.8706 367.628 98.15 367.678 98.4493 367.728 98.7685 367.778 99.1177 367.818 99.4968 367.868 99.8859 367.908 100.315 367.948 100.754 367.978 101.223 368.018 101.722 368.047 102.25 368.077 102.789 368.107 103.368 368.137 103.966 368.167 104.595 368.187 105.253 368.207 105.932 368.237 106.64 368.247 107.378 368.267 108.147 368.287 108.935 368.297 109.763 368.317 110.611 368.327 111.489 368.337 112.407 368.347 113.344 368.347 114.312 368.357 115.31 368.357 116.347 368.367 117.405 368.367 118.502 368.367 139.353 368.367 139.353 379.171 117.854 379.171 116.487 379.171 115.18 379.171 113.933 379.171 112.736 379.171 111.588 379.181 110.501 379.181 109.463 379.191 108.466 379.201 107.528 379.211 106.63 379.221 105.782 379.241 104.984 379.251 104.216 379.271 103.497 379.291 102.829 379.311 102.191 379.341 101.592 379.371 101.033 379.401 100.504 379.431 100.016 379.461 99.5667 379.501 99.1377 379.541 98.7486 379.59 98.3894 379.63 98.0602 379.68 97.7509 379.74 97.4716 379.8 97.2222 379.86 96.9927 379.92 96.7832 379.99 96.6036 380.059 96.434 380.139 96.2943 380.219 96.1646 380.299 96.0549 380.389 95.9551 380.478 95.8753 380.578 95.8155 380.678 95.7556 380.788 95.7057 380.897 95.6359 381.117 95.576 381.396 95.5162 381.735 95.4563 382.124 95.3964 382.573 95.3466 383.072 95.3066 383.611 95.2667 384.19 95.2268 384.808 95.1969 385.467 95.167 386.145 95.147 386.863 95.1271 387.602 95.1071 388.36 95.0971 389.138 95.0872 389.936 95.0772 390.744 95.0772 391.562 95.0872 392.38 95.0872 393.199 95.0971 394.017 95.1171 394.835 95.1271 395.633 95.147 396.431 95.177 397.209 95.1969 397.967 95.2368 398.706 95.2667 399.414 95.3066 400.102 95.3466 400.751 95.3865 401.369 95.4363 401.948 95.4862 402.477 95.5461 402.966 95.596 403.415 95.6558 403.804 95.7157 404.133 95.7855 404.412 95.8554 404.622 95.9252 404.771 95.9851 404.841 96.0649 404.911 96.1746 404.981 96.3043 405.041 96.454 405.111 96.6335 405.171 96.8331 405.23 97.0625 405.29 97.3219 405.35 97.6013 405.4 97.9105 405.46 98.2398 405.51 98.6089 405.56 98.998 405.609 99.417 405.649 99.856 405.699 100.335 405.739 100.844 405.779 101.382 405.829 101.951 405.859 102.55 405.899 103.178 405.939 103.837 405.969 104.535 406.009 105.263 406.038 106.022 406.068 106.82 406.098 107.648 406.128 108.516 406.158 109.414 406.178 110.351 406.208 111.319 406.228 112.327 406.258 113.374 406.278 114.462 406.298 115.579 406.318 116.736 406.338 117.934 406.358 119.171 406.378 120.448 406.388 144.212 406.717 144.541 412.443 144.861 418.06 113.215 417.841 81.5589 417.522 81.2396 374.522 81.0201 331.633 143.783 331.633 143.454 337.25 143.135 342.976ZM244.677 405.629 266.605 405.959 288.424 406.178 288.424 418.06 230.091 418.06 230.091 331.633 244.138 331.633 244.357 368.586 244.677 405.629ZM336.541 340.991 336.152 341.001 335.773 341.021 335.384 341.051 334.995 341.081 334.606 341.121 334.207 341.17 333.808 341.22 333.409 341.28 333 341.35 332.591 341.42 332.172 341.49 331.743 341.58 331.074 341.729 330.416 341.889 329.777 342.068 329.139 342.268 328.52 342.477 327.902 342.697 327.303 342.936 326.714 343.196 326.136 343.455 325.557 343.744 324.998 344.044 324.45 344.353 323.911 344.682 323.372 345.031 322.853 345.391 322.335 345.76 321.836 346.159 321.337 346.568 320.848 346.987 320.369 347.426 319.9 347.885 319.431 348.364 318.973 348.852 318.524 349.361 318.085 349.89 317.656 350.429 317.227 350.987 316.808 351.566 316.399 352.155 315.99 352.773 315.59 353.402 315.191 354.05 314.802 354.719 314.423 355.397 314.044 356.105 313.675 356.824 313.306 357.562 312.947 358.32 312.807 358.65 312.667 358.979 312.538 359.298 312.408 359.617 312.288 359.936 312.168 360.256 312.059 360.565 311.949 360.884 311.849 361.204 311.749 361.523 311.66 361.842 311.57 362.171 311.49 362.5 311.41 362.84 311.33 363.179 311.261 363.528 311.191 363.877 311.131 364.236 311.071 364.616 311.011 364.995 310.961 365.384 310.911 365.783 310.871 366.192 310.832 366.621 310.792 367.06 310.762 367.509 310.722 367.978 310.702 368.466 310.672 368.965 310.652 369.474 310.632 370.013 310.612 370.562 310.602 371.13 310.592 371.729 310.582 372.337 310.572 372.976 310.572 373.624 310.572 374.303 310.572 375.31 310.592 376.288 310.612 377.256 310.652 378.194 310.692 379.112 310.742 380.009 310.812 380.887 310.881 381.745 310.971 382.583 311.071 383.411 311.171 384.21 311.29 384.998 311.42 385.776 311.56 386.524 311.71 387.262 311.879 387.991 312.049 388.689 312.238 389.387 312.438 390.066 312.647 390.734 312.867 391.383 313.106 392.021 313.356 392.65 313.615 393.258 313.884 393.867 314.174 394.456 314.473 395.034 314.782 395.613 315.112 396.172 315.451 396.73 315.8 397.269 316.169 397.808 316.558 398.336 316.947 398.855 317.356 399.374 317.785 399.883 318.224 400.382 318.673 400.881 319.062 401.3 319.461 401.709 319.86 402.098 320.259 402.477 320.659 402.846 321.068 403.195 321.477 403.534 321.886 403.864 322.295 404.173 322.724 404.472 323.143 404.761 323.572 405.041 324.011 405.3 324.45 405.55 324.899 405.789 325.348 406.018 325.806 406.238 326.275 406.438 326.744 406.637 327.233 406.817 327.722 406.986 328.221 407.146 328.72 407.296 329.238 407.435 329.767 407.565 330.296 407.675 330.845 407.784 331.393 407.884 331.962 407.974 332.541 408.054 333.119 408.114 333.728 408.173 334.336 408.223 334.955 408.263 335.594 408.293 336.242 408.313 336.9 408.333 337.579 408.333 338.467 408.323 339.335 408.293 340.183 408.243 341.021 408.173 341.839 408.074 342.637 407.964 343.425 407.834 344.193 407.675 344.942 407.495 345.68 407.296 346.398 407.076 347.107 406.827 347.805 406.567 348.483 406.278 349.142 405.959 349.79 405.629 350.429 405.27 351.047 404.891 351.666 404.482 352.254 404.063 352.843 403.604 353.412 403.135 353.98 402.636 354.529 402.108 355.058 401.559 355.587 400.99 356.105 400.392 356.604 399.773 357.103 399.125 357.582 398.446 358.061 397.748 358.52 397.03 358.979 396.271 359.428 395.503 359.867 394.695 360.296 393.867 360.715 393.009 361.124 392.131 361.383 391.542 361.633 390.894 361.862 390.206 362.072 389.467 362.271 388.689 362.461 387.861 362.64 387.003 362.8 386.105 362.949 385.177 363.079 384.23 363.199 383.242 363.299 382.234 363.388 381.217 363.468 380.169 363.538 379.112 363.588 378.044 363.618 376.967 363.648 375.879 363.648 374.792 363.648 373.704 363.628 372.627 363.598 371.539 363.548 370.472 363.488 369.414 363.418 368.377 363.329 367.349 363.229 366.341 363.119 365.364 362.989 364.406 362.85 363.478 362.7 362.58 362.53 361.722 362.351 360.894 362.151 360.116 361.942 359.378 361.722 358.689 361.483 358.041 361.233 357.452 360.974 356.904 360.705 356.355 360.435 355.826 360.146 355.297 359.857 354.769 359.557 354.26 359.258 353.751 358.949 353.252 358.63 352.763 358.31 352.284 357.981 351.806 357.642 351.347 357.303 350.888 356.953 350.449 356.604 350.01 356.245 349.581 355.886 349.172 355.517 348.763 355.148 348.364 354.769 347.984 354.389 347.605 354.01 347.246 353.621 346.897 353.232 346.548 352.833 346.219 352.444 345.909 352.045 345.6 351.636 345.311 351.237 345.021 350.828 344.762 350.419 344.503 350.01 344.263 349.601 344.034 349.182 343.814 348.763 343.615 348.354 343.425 347.935 343.246 347.516 343.086 347.007 342.916 346.518 342.747 346.029 342.587 345.55 342.438 345.081 342.288 344.622 342.158 344.173 342.028 343.724 341.909 343.296 341.799 342.867 341.689 342.438 341.59 342.018 341.5 341.609 341.42 341.2 341.34 340.801 341.28 340.402 341.22 340.003 341.16 339.614 341.111 339.225 341.071 338.836 341.041 338.457 341.021 338.068 341.001 337.689 340.981 337.3 340.981 336.92 340.981 336.541 340.991ZM445.596 17.9479 445.696 20.8511 445.795 24.0437 445.895 27.5055 445.985 31.2168 446.075 35.1576 446.154 39.3079 446.234 43.6577 446.314 48.1871 446.394 52.8661 446.464 57.6948 446.524 62.6332 446.583 67.6814 446.643 72.8194 446.703 78.0271 446.753 83.2748 446.793 88.5625 446.833 93.86 446.873 99.1476 446.903 104.415 446.923 109.653 446.943 114.821 446.963 119.909 446.973 124.907 446.983 129.786 446.983 134.535 446.973 139.144 446.963 143.574 446.943 147.824 446.923 151.864 446.893 155.685 446.863 159.257 446.823 162.579 446.773 165.622 446.723 168.375 446.663 170.81 446.593 172.915 446.524 174.661 446.444 176.047 446.364 177.055 446.304 177.494 446.244 177.963 446.184 178.452 446.115 178.961 446.055 179.499 445.985 180.048 445.915 180.627 445.845 181.215 445.775 181.824 445.706 182.452 445.636 183.091 445.556 183.759 445.486 184.428 445.406 185.116 445.336 185.815 445.257 186.523 445.177 187.241 445.097 187.979 445.017 188.718 444.937 189.466 444.857 190.214 444.788 190.982 444.708 191.741 444.628 192.519 444.548 193.287 444.468 194.065 444.389 194.843 444.309 195.622 444.229 196.4 444.159 197.178 444.079 197.956 444.009 198.734 443.93 199.502 443.86 200.261 443.79 201.029 443.71 201.777 443.64 202.525 443.57 203.264 443.511 203.992 443.441 204.71 443.371 205.429 443.291 206.147 443.221 206.875 443.142 207.603 443.072 208.342 442.992 209.08 442.912 209.818 442.842 210.557 442.762 211.305 442.683 212.043 442.613 212.781 442.533 213.52 442.453 214.258 442.383 214.986 442.303 215.705 442.224 216.433 442.154 217.141 442.074 217.849 442.004 218.548 441.934 219.236 441.855 219.915 441.785 220.583 441.715 221.242 441.645 221.89 441.575 222.519 441.505 223.137 441.445 223.746 441.376 224.334 441.316 224.903 441.256 225.462 441.196 225.99 441.136 226.509 441.076 227.008 441.026 227.487 440.977 227.946 440.927 228.375 440.877 228.794 440.827 229.173 440.787 229.542 440.737 229.881 440.697 230.201 440.647 230.53 440.597 230.869 440.558 231.208 440.508 231.547 440.468 231.887 440.418 232.236 440.378 232.575 440.338 232.924 440.298 233.273 440.258 233.623 440.218 233.972 440.188 234.321 440.149 234.67 440.119 235.009 440.079 235.358 440.049 235.698 440.019 236.037 439.989 236.376 439.959 236.705 439.929 237.044 439.909 237.364 439.879 237.693 439.859 238.002 439.829 238.322 439.809 238.621 439.789 238.92 439.769 239.219 439.759 239.499 439.739 239.778 439.73 240.057 439.71 240.317 439.7 240.576 439.69 240.816 439.68 241.055 439.67 241.285 439.67 241.494 439.67 241.704 439.66 241.903 439.66 242.083 439.66 242.382 439.66 242.671 439.65 242.951 439.65 243.21 439.64 243.469 439.62 243.709 439.6 243.938 439.58 244.158 439.55 244.377 439.51 244.587 439.47 244.786 439.43 244.976 439.37 245.165 439.31 245.345 439.231 245.525 439.151 245.694 439.061 245.864 438.961 246.033 438.852 246.203 438.732 246.363 438.592 246.532 438.453 246.692 438.293 246.861 438.123 247.021 437.934 247.191 437.734 247.36 437.525 247.54 437.295 247.709 437.056 247.899 436.786 248.089 436.517 248.278 436.218 248.478 435.908 248.687 435.579 248.907 435.23 249.126 434.861 249.366 434.472 249.605 434.063 249.854 433.634 250.124 433.185 250.403 432.915 250.563 432.646 250.722 432.387 250.892 432.137 251.052 431.878 251.211 431.629 251.371 431.379 251.531 431.14 251.68 430.9 251.84 430.661 251.999 430.431 252.149 430.212 252.299 429.992 252.448 429.773 252.598 429.563 252.738 429.354 252.887 429.164 253.027 428.965 253.157 428.785 253.296 428.606 253.426 428.426 253.556 428.266 253.676 428.107 253.795 427.957 253.915 427.807 254.035 427.678 254.144 427.548 254.244 427.428 254.344 427.309 254.444 427.209 254.534 427.119 254.623 427.029 254.703 426.959 254.783 426.89 254.853 426.83 254.913 426.78 254.972 426.75 255.032 426.72 255.082 426.7 255.122 426.7 255.152 426.71 255.192 426.73 255.252 426.78 255.332 426.84 255.421 426.92 255.531 427.009 255.651 427.119 255.791 427.239 255.94 427.378 256.11 427.538 256.289 427.708 256.489 427.887 256.688 428.087 256.918 428.296 257.147 428.516 257.397 428.755 257.656 429.005 257.926 429.264 258.205 429.533 258.494 429.823 258.803 430.112 259.113 430.421 259.432 430.731 259.771 431.06 260.11 431.399 260.46 431.748 260.819 432.097 261.188 432.467 261.557 432.836 261.936 433.215 262.325 433.604 262.714 434.003 263.123 434.402 263.522 434.811 263.941 435.23 264.35 435.649 264.77 436.078 265.199 436.507 265.628 436.946 266.066 437.395 266.495 438.043 267.144 438.682 267.802 439.33 268.471 439.969 269.129 440.597 269.808 441.236 270.476 441.865 271.165 442.483 271.843 443.102 272.531 443.72 273.23 444.339 273.918 444.947 274.616 445.546 275.325 446.144 276.023 446.743 276.732 447.332 277.44 447.91 278.158 448.489 278.866 449.058 279.585 449.626 280.293 450.185 281.011 450.744 281.73 451.292 282.458 451.831 283.176 452.36 283.895 452.889 284.613 453.407 285.331 453.926 286.05 454.425 286.778 454.924 287.496 455.413 288.205 455.892 288.923 456.371 289.641 456.829 290.35 457.288 291.068 457.737 291.776 458.176 292.485 458.605 293.183 459.024 293.881 459.433 294.58 459.473 294.669 459.503 294.779 459.513 294.899 459.493 295.039 459.463 295.188 459.423 295.348 459.354 295.527 459.284 295.707 459.184 295.897 459.084 296.106 458.964 296.316 458.835 296.535 458.685 296.755 458.535 296.984 458.376 297.214 458.206 297.443 458.027 297.682 457.837 297.922 457.648 298.151 457.448 298.391 457.238 298.63 457.039 298.86 456.829 299.079 456.61 299.309 456.4 299.518 456.191 299.728 455.971 299.927 455.762 300.127 455.552 300.306 455.343 300.476 455.143 300.635 454.944 300.785 454.744 300.915 454.555 301.035 454.375 301.144 454.206 301.224 454.036 301.294 453.876 301.344 453.737 301.384 453.597 301.394 453.567 301.384 453.527 301.364 453.487 301.334 453.427 301.284 453.368 301.234 453.298 301.164 453.218 301.084 453.138 300.995 453.038 300.895 452.949 300.785 452.839 300.655 452.729 300.526 452.609 300.386 452.48 300.226 452.35 300.067 452.21 299.897 452.071 299.718 451.921 299.528 451.771 299.329 451.612 299.119 451.452 298.909 451.282 298.68 451.113 298.451 450.933 298.221 450.754 297.972 450.574 297.722 450.395 297.463 450.205 297.194 450.005 296.924 449.816 296.655 449.616 296.365 449.417 296.076 449.217 295.787 449.008 295.488 448.808 295.188 448.599 294.879 448.389 294.57 448.18 294.25 447.97 293.931 447.761 293.612 446.843 292.295 445.895 290.978 444.927 289.661 443.93 288.354 442.912 287.057 441.865 285.76 440.807 284.473 439.73 283.196 438.622 281.919 437.505 280.662 436.377 279.415 435.23 278.178 434.063 276.961 432.886 275.744 431.698 274.557 430.501 273.379 429.284 272.222 428.067 271.075 426.84 269.947 425.603 268.85 424.366 267.763 423.118 266.705 421.871 265.667 420.614 264.65 419.367 263.652 418.11 262.694 416.863 261.747 415.606 260.839 414.359 259.951 413.112 259.103 411.875 258.275 410.638 257.477 409.411 256.718 408.193 255.99 406.976 255.292 405.779 254.623 404.592 254.005 403.415 253.416 402.247 252.857 401.1 252.349 392.351 248.567 382.304 255.591 381.885 255.87 381.476 256.15 381.067 256.429 380.668 256.698 380.269 256.968 379.87 257.237 379.481 257.497 379.092 257.756 378.703 258.015 378.333 258.265 377.954 258.504 377.585 258.744 377.226 258.983 376.877 259.213 376.528 259.432 376.188 259.652 375.859 259.861 375.54 260.071 375.221 260.27 374.911 260.46 374.612 260.649 374.333 260.829 374.053 260.998 373.784 261.158 373.525 261.308 373.285 261.457 373.046 261.597 372.826 261.727 372.607 261.846 372.407 261.956 372.228 262.056 372.048 262.146 371.888 262.225 371.749 262.295 371.609 262.355 371.489 262.405 371.39 262.445 371.3 262.475 371.23 262.495 371.17 262.505 371.13 262.495 371.06 262.475 370.981 262.455 370.891 262.415 370.781 262.365 370.661 262.315 370.522 262.245 370.372 262.166 370.212 262.086 370.043 261.986 369.853 261.886 369.654 261.777 369.444 261.657 369.225 261.527 368.985 261.387 368.746 261.248 368.496 261.098 368.227 260.938 367.958 260.769 367.678 260.599 367.389 260.42 367.09 260.23 366.78 260.041 366.471 259.841 366.152 259.642 365.823 259.422 365.483 259.213 365.144 258.993 364.795 258.764 364.446 258.534 364.087 258.305 363.728 258.065 363.358 257.816 362.989 257.576 362.61 257.317 362.231 257.068 361.852 256.808 361.473 256.549 361.084 256.289 360.695 256.02 360.306 255.751 359.927 255.491 359.537 255.232 359.158 254.972 358.779 254.713 358.41 254.464 358.041 254.224 357.682 253.975 357.323 253.735 356.963 253.506 356.614 253.276 356.275 253.047 355.936 252.827 355.607 252.608 355.277 252.399 354.958 252.199 354.649 251.999 354.35 251.81 354.05 251.62 353.771 251.441 353.492 251.271 353.222 251.102 352.963 250.942 352.713 250.792 352.474 250.653 352.245 250.513 352.035 250.383 351.826 250.264 351.626 250.154 351.446 250.054 351.277 249.954 351.117 249.874 350.968 249.795 350.838 249.725 350.708 249.675 350.608 249.625 350.519 249.585 350.439 249.555 350.369 249.545 350.329 249.535 350.279 249.545 350.209 249.555 350.139 249.585 350.04 249.625 349.94 249.675 349.82 249.725 349.681 249.795 349.541 249.874 349.381 249.954 349.202 250.054 349.022 250.154 348.823 250.264 348.623 250.383 348.404 250.513 348.174 250.653 347.935 250.792 347.685 250.942 347.426 251.102 347.156 251.271 346.877 251.441 346.598 251.62 346.298 251.81 345.999 251.999 345.69 252.199 345.371 252.399 345.051 252.608 344.712 252.827 344.383 253.047 344.034 253.276 343.685 253.506 343.335 253.735 342.976 253.975 342.607 254.224 342.238 254.464 341.869 254.713 341.49 254.972 341.111 255.232 340.732 255.491 340.342 255.751 339.953 256.02 339.564 256.289 339.185 256.549 338.796 256.808 338.417 257.068 338.038 257.317 337.659 257.576 337.29 257.816 336.92 258.065 336.561 258.305 336.202 258.534 335.853 258.764 335.504 258.993 335.165 259.213 334.825 259.422 334.496 259.642 334.177 259.841 333.858 260.041 333.548 260.23 333.249 260.42 332.96 260.599 332.68 260.769 332.401 260.938 332.142 261.098 331.882 261.248 331.633 261.387 331.403 261.527 331.174 261.657 330.964 261.777 330.755 261.886 330.565 261.986 330.386 262.086 330.216 262.166 330.066 262.245 329.927 262.315 329.797 262.365 329.677 262.415 329.578 262.455 329.498 262.475 329.428 262.495 329.368 262.505 329.308 262.495 329.238 262.475 329.159 262.455 329.059 262.415 328.939 262.365 328.809 262.315 328.67 262.245 328.52 262.166 328.351 262.086 328.171 261.986 327.981 261.886 327.772 261.777 327.562 261.657 327.333 261.527 327.103 261.387 326.854 261.248 326.595 261.098 326.335 260.938 326.056 260.769 325.777 260.599 325.487 260.42 325.188 260.23 324.879 260.041 324.559 259.841 324.24 259.642 323.911 259.422 323.572 259.213 323.233 258.993 322.883 258.764 322.534 258.534 322.175 258.305 321.816 258.065 321.447 257.816 321.078 257.576 320.698 257.317 320.319 257.068 319.94 256.808 319.551 256.549 319.172 256.289 318.783 256.02 318.394 255.751 318.005 255.491 317.626 255.232 317.247 254.972 316.867 254.713 316.498 254.464 316.129 254.224 315.76 253.975 315.401 253.735 315.052 253.506 314.703 253.276 314.353 253.047 314.024 252.827 313.685 252.608 313.366 252.399 313.046 252.199 312.737 251.999 312.438 251.81 312.139 251.62 311.859 251.441 311.58 251.271 311.31 251.102 311.051 250.942 310.802 250.792 310.562 250.653 310.333 250.513 310.113 250.383 309.914 250.264 309.714 250.154 309.535 250.054 309.355 249.954 309.195 249.874 309.056 249.795 308.916 249.725 308.796 249.675 308.697 249.625 308.597 249.585 308.527 249.555 308.457 249.545 308.407 249.535 308.367 249.545 308.298 249.555 308.218 249.585 308.128 249.625 308.028 249.675 307.898 249.725 307.769 249.795 307.619 249.874 307.459 249.954 307.29 250.054 307.11 250.154 306.911 250.264 306.711 250.383 306.492 250.513 306.262 250.653 306.023 250.792 305.773 250.942 305.514 251.102 305.245 251.271 304.965 251.441 304.686 251.62 304.387 251.81 304.087 251.999 303.778 252.199 303.459 252.399 303.13 252.608 302.8 252.827 302.461 253.047 302.122 253.276 301.773 253.506 301.414 253.735 301.055 253.975 300.695 254.224 300.326 254.464 299.957 254.713 299.578 254.972 299.199 255.232 298.81 255.491 298.431 255.751 298.042 256.02 297.652 256.289 297.263 256.549 296.884 256.808 296.505 257.068 296.126 257.317 295.747 257.576 295.378 257.816 295.009 258.065 294.65 258.305 294.29 258.534 293.941 258.764 293.592 258.993 293.253 259.213 292.914 259.422 292.584 259.642 292.265 259.841 291.946 260.041 291.637 260.23 291.337 260.42 291.048 260.599 290.759 260.769 290.489 260.938 290.22 261.098 289.97 261.248 289.721 261.387 289.482 261.527 289.262 261.657 289.043 261.777 288.843 261.886 288.654 261.986 288.474 262.086 288.304 262.166 288.155 262.245 288.015 262.315 287.885 262.365 287.766 262.415 287.666 262.455 287.586 262.475 287.506 262.495 287.456 262.505 287.357 262.485 287.207 262.445 287.027 262.365 286.808 262.265 286.548 262.136 286.259 261.986 285.93 261.806 285.581 261.607 285.202 261.387 284.793 261.148 284.364 260.889 283.915 260.619 283.436 260.32 282.947 260.021 282.438 259.701 281.919 259.362 281.381 259.023 280.832 258.664 280.283 258.305 279.714 257.936 279.146 257.556 278.577 257.177 278.008 256.798 277.44 256.409 276.871 256.02 276.302 255.641 275.744 255.252 275.195 254.873 274.656 254.494 274.128 254.115 273.619 253.745 273.12 253.386 272.641 253.037 272.182 252.698 271.743 252.369 271.334 252.049 270.945 251.75 270.586 251.461 270.257 251.191 269.957 250.942 269.768 250.782 269.588 250.633 269.399 250.503 269.209 250.373 269.02 250.254 268.83 250.144 268.64 250.054 268.441 249.964 268.241 249.884 268.032 249.825 267.822 249.765 267.603 249.725 267.383 249.695 267.144 249.665 266.905 249.655 266.655 249.655 266.386 249.665 266.116 249.685 265.837 249.725 265.538 249.765 265.228 249.825 264.909 249.894 264.57 249.974 264.221 250.064 263.852 250.164 263.473 250.283 263.073 250.413 262.654 250.553 262.225 250.702 261.767 250.862 261.288 251.042 260.799 251.231 260.28 251.431 259.741 251.65 259.183 251.88 258.604 252.119 257.995 252.369 257.357 252.638 256.698 252.917 256.02 253.207 255.032 253.646 254.045 254.095 253.057 254.563 252.069 255.052 251.082 255.561 250.104 256.1 249.116 256.649 248.129 257.217 247.151 257.806 246.163 258.424 245.185 259.053 244.198 259.701 243.22 260.38 242.242 261.068 241.255 261.777 240.277 262.515 239.289 263.263 238.312 264.041 237.324 264.829 236.346 265.647 235.358 266.485 234.381 267.333 233.393 268.211 232.415 269.109 231.428 270.027 230.45 270.965 229.462 271.923 228.475 272.9 227.487 273.898 226.499 274.916 225.512 275.963 224.524 277.021 223.536 278.108 222.548 279.206 221.561 280.333 220.563 281.48 219.575 282.638 218.578 283.825 217.59 285.042 216.592 286.269 216.303 286.628 216.024 286.987 215.734 287.347 215.455 287.706 215.176 288.065 214.896 288.424 214.607 288.793 214.338 289.152 214.058 289.512 213.779 289.871 213.51 290.23 213.24 290.579 212.971 290.938 212.712 291.287 212.452 291.627 212.193 291.976 211.943 292.315 211.694 292.644 211.454 292.973 211.215 293.303 210.986 293.622 210.756 293.931 210.537 294.24 210.317 294.54 210.118 294.839 209.908 295.118 209.719 295.398 209.529 295.667 209.349 295.936 209.18 296.186 209.01 296.425 208.861 296.665 208.711 296.884 208.571 297.104 208.442 297.303 208.322 297.503 208.212 297.682 208.112 297.852 208.023 298.002 207.953 298.151 206.217 301.493 203.084 299.558 202.954 299.478 202.825 299.408 202.705 299.329 202.575 299.249 202.446 299.169 202.316 299.089 202.196 299.009 202.076 298.929 201.947 298.84 201.827 298.76 201.707 298.68 201.598 298.59 201.478 298.51 201.358 298.421 201.248 298.331 201.139 298.251 201.029 298.161 200.929 298.081 200.829 297.992 200.72 297.902 200.63 297.822 200.53 297.732 200.44 297.652 200.35 297.573 200.261 297.483 200.181 297.403 200.101 297.323 200.021 297.243 199.951 297.174 199.882 297.094 199.812 297.014 199.752 296.944 199.692 296.874 199.642 296.804 199.592 296.735 199.552 296.665 199.512 296.605 199.473 296.535 199.443 296.475 199.413 296.425 199.353 296.136 199.353 295.787 199.423 295.368 199.552 294.889 199.742 294.35 199.991 293.762 200.301 293.113 200.66 292.415 201.069 291.676 201.528 290.888 202.027 290.06 202.575 289.202 203.164 288.304 203.792 287.367 204.461 286.409 205.159 285.421 205.897 284.413 206.666 283.386 207.454 282.328 208.272 281.271 209.11 280.193 209.978 279.116 210.856 278.018 211.754 276.931 212.672 275.834 213.599 274.746 214.527 273.659 215.475 272.591 216.423 271.524 217.371 270.476 218.318 269.439 219.266 268.431 220.214 267.443 221.152 266.476 222.09 265.548 223.007 264.65 223.915 263.782 224.803 262.954 225.671 262.166 226.529 261.417 226.759 261.218 226.998 261.018 227.227 260.819 227.447 260.619 227.676 260.42 227.896 260.23 228.115 260.031 228.325 259.841 228.534 259.652 228.744 259.462 228.943 259.282 229.143 259.103 229.343 258.923 229.532 258.744 229.712 258.574 229.901 258.404 230.071 258.235 230.24 258.075 230.41 257.916 230.57 257.766 230.719 257.616 230.869 257.467 231.009 257.327 231.138 257.187 231.268 257.058 231.388 256.928 231.507 256.808 231.607 256.698 231.707 256.589 231.797 256.479 231.887 256.389 231.956 256.289 232.026 256.21 232.086 256.13 232.136 256.06 232.176 255.99 232.216 255.93 232.236 255.88 232.246 255.84 232.256 255.801 232.246 255.771 232.236 255.721 232.206 255.671 232.176 255.621 232.126 255.561 232.066 255.491 232.006 255.421 231.936 255.342 231.847 255.252 231.757 255.162 231.657 255.062 231.547 254.962 231.438 254.863 231.308 254.753 231.178 254.633 231.039 254.514 230.889 254.394 230.739 254.264 230.57 254.134 230.4 253.995 230.23 253.855 230.051 253.715 229.861 253.566 229.662 253.416 229.462 253.266 229.253 253.107 229.043 252.947 228.834 252.788 228.604 252.628 228.385 252.458 228.145 252.299 227.916 252.129 227.666 251.95 227.427 251.78 227.178 251.61 226.928 251.431 226.669 251.261 226.409 251.082 226.15 250.902 225.881 250.722 219.615 246.403 218.318 232.575 218.209 231.308 218.089 230.051 217.979 228.814 217.869 227.587 217.76 226.379 217.64 225.182 217.53 223.995 217.42 222.828 217.311 221.671 217.201 220.533 217.091 219.396 216.972 218.278 216.862 217.171 216.752 216.074 216.642 214.986 216.533 213.909 216.413 212.841 216.303 211.784 216.193 210.736 216.074 209.689 215.964 208.651 215.854 207.623 215.734 206.606 215.615 205.588 215.505 204.581 215.385 203.573 215.276 202.575 215.156 201.578 215.036 200.59 214.916 199.602 214.797 198.615 214.677 197.627 214.557 196.649 214.427 195.671 214.308 194.694 214.178 193.716 214.058 192.738 213.929 191.761 213.799 190.783 213.669 189.795 213.589 189.217 213.52 188.568 213.44 187.84 213.37 187.052 213.31 186.184 213.24 185.236 213.18 184.218 213.121 183.121 213.071 181.944 213.021 180.677 212.971 179.33 212.921 177.893 212.871 176.377 212.831 174.76 212.791 173.054 212.761 171.259 212.721 169.363 212.692 167.378 212.662 165.283 212.632 163.088 212.612 160.793 212.582 158.389 212.562 155.885 212.542 153.271 212.532 150.537 212.512 147.704 212.502 144.741 212.492 141.668 212.482 138.485 212.472 135.173 212.472 131.741 212.462 128.19 212.462 124.508 212.462 120.697 212.462 116.756 212.462 112.686 212.462 108.486 212.472 104.146 212.482 99.6764 212.482 95.0572 212.492 92.7327 212.502 90.4081 212.502 88.0836 212.512 85.759 212.522 83.4445 212.532 81.1399 212.542 78.8353 212.562 76.5307 212.572 74.236 212.582 71.9414 212.602 69.6468 212.622 67.3621 212.632 65.0775 212.652 62.8028 212.672 60.5282 212.692 58.2635 212.712 55.9988 212.731 53.7441 212.761 51.4794 212.781 49.2346 212.811 46.9799 212.831 44.7451 212.861 42.5004 212.891 40.2656 212.911 38.0409 212.941 35.8061 212.971 33.5913 213.011 31.3665 213.041 29.1517 213.071 26.9469 213.111 24.742 213.141 22.5372 213.18 20.3423 213.21 18.1475 213.25 15.9626 213.29 13.7777 213.33 11.5928 213.37 9.41793 213.41 7.24303 213.46 5.0781 214.108 0 444.738 0 445.496 15.344 445.596 17.9479ZM234.78 12.9696 234.53 12.9696 234.281 12.9796 234.042 12.9796 233.802 12.9896 233.563 12.9995 233.323 13.0095 233.094 13.0195 232.864 13.0394 232.635 13.0494 232.415 13.0694 232.196 13.0893 231.986 13.0993 231.777 13.1193 231.567 13.1392 231.368 13.1592 231.168 13.1891 230.979 13.209 230.799 13.229 230.62 13.2589 230.44 13.2789 230.27 13.3088 230.111 13.3387 229.961 13.3687 229.811 13.3886 229.672 13.4186 229.542 13.4485 229.412 13.4784 229.293 13.5083 229.183 13.5383 229.083 13.5682 228.983 13.5981 228.904 13.638 228.824 13.668 228.754 13.6979 228.694 13.7278 228.654 13.7578 228.614 13.7977 228.584 13.8276 228.495 13.9972 228.405 14.2067 228.325 14.4761 228.235 14.7854 228.155 15.1445 228.076 15.5635 228.006 16.0324 227.926 16.5512 227.846 17.1299 227.776 17.7684 227.706 18.4567 227.637 19.215 227.567 20.0331 227.497 20.911 227.427 21.8488 227.357 22.8664 227.287 23.9439 227.227 25.0812 227.158 26.2984 227.098 27.5854 227.028 28.9422 226.968 30.3788 226.898 31.8853 226.838 33.4716 226.779 35.1377 226.709 36.8836 226.649 38.7093 226.579 40.6148 226.519 42.6002 226.449 44.6753 226.389 46.8402 226.32 49.0949 226.26 51.4295 226.19 53.8638 226.12 56.3879 226.05 59.0017 225.99 61.7154 225.921 64.5188 225.841 67.432 225.771 70.4349 225.701 73.5776 225.641 76.7202 225.581 79.8628 225.531 83.0055 225.492 86.1381 225.452 89.2708 225.422 92.4035 225.392 95.5261 225.372 98.6388 225.362 101.742 225.362 104.844 225.362 107.927 225.362 111.01 225.382 114.073 225.392 117.126 225.422 120.158 225.452 123.181 225.492 126.194 225.531 129.187 225.581 132.15 225.641 135.113 225.701 138.046 225.771 140.96 225.841 143.843 225.921 146.716 226.01 149.56 226.1 152.383 226.2 155.176 226.3 157.94 226.409 160.683 226.529 163.397 226.649 166.071 226.779 168.725 226.908 171.348 227.048 173.932 227.188 176.486 227.337 179.001 227.497 181.485 227.656 183.939 227.826 186.343 227.986 188.558 228.145 190.733 228.295 192.848 228.455 194.923 228.594 196.938 228.744 198.904 228.884 200.829 229.033 202.695 229.163 204.511 229.303 206.277 229.432 207.993 229.562 209.659 229.682 211.275 229.801 212.831 229.921 214.348 230.041 215.804 230.151 217.211 230.26 218.568 230.37 219.875 230.47 221.132 230.57 222.329 230.669 223.476 230.759 224.574 230.849 225.621 230.939 226.619 231.019 227.557 231.098 228.445 231.178 229.283 231.248 230.061 231.318 230.789 231.388 231.468 231.448 232.096 231.507 232.665 231.557 233.184 231.617 233.652 231.667 234.061 231.707 234.421 231.747 234.72 231.787 234.969 231.817 235.169 231.877 235.388 231.976 235.618 232.106 235.867 232.266 236.137 232.465 236.426 232.685 236.725 232.934 237.035 233.213 237.364 233.513 237.703 233.832 238.052 234.171 238.401 234.54 238.76 234.919 239.13 235.319 239.499 235.728 239.878 236.147 240.257 236.586 240.626 237.035 241.005 237.483 241.374 237.942 241.743 238.401 242.113 238.86 242.472 239.329 242.821 239.798 243.16 240.257 243.489 240.716 243.809 241.165 244.108 241.614 244.407 242.043 244.677 242.472 244.936 242.881 245.175 243.28 245.395 243.659 245.594 244.028 245.774 244.377 245.934 244.697 246.053 245.006 246.163 245.275 246.233 245.535 246.283 245.754 246.293 245.834 246.293 245.924 246.283 246.023 246.263 246.143 246.243 246.263 246.213 246.393 246.173 246.542 246.123 246.692 246.073 246.852 246.023 247.021 245.954 247.201 245.884 247.39 245.814 247.59 245.734 247.799 245.644 248.009 245.555 248.228 245.465 248.458 245.355 248.687 245.255 248.927 245.146 249.176 245.026 249.425 244.906 249.685 244.786 249.944 244.657 250.214 244.527 250.483 244.387 250.762 244.248 251.042 244.108 251.331 243.958 251.62 243.809 251.91 243.649 252.199 243.499 252.498 243.34 252.798 243.18 253.107 243.011 253.406 242.841 253.715 242.671 254.015 242.502 254.324 242.332 254.633 242.153 254.943 241.973 255.252 241.803 255.551 241.624 255.86 241.454 256.17 241.275 256.479 241.105 256.778 240.945 257.088 240.776 257.387 240.616 257.686 240.456 257.985 240.297 258.285 240.147 258.574 239.998 258.863 239.848 259.153 239.708 259.432 239.569 259.711 239.429 259.981 239.299 260.25 239.17 260.509 239.04 260.769 238.92 261.028 238.81 261.268 238.701 261.507 238.591 261.747 238.491 261.976 238.391 262.196 238.302 262.405 238.222 262.605 238.142 262.804 238.062 262.994 237.992 263.173 237.932 263.343 237.873 263.502 237.823 263.652 237.783 263.792 237.743 263.922 237.713 264.041 237.683 264.151 237.673 264.251 237.663 264.341 237.653 264.43 237.653 264.53 237.663 264.66 237.673 264.799 237.703 264.959 237.733 265.129 237.783 265.318 237.833 265.518 237.893 265.737 237.972 265.967 238.042 266.216 238.132 266.476 238.232 266.745 238.331 267.024 238.441 267.324 238.561 267.633 238.681 267.952 238.81 268.281 238.95 268.62 239.1 268.97 239.249 269.329 239.409 269.698 239.569 270.077 239.738 270.456 239.908 270.855 240.087 271.254 240.277 271.663 240.466 272.072 240.656 272.491 240.856 272.92 241.055 273.349 241.265 273.788 241.474 274.227 241.694 274.676 241.903 275.125 242.123 275.574 242.352 276.033 242.582 276.492 242.811 276.951 243.04 277.41 243.27 288.424 248.996 299.658 243.06 311.001 237.114 329.368 249.645 339.953 244.357 340.831 243.918 341.649 243.509 342.428 243.11 343.156 242.751 343.844 242.402 344.493 242.073 345.111 241.773 345.69 241.494 346.249 241.245 346.777 241.015 347.276 240.806 347.755 240.616 348.224 240.456 348.673 240.317 349.112 240.197 349.541 240.107 349.97 240.037 350.389 239.998 350.818 239.978 351.247 239.978 351.676 240.008 352.115 240.057 352.574 240.137 353.043 240.237 353.531 240.367 354.04 240.516 354.579 240.696 355.138 240.895 355.736 241.125 356.365 241.374 357.023 241.654 357.722 241.953 358.47 242.282 359.258 242.641 360.096 243.02 360.994 243.43 361.932 243.868 362.939 244.327 363.997 244.816 365.124 245.325 372.258 248.567 381.007 242.621 389.866 236.795 394.725 238.302 394.924 238.371 395.144 238.441 395.363 238.511 395.583 238.581 395.812 238.651 396.052 238.721 396.291 238.8 396.541 238.88 396.79 238.96 397.04 239.04 397.299 239.12 397.558 239.199 397.818 239.279 398.087 239.359 398.356 239.449 398.626 239.529 398.895 239.618 399.175 239.698 399.444 239.788 399.723 239.868 399.993 239.958 400.272 240.037 400.541 240.127 400.821 240.207 401.1 240.297 401.369 240.377 401.639 240.456 401.908 240.546 402.177 240.626 402.437 240.706 402.706 240.786 402.966 240.866 403.215 240.935 403.465 241.015 403.714 241.085 403.953 241.165 404.193 241.235 404.432 241.305 404.652 241.374 404.881 241.434 405.091 241.504 405.3 241.564 405.52 241.624 405.739 241.694 405.959 241.753 406.188 241.813 406.408 241.873 406.627 241.933 406.857 241.993 407.086 242.053 407.306 242.113 407.535 242.162 407.754 242.222 407.984 242.272 408.203 242.332 408.433 242.382 408.652 242.432 408.872 242.482 409.091 242.522 409.311 242.572 409.52 242.611 409.73 242.651 409.939 242.691 410.139 242.731 410.348 242.771 410.538 242.811 410.737 242.841 410.927 242.871 411.107 242.901 411.286 242.921 411.466 242.951 411.635 242.971 411.795 242.991 411.955 243.011 412.104 243.02 412.254 243.03 412.394 243.04 412.523 243.05 412.643 243.05 412.763 243.06 412.992 243.05 413.252 243.02 413.541 242.981 413.85 242.921 414.169 242.851 414.519 242.771 414.888 242.671 415.277 242.562 415.676 242.442 416.085 242.302 416.514 242.162 416.953 242.003 417.402 241.843 417.851 241.674 418.31 241.494 418.779 241.314 419.248 241.115 419.716 240.925 420.185 240.726 420.654 240.516 421.113 240.307 421.572 240.097 422.021 239.888 422.47 239.668 422.909 239.459 423.328 239.249 423.737 239.03 424.136 238.82 424.525 238.611 424.884 238.411 425.233 238.202 425.553 238.012 425.862 237.813 426.141 237.633 426.391 237.454 426.62 237.284 426.82 237.114 426.989 236.965 427.129 236.815 427.239 236.685 427.269 236.625 427.289 236.536 427.329 236.426 427.358 236.286 427.398 236.137 427.428 235.947 427.478 235.748 427.518 235.528 427.558 235.279 427.608 235.009 427.658 234.73 427.708 234.421 427.758 234.091 427.817 233.752 427.867 233.393 427.927 233.014 427.987 232.615 428.047 232.206 428.107 231.777 428.167 231.338 428.236 230.879 428.296 230.41 428.366 229.921 428.426 229.422 428.496 228.914 428.566 228.395 428.626 227.866 428.695 227.317 428.765 226.769 428.835 226.2 428.905 225.631 428.975 225.043 429.035 224.454 429.104 223.865 429.174 223.257 429.244 222.648 429.314 222.03 429.374 221.411 429.444 220.783 429.503 220.154 429.573 219.516 429.643 218.857 429.703 218.199 429.773 217.53 429.843 216.862 429.913 216.193 429.982 215.515 430.052 214.827 430.132 214.148 430.202 213.46 430.272 212.771 430.342 212.083 430.421 211.405 430.491 210.716 430.561 210.038 430.641 209.359 430.711 208.681 430.78 208.013 430.85 207.354 430.93 206.696 431 206.037 431.07 205.399 431.14 204.76 431.199 204.142 431.269 203.523 431.339 202.924 431.399 202.336 431.469 201.747 431.529 201.189 431.589 200.63 431.648 200.101 431.708 199.572 431.758 199.073 431.818 198.585 431.868 198.116 431.918 197.667 431.968 197.238 432.018 196.819 432.057 196.43 432.097 196.061 432.177 195.342 432.257 194.434 432.347 193.357 432.437 192.11 432.536 190.713 432.636 189.177 432.746 187.501 432.856 185.705 432.965 183.789 433.085 181.764 433.205 179.639 433.325 177.424 433.444 175.13 433.564 172.765 433.694 170.341 433.813 167.867 433.933 165.353 434.063 162.798 434.183 160.215 434.302 157.621 434.422 155.017 434.532 152.423 434.651 149.839 434.761 147.275 434.871 144.741 434.971 142.247 435.07 139.802 435.16 137.418 435.25 135.093 435.34 132.859 435.41 130.704 435.479 128.639 435.549 126.683 435.609 124.837 435.659 123.111 435.699 121.525 435.729 120.079 435.749 118.772 435.769 117.634 435.769 116.667 435.769 116.238 435.769 115.769 435.759 115.25 435.749 114.691 435.739 114.083 435.719 113.424 435.699 112.716 435.669 111.948 435.639 111.11 435.609 110.222 435.569 109.254 435.529 108.226 435.489 107.119 435.44 105.932 435.38 104.675 435.32 103.328 435.26 101.901 435.19 100.385 435.11 98.7785 435.031 97.0725 434.941 95.2767 434.851 93.3712 434.751 91.3659 434.651 89.2508 434.542 87.0261 434.432 84.6915 434.312 82.2373 434.183 79.6633 434.043 76.9696 433.903 74.1462 433.754 71.1932 433.604 68.1204 433.444 64.8979 433.275 61.5458 433.095 58.054 432.915 54.4125 432.716 50.6214 432.526 46.6906 432.317 42.6002 432.097 38.3501 432.048 37.4622 431.998 36.5843 431.948 35.7063 431.898 34.8483 431.848 33.9903 431.798 33.1523 431.738 32.3242 431.688 31.4962 431.638 30.6981 431.579 29.8999 431.529 29.1218 431.469 28.3536 431.419 27.6053 431.359 26.877 431.309 26.1587 431.249 25.4603 431.199 24.7819 431.14 24.1235 431.09 23.485 431.03 22.8564 430.98 22.2578 430.92 21.6892 430.87 21.1305 430.82 20.6017 430.761 20.0929 430.711 19.614 430.661 19.1551 430.611 18.7261 430.551 18.3271 430.501 17.9479 430.451 17.5988 430.401 17.2795 430.361 17.0002 430.312 16.7408 430.262 16.5113 430.222 16.3218 430.172 16.1621 430.132 16.0324 430.092 15.9426 430.052 15.8828 429.932 15.8429 429.653 15.793 429.224 15.7531 428.655 15.7132 427.937 15.6633 427.069 15.6134 426.072 15.5735 424.934 15.5236 423.667 15.4737 422.26 15.4239 420.734 15.374 419.088 15.3241 417.312 15.2742 415.426 15.2243 413.421 15.1744 411.306 15.1146 409.081 15.0647 406.757 15.0148 404.322 14.9649 401.798 14.9051 399.175 14.8552 396.461 14.8053 393.657 14.7454 390.764 14.6956 387.791 14.6457 384.728 14.5958 381.596 14.5459 378.393 14.496 375.121 14.4362 371.779 14.3863 368.367 14.3464 364.895 14.2965 361.373 14.2466 357.792 14.1967 354.15 14.1468 350.469 14.1069 346.737 14.0571 342.966 14.0172 339.155 13.9772 335.314 13.9373 331.453 13.9074 327.622 13.8675 323.821 13.8376 320.05 13.8076 316.319 13.7777 312.637 13.7378 308.996 13.7079 305.404 13.6779 301.853 13.648 298.371 13.6181 294.939 13.5882 291.567 13.5582 288.254 13.5283 285.022 13.4984 281.85 13.4684 278.757 13.4385 275.744 13.4086 272.801 13.3786 269.947 13.3587 267.184 13.3288 264.51 13.2988 261.936 13.2789 259.452 13.249 257.068 13.229 254.783 13.209 252.618 13.1791 250.553 13.1592 248.607 13.1392 246.772 13.1193 245.056 13.0993 243.469 13.0793 242.013 13.0594 240.676 13.0494 239.479 13.0295 238.421 13.0195 237.503 13.0095 236.725 12.9896 236.087 12.9796 235.608 12.9696 235.279 12.9596 235.029 12.9596 234.78 12.9696ZM290.609 201.129 290.809 201.169 291.028 201.228 291.277 201.298 291.547 201.388 291.846 201.488 292.165 201.598 292.515 201.727 292.894 201.857 293.293 202.007 293.712 202.166 294.181 202.326 294.699 202.505 295.258 202.685 295.857 202.875 296.495 203.074 297.174 203.274 297.882 203.483 298.62 203.693 299.388 203.912 300.187 204.132 301.005 204.361 301.843 204.591 302.711 204.82 303.589 205.049 304.486 205.289 305.404 205.518 306.322 205.748 307.26 205.987 308.198 206.217 309.136 206.446 310.083 206.676 311.031 206.895 311.979 207.125 312.917 207.334 313.854 207.554 314.782 207.763 315.69 207.963 316.598 208.162 317.486 208.352 318.354 208.531 319.202 208.701 320.03 208.871 320.838 209.03 321.377 209.14 321.906 209.25 322.424 209.339 322.933 209.439 323.422 209.519 323.901 209.609 324.37 209.679 324.829 209.748 325.278 209.808 325.717 209.868 326.156 209.918 326.575 209.968 326.994 210.008 327.403 210.038 327.812 210.068 328.211 210.088 328.61 210.108 329.009 210.118 329.398 210.128 329.787 210.128 330.176 210.118 330.565 210.108 330.954 210.098 331.334 210.078 331.733 210.048 332.122 210.018 332.511 209.978 332.91 209.938 333.319 209.888 333.728 209.828 334.137 209.778 334.556 209.709 334.985 209.639 335.414 209.569 336.172 209.429 336.94 209.29 337.709 209.15 338.487 209 339.265 208.841 340.053 208.681 340.851 208.521 341.649 208.352 342.447 208.182 343.256 208.003 344.054 207.823 344.862 207.643 345.68 207.454 346.488 207.264 347.296 207.075 348.114 206.875 348.922 206.676 349.73 206.476 350.539 206.277 351.347 206.067 352.145 205.858 352.943 205.648 353.741 205.429 354.539 205.219 355.317 205 356.105 204.78 356.874 204.561 357.652 204.341 358.41 204.112 359.168 203.892 359.917 203.663 360.655 203.433 361.383 203.204 362.101 202.974 362.421 202.885 362.74 202.795 363.059 202.705 363.368 202.615 363.678 202.525 363.977 202.446 364.276 202.356 364.576 202.276 364.855 202.206 365.144 202.126 365.414 202.056 365.683 201.987 365.942 201.917 366.192 201.857 366.441 201.797 366.681 201.737 366.91 201.687 367.13 201.628 367.339 201.588 367.539 201.538 367.728 201.498 367.908 201.468 368.077 201.428 368.237 201.408 368.377 201.378 368.516 201.358 368.636 201.338 368.746 201.328 368.846 201.328 368.925 201.318 368.995 201.328 369.055 201.328 369.095 201.338 369.125 201.358 369.145 201.428 369.095 201.558 368.985 201.727 368.816 201.937 368.586 202.196 368.307 202.485 367.978 202.815 367.599 203.174 367.18 203.573 366.721 203.982 366.232 204.431 365.703 204.89 365.144 205.369 364.566 205.868 363.967 206.366 363.339 206.885 362.71 207.404 362.062 207.933 361.413 208.461 360.755 208.98 360.096 209.499 359.438 210.008 358.789 210.507 358.151 210.996 357.532 211.464 356.924 211.913 356.345 212.332 355.786 212.731 355.247 213.101 354.749 213.44 354.28 213.749 353.861 214.018 353.472 214.248 353.132 214.427 352.773 214.617 352.394 214.817 352.005 215.006 351.606 215.196 351.187 215.385 350.748 215.575 350.299 215.774 349.85 215.964 349.371 216.153 348.892 216.343 348.394 216.533 347.895 216.722 347.376 216.912 346.847 217.091 346.308 217.281 345.76 217.46 345.211 217.64 344.642 217.82 344.074 217.999 343.495 218.179 342.906 218.348 342.308 218.528 341.709 218.697 341.101 218.867 340.482 219.027 339.864 219.186 339.245 219.346 338.616 219.506 337.978 219.655 337.339 219.805 336.701 219.955 336.062 220.094 335.414 220.234 334.765 220.374 334.327 220.463 333.898 220.553 333.488 220.633 333.089 220.703 332.69 220.773 332.311 220.842 331.942 220.892 331.573 220.952 331.214 220.992 330.855 221.032 330.505 221.062 330.146 221.092 329.807 221.112 329.458 221.122 329.099 221.132 328.75 221.132 328.4 221.132 328.031 221.112 327.672 221.092 327.303 221.072 326.914 221.032 326.525 220.992 326.126 220.942 325.717 220.892 325.298 220.832 324.859 220.763 324.41 220.683 323.941 220.603 323.452 220.513 322.943 220.413 322.424 220.304 321.876 220.194 321.317 220.064 320.728 219.935 319.761 219.715 318.803 219.476 317.855 219.236 316.927 218.977 315.999 218.707 315.092 218.428 314.184 218.149 313.296 217.849 312.418 217.54 311.55 217.221 310.692 216.882 309.854 216.543 309.016 216.193 308.198 215.834 307.39 215.465 306.592 215.076 305.803 214.687 305.035 214.288 304.267 213.869 303.519 213.45 302.79 213.011 302.062 212.572 301.354 212.113 300.655 211.644 299.967 211.175 299.289 210.686 298.63 210.187 297.982 209.689 297.343 209.17 296.725 208.641 296.116 208.102 295.517 207.564 294.939 207.005 294.37 206.436 293.891 205.937 293.432 205.459 293.013 205.02 292.614 204.601 292.245 204.211 291.906 203.842 291.597 203.503 291.307 203.184 291.048 202.895 290.818 202.635 290.619 202.386 290.449 202.166 290.3 201.967 290.18 201.787 290.09 201.637 290.02 201.498 289.98 201.388 289.97 201.288 289.98 201.218 290.02 201.159 290.09 201.119 290.18 201.099 290.3 201.089 290.439 201.099 290.609 201.129ZM390.784 130.105 392.051 130.454 393.288 130.923 394.486 131.502 395.633 132.2 396.74 133.008 397.778 133.916 398.756 134.934 399.653 136.051 400.471 137.278 401.21 138.595 401.609 139.493 401.938 140.391 402.207 141.279 402.407 142.167 402.537 143.045 402.606 143.923 402.616 144.801 402.547 145.669 402.417 146.537 402.227 147.395 401.968 148.253 401.639 149.111 401.24 149.959 400.781 150.807 400.262 151.645 399.673 152.483 399.015 153.321 398.287 154.149 397.548 154.897 396.76 155.575 395.932 156.194 395.064 156.743 394.166 157.232 393.238 157.651 392.281 158.01 391.303 158.299 390.305 158.509 389.298 158.658 388.28 158.748 387.242 158.748 386.215 158.688 385.177 158.558 384.15 158.349 383.122 158.07 382.115 157.71 381.117 157.281 380.399 156.902 379.68 156.443 378.992 155.915 378.303 155.326 377.645 154.688 377.007 153.989 376.398 153.251 375.819 152.473 375.281 151.665 374.782 150.837 374.323 149.989 373.914 149.131 373.555 148.263 373.255 147.405 373.006 146.557 372.836 145.709 372.727 144.9 372.687 144.102 372.717 143.394 372.816 142.656 372.966 141.907 373.185 141.149 373.445 140.381 373.764 139.613 374.133 138.855 374.542 138.086 374.991 137.338 375.49 136.61 376.019 135.892 376.577 135.203 377.166 134.535 377.785 133.906 378.423 133.308 379.092 132.759 379.77 132.25 380.468 131.791 381.706 131.123 382.973 130.584 384.27 130.185 385.566 129.916 386.883 129.776 388.19 129.766 389.497 129.876 390.784 130.105ZM274.726 130.215 276.193 130.694 277.609 131.302 278.956 132.051 280.203 132.938 281.361 133.936 282.388 135.053 283.276 136.271 284.024 137.588 284.603 138.994 284.992 140.481 285.182 142.057 285.252 143.105 285.291 144.072 285.311 144.97 285.311 145.788 285.281 146.547 285.222 147.255 285.132 147.913 285.002 148.542 284.852 149.131 284.653 149.689 284.423 150.238 284.144 150.787 283.825 151.325 283.466 151.864 283.057 152.423 282.588 153.001 282.079 153.61 281.51 154.258 280.962 154.857 280.453 155.396 279.984 155.865 279.535 156.294 279.106 156.653 278.687 156.972 278.268 157.251 277.839 157.481 277.39 157.68 276.931 157.83 276.422 157.96 275.883 158.06 275.285 158.139 274.626 158.189 273.908 158.219 273.11 158.239 272.232 158.249 271.254 158.259 270.336 158.249 269.508 158.239 268.74 158.209 268.052 158.169 267.413 158.119 266.835 158.04 266.296 157.95 265.787 157.83 265.318 157.69 264.879 157.521 264.45 157.331 264.041 157.102 263.632 156.852 263.223 156.553 262.804 156.234 262.365 155.865 261.906 155.466 261.417 155.017 260.779 154.348 260.17 153.66 259.612 152.932 259.103 152.183 258.634 151.405 258.215 150.617 257.836 149.809 257.507 148.981 257.237 148.143 257.008 147.295 256.828 146.447 256.708 145.589 256.639 144.731 256.619 143.883 256.659 143.035 256.748 142.187 256.898 141.359 257.098 140.541 257.297 139.842 257.517 139.184 257.736 138.555 257.975 137.967 258.235 137.408 258.514 136.869 258.813 136.36 259.133 135.882 259.472 135.413 259.851 134.954 260.26 134.515 260.689 134.096 261.168 133.667 261.677 133.258 262.225 132.839 262.814 132.42 263.443 132.001 264.121 131.572 265.558 130.833 267.044 130.285 268.571 129.916 270.117 129.746 271.663 129.736 273.21 129.896 274.726 130.215Z" fill="#1D95F8" transform="matrix(1.00069 0 0 1 313.541 211.128)"/></g></g></g></svg>